<svg width="84" height="84" viewBox="0 0 84 84" fill="none" xmlns="http://www.w3.org/2000/svg">
<g clip-path="url(#clip0_918_9239)">
<path d="M40.2708 5.36087C40.7047 5.77324 40.9635 6.27327 41.0451 6.85895C41.1148 7.36097 41.0491 7.83111 40.8461 8.26938C40.643 8.70765 40.3106 9.07818 39.8507 9.37899C39.3909 9.6798 38.8355 9.87703 38.1826 9.96866L34.2371 10.5245L32.8516 0.65348L36.6119 0.123574C37.2828 0.0299444 37.876 0.0618184 38.3916 0.221189C38.9052 0.380559 39.3133 0.635551 39.6138 0.984173C39.9144 1.3328 40.0976 1.74517 40.1633 2.2173C40.2429 2.78506 40.1573 3.28109 39.9085 3.70143C39.6596 4.12376 39.2914 4.46043 38.8056 4.71144C39.3491 4.73136 39.8368 4.9485 40.2728 5.35888L40.2708 5.36087ZM35.0512 4.57398L37.0519 4.29309C37.5814 4.21939 37.9795 4.0401 38.2423 3.75721C38.505 3.47433 38.6066 3.10579 38.5429 2.64959C38.4812 2.20535 38.2821 1.87665 37.9497 1.66946C37.6172 1.46029 37.1852 1.39256 36.6557 1.46826L34.6551 1.74915L35.0512 4.57598V4.57398ZM39.0903 8.09009C39.365 7.78131 39.4705 7.39085 39.4028 6.91673C39.3352 6.43463 39.1162 6.07406 38.7439 5.83699C38.3737 5.59993 37.9138 5.52025 37.3644 5.59595L35.2344 5.89476L35.6664 8.97658L37.8521 8.6698C38.4015 8.5921 38.8136 8.39887 39.0883 8.09009H39.0903Z" fill="#B9B9B9"/>
<path d="M48.7953 8.27728L44.6607 7.72148L43.6793 9.64388L41.9893 9.41678L46.8544 0L48.7296 0.251008L50.9413 10.62L49.2373 10.3909L48.7973 8.27728H48.7953ZM48.5186 6.89475L47.5293 2.08775L45.2938 6.46246L48.5186 6.89475Z" fill="#B9B9B9"/>
<path d="M55.1492 4.03016C55.8897 3.52217 56.7039 3.23929 57.5938 3.17753C58.4836 3.11577 59.3475 3.28311 60.1856 3.67755C61.1451 4.12977 61.8876 4.76725 62.4131 5.59199C62.9387 6.41673 63.1676 7.33908 63.0959 8.36303L61.3203 7.52634C61.3103 6.94066 61.1531 6.43266 60.8485 6.00436C60.5439 5.57605 60.1179 5.23141 59.5745 4.97642C58.9773 4.69553 58.384 4.57799 57.7908 4.6278C57.1976 4.67561 56.6522 4.88877 56.1505 5.26528C55.6509 5.64179 55.2448 6.16373 54.9302 6.83109C54.6157 7.49646 54.4744 8.1439 54.5003 8.76943C54.5281 9.39496 54.7113 9.95474 55.0497 10.4468C55.3881 10.9389 55.8559 11.3253 56.4511 11.6082C56.9966 11.8652 57.5301 11.9748 58.0556 11.9369C58.5811 11.8991 59.0708 11.6979 59.5287 11.3313L61.3043 12.168C60.5598 12.8732 59.7039 13.2836 58.7364 13.3991C57.7689 13.5147 56.8055 13.3453 55.846 12.8931C54.9979 12.4947 54.3171 11.9329 53.8035 11.2078C53.288 10.4846 52.9913 9.67585 52.9097 8.78138C52.8281 7.88692 52.9953 6.99843 53.4114 6.11592C53.8274 5.2334 54.4047 4.53815 55.1452 4.03215L55.1492 4.03016Z" fill="#B9B9B9"/>
<path d="M65.0985 19.3037L65.208 13.407L62.23 16.7259L61.0137 15.6342L67.6685 8.21753L68.8848 9.30921L65.849 12.6918L71.7633 11.897L73.2881 13.2676L66.7348 14.0863L66.6851 20.7321L65.0965 19.3037H65.0985Z" fill="#B9B9B9"/>
<path d="M77.2217 26.9615L76.0014 27.597L73.2842 22.3657L74.5045 21.7302L77.2217 26.9615Z" fill="#B9B9B9"/>
<path d="M78.6514 40.7788C78.2294 41.2031 77.7258 41.4521 77.1365 41.5218C76.6329 41.5816 76.1651 41.5039 75.7311 41.2908C75.2972 41.0776 74.9349 40.737 74.6442 40.2708C74.3536 39.8046 74.1704 39.2429 74.0928 38.5894L73.625 34.6291L83.5166 33.4597L83.9625 37.2348C84.0421 37.9081 83.9964 38.5018 83.8252 39.0138C83.654 39.5257 83.3912 39.9262 83.0369 40.219C82.6825 40.5118 82.2665 40.6852 81.7927 40.7409C81.2234 40.8087 80.7317 40.713 80.3156 40.4541C79.8996 40.1951 79.5711 39.8206 79.3302 39.3285C79.2984 39.8724 79.0715 40.3565 78.6494 40.7808L78.6514 40.7788ZM75.9501 39.5377C76.2527 39.8206 76.6409 39.9321 77.1166 39.8764C77.6004 39.8186 77.9646 39.6074 78.2115 39.2409C78.4563 38.8743 78.5479 38.4161 78.4822 37.8663L78.2294 35.7287L75.1399 36.0933L75.3987 38.2866C75.4644 38.8365 75.6475 39.2528 75.9501 39.5357V39.5377ZM79.5512 35.5734L79.7881 37.5814C79.8518 38.1133 80.021 38.5137 80.2977 38.7847C80.5744 39.0556 80.9407 39.1632 81.3965 39.1094C81.8425 39.0576 82.1729 38.8663 82.3899 38.5376C82.6049 38.2089 82.6825 37.7786 82.6208 37.2467L82.3839 35.2387L79.5512 35.5734Z" fill="#B9B9B9"/>
<path d="M75.5479 49.2493L76.1949 45.1256L74.2958 44.1016L74.5606 42.4163L83.8629 47.4922L83.5703 49.3628L73.1611 51.345L73.4279 49.6437L75.5499 49.2512L75.5479 49.2493ZM76.9354 49.0022L81.7608 48.1177L77.4411 45.7849L76.9374 49.0022H76.9354Z" fill="#B9B9B9"/>
<path d="M79.6503 55.6979C80.14 56.449 80.4067 57.2717 80.4485 58.1642C80.4903 59.0567 80.3032 59.9173 79.8911 60.746C79.4173 61.6962 78.7644 62.4253 77.9283 62.9313C77.0942 63.4393 76.1646 63.6465 75.1434 63.5529L76.0193 61.7938C76.6045 61.7978 77.1161 61.6504 77.5501 61.3556C77.9861 61.0607 78.3384 60.6424 78.6072 60.1045C78.9018 59.5149 79.0312 58.9212 78.9973 58.3275C78.9615 57.7339 78.7624 57.1821 78.3961 56.6741C78.0299 56.1661 77.5183 55.7477 76.8594 55.419C76.2004 55.0903 75.5595 54.933 74.9324 54.9469C74.3073 54.9609 73.744 55.1302 73.2443 55.4589C72.7447 55.7856 72.3485 56.2458 72.0539 56.8354C71.7851 57.3753 71.6637 57.9072 71.6896 58.4331C71.7155 58.9591 71.9066 59.4551 72.2609 59.9212L71.385 61.6803C70.6963 60.9193 70.3061 60.0547 70.2125 59.0846C70.119 58.1144 70.3101 57.1542 70.7838 56.2039C71.2019 55.3653 71.7772 54.6959 72.5117 54.1979C73.2463 53.6978 74.0605 53.4189 74.9563 53.3572C75.8521 53.2954 76.7359 53.4827 77.6078 53.919C78.4797 54.3552 79.1606 54.9469 79.6523 55.6999L79.6503 55.6979Z" fill="#B9B9B9"/>
<path d="M64.1731 65.3137L70.0614 65.5528L66.8107 62.5009L67.9294 61.3096L75.1934 68.1326L74.0746 69.3259L70.7622 66.2142L71.427 72.1487L70.0236 73.6448L69.3488 67.0708L62.7119 66.8756L64.1731 65.3177V65.3137Z" fill="#B9B9B9"/>
<path d="M52.3585 78.5894L51.8887 77.2946L57.4247 75.2805L57.8945 76.5754L52.3585 78.5894Z" fill="#B9B9B9"/>
<path d="M38.4655 78.197C38.1012 77.7229 37.9221 77.189 37.932 76.5953C37.94 76.0893 38.0793 75.6331 38.3481 75.2327C38.6168 74.8303 39.003 74.5155 39.5027 74.2904C40.0043 74.0633 40.5836 73.9557 41.2425 73.9677L45.2258 74.0314L45.0646 83.9981L41.2664 83.9363C40.5876 83.9243 40.0063 83.8008 39.5246 83.5638C39.0428 83.3267 38.6785 83.0119 38.4357 82.6215C38.1928 82.231 38.0774 81.7948 38.0833 81.3167C38.0933 80.7429 38.2525 80.2668 38.5651 79.8903C38.8776 79.5118 39.2917 79.2369 39.8112 79.0636C39.2777 78.96 38.8278 78.6691 38.4635 78.195L38.4655 78.197ZM40.0541 75.6829C39.7336 75.9459 39.5703 76.3164 39.5624 76.7945C39.5544 77.2826 39.7157 77.6711 40.0441 77.9639C40.3746 78.2567 40.8165 78.4062 41.3699 78.4161L43.5198 78.452L43.5696 75.3403L41.3619 75.3044C40.8085 75.2964 40.3706 75.422 40.0521 75.6849L40.0541 75.6829ZM43.4999 79.7847L41.4794 79.7508C40.9439 79.7429 40.5239 79.8564 40.2193 80.0955C39.9147 80.3345 39.7575 80.6832 39.7515 81.1413C39.7435 81.5896 39.8889 81.9442 40.1855 82.2031C40.4821 82.4621 40.8981 82.5956 41.4336 82.6036L43.4541 82.6374L43.4999 79.7827V79.7847Z" fill="#B9B9B9"/>
<path d="M30.4912 74.0373L34.4925 75.2167L35.7545 73.4656L37.3909 73.9477L31.1501 82.5158L29.3347 81.98L28.7295 71.3938L30.3798 71.8799L30.4912 74.0354V74.0373ZM30.5549 75.4458L30.7998 80.3484L33.6743 76.3661L30.5529 75.4458H30.5549Z" fill="#B9B9B9"/>
<path d="M23.5754 77.2687C22.7672 77.6571 21.9172 77.8145 21.0294 77.7408C20.1415 77.6671 19.3114 77.3703 18.543 76.8523C17.6632 76.2587 17.0261 75.5156 16.632 74.6211C16.2378 73.7267 16.1522 72.7784 16.3772 71.7784L18.0055 72.876C17.9259 73.4558 18.0055 73.9817 18.2404 74.4518C18.4773 74.922 18.8456 75.3264 19.3433 75.663C19.8907 76.0316 20.46 76.2368 21.0533 76.2806C21.6465 76.3224 22.2198 76.1949 22.7712 75.8981C23.3226 75.6013 23.8043 75.1471 24.2144 74.5355C24.6245 73.9239 24.8654 73.3083 24.9331 72.6848C25.0007 72.0613 24.9052 71.4816 24.6444 70.9437C24.3856 70.4058 23.9815 69.9516 23.4341 69.5831C22.9344 69.2464 22.4228 69.0571 21.8993 69.0153C21.3757 68.9735 20.8582 69.099 20.3505 69.3898L18.7222 68.2922C19.5642 67.7065 20.474 67.4316 21.4474 67.4654C22.4208 67.4993 23.3485 67.8121 24.2284 68.4057C25.0047 68.9296 25.594 69.587 25.9921 70.3819C26.3922 71.1748 26.5634 72.0194 26.5077 72.9159C26.4519 73.8123 26.1513 74.665 25.6079 75.4738C25.0644 76.2826 24.3876 76.8822 23.5774 77.2707L23.5754 77.2687Z" fill="#B9B9B9"/>
<path d="M16.0488 60.6642L15.0515 66.4772L18.4953 63.6464L19.5325 64.9094L11.8346 71.2364L10.7974 69.9734L14.309 67.0868L8.34096 66.9812L7.03906 65.3955L13.6401 65.5748L14.6892 59.0127L16.0448 60.6642H16.0488Z" fill="#B9B9B9"/>
<path d="M5.22949 51.2574L6.53338 50.8152L8.42252 56.3991L7.11863 56.8414L5.22949 51.2574Z" fill="#B9B9B9"/>
<path d="M5.9063 37.3862C6.38605 37.0296 6.92353 36.8603 7.51475 36.8802C8.02038 36.8962 8.47226 37.0436 8.87039 37.3185C9.26853 37.5954 9.57509 37.9859 9.79207 38.4899C10.0091 38.9939 10.1086 39.5776 10.0867 40.237L9.9553 44.2232L0 43.8965L0.125412 40.0975C0.147309 39.4182 0.280683 38.8405 0.527526 38.3604C0.772377 37.8803 1.09287 37.5237 1.48703 37.2866C1.88118 37.0516 2.31912 36.94 2.79489 36.9559C3.3682 36.9739 3.83999 37.1432 4.21224 37.4619C4.5845 37.7807 4.85324 38.201 5.01647 38.723C5.12994 38.1911 5.42655 37.7468 5.9063 37.3882V37.3862ZM4.23613 42.3964L4.30182 40.3744C4.31974 39.8385 4.21025 39.4162 3.97734 39.1074C3.74444 38.7987 3.39806 38.6373 2.94021 38.6214C2.49231 38.6074 2.13598 38.7449 1.87321 39.0377C1.61045 39.3306 1.46911 39.7449 1.45318 40.2788L1.38749 42.3008L4.23812 42.3944L4.23613 42.3964ZM8.39064 39.0178C8.13385 38.6931 7.76558 38.5237 7.28782 38.5078C6.8001 38.4919 6.40794 38.6473 6.11133 38.972C5.81473 39.2967 5.65547 39.7369 5.63756 40.2908L5.56589 42.4403L8.67531 42.5419L8.74697 40.3346C8.76489 39.7808 8.64545 39.3405 8.38865 39.0178H8.39064Z" fill="#B9B9B9"/>
<path d="M10.2576 29.4774L8.98959 33.4537L10.7115 34.7566L10.1939 36.3821L1.77344 29.9456L2.34874 28.1427L12.9371 27.7742L12.4155 29.4137L10.2596 29.4774H10.2576ZM8.84825 29.5093L3.94525 29.6468L7.85889 32.613L8.84825 29.5113V29.5093Z" fill="#B9B9B9"/>
<path d="M7.18445 22.485C6.81419 21.6683 6.67484 20.8156 6.7704 19.9272C6.86396 19.0407 7.17848 18.2179 7.71397 17.4589C8.3251 16.5923 9.08355 15.9708 9.98532 15.5963C10.8871 15.2217 11.8366 15.158 12.832 15.403L11.6993 17.0087C11.122 16.917 10.5945 16.9828 10.1187 17.2099C9.64292 17.435 9.23285 17.7956 8.88448 18.2876C8.50426 18.8275 8.28728 19.3933 8.22955 19.9849C8.17381 20.5786 8.28927 21.1523 8.57394 21.7121C8.8586 22.2699 9.30252 22.7619 9.90171 23.1863C10.5029 23.6106 11.114 23.8636 11.7351 23.9453C12.3562 24.0269 12.9375 23.9453 13.4809 23.6963C14.0244 23.4472 14.4862 23.0548 14.8664 22.5149C15.2128 22.0229 15.4139 21.5149 15.4676 20.9909C15.5213 20.467 15.4079 19.9491 15.1272 19.4331L16.2599 17.8275C16.8252 18.6841 17.08 19.5985 17.0263 20.5726C16.9706 21.5468 16.6381 22.4671 16.025 23.3337C15.4855 24.0987 14.8147 24.6724 14.0124 25.0549C13.2102 25.4374 12.3622 25.5908 11.4684 25.5131C10.5746 25.4374 9.72852 25.1186 8.93226 24.5549C8.13599 23.9931 7.55273 23.3018 7.18246 22.485H7.18445Z" fill="#B9B9B9"/>
<path d="M23.9376 15.3235L18.1528 14.198L20.9059 17.7061L19.6199 18.7161L13.4688 10.8751L14.7547 9.8651L17.5616 13.441L17.7984 7.47256L19.4109 6.20557L19.0864 12.8075L25.6178 14.0027L23.9376 15.3235Z" fill="#B9B9B9"/>
<path d="M29.6272 5.84692L30.1786 7.10794L24.7819 9.47259L24.2305 8.21158L29.6272 5.84692Z" fill="#B9B9B9"/>
</g>
<path d="M49 42H35" stroke="#6D6D6D" stroke-width="2" stroke-linecap="round" stroke-linejoin="round"/>
<path d="M42 49L35 42L42 35" stroke="#6D6D6D" stroke-width="2" stroke-linecap="round" stroke-linejoin="round"/>
<defs>
<clipPath id="clip0_918_9239">
<rect width="84" height="84" fill="white"/>
</clipPath>
</defs>
</svg>
