<svg width="1440" height="885" viewBox="0 0 1440 885" fill="none" xmlns="http://www.w3.org/2000/svg">
<path d="M1440 -1H0.000595093V315.551C148.205 315.551 214.501 232.104 379.501 315.551C714.001 415.088 635.001 247.431 947.501 315.551C1260 383.671 1440 209.113 1440 209.113V-1Z" fill="url(#paint0_linear_784_4877)"/>
<path d="M-0.5 741.742V829.5H1440.5V768.402C1440.07 768.257 1439.51 768.066 1438.81 767.835C1437.03 767.242 1434.37 766.379 1430.9 765.299C1423.96 763.14 1413.75 760.115 1400.69 756.659C1374.57 749.747 1337.05 741.112 1291.48 734.228C1200.34 720.459 1077.07 713.702 948.451 741.705C825.539 768.466 745.837 750.874 669.846 734.101C665.961 733.243 662.084 732.387 658.213 731.54C578.756 714.15 501.102 700.179 379.037 741.66C278.365 775.87 220.13 775.905 168.414 767.325C152.993 764.766 138.214 761.46 123.101 758.08C87.8475 750.194 50.7757 741.901 -0.5 741.742Z" stroke="#F9F9F9" stroke-width="3"/>
<path d="M1443.67 794.977L1443.12 800.659L1441.63 800.515L1441.49 802.015L1439.83 802.035L1439.85 803.535L1433.86 803.605L1433.84 802.105L1427.84 802.175L1427.86 803.675L1421.86 803.745L1421.85 802.246L1415.85 802.316L1415.87 803.816L1409.87 803.886L1409.85 802.386L1403.86 802.456L1403.88 803.956L1397.88 804.026L1397.86 802.527L1391.87 802.597L1391.88 804.097L1385.89 804.167L1385.87 802.667L1379.87 802.737L1379.89 804.237L1373.9 804.307L1373.88 802.808L1367.88 802.878L1367.9 804.378L1361.9 804.448L1361.89 802.948L1355.89 803.018L1355.91 804.518L1349.91 804.588L1349.9 803.088L1343.9 803.159L1343.92 804.659L1337.92 804.729L1337.9 803.229L1331.91 803.299L1331.93 804.799L1325.93 804.869L1325.91 803.369L1319.92 803.44L1319.93 804.94L1313.94 805.01L1313.92 803.51L1307.92 803.58L1307.94 805.08L1301.95 805.15L1301.93 803.65L1295.93 803.721L1295.95 805.221L1289.95 805.291L1289.94 803.791L1283.94 803.861L1283.96 805.361L1277.96 805.431L1277.95 803.931L1271.95 804.002L1271.97 805.502L1265.97 805.572L1265.95 804.072L1259.96 804.142L1259.98 805.642L1253.98 805.712L1253.96 804.212L1247.97 804.283L1247.98 805.783L1241.99 805.853L1241.97 804.353L1235.97 804.423L1235.99 805.923L1230 805.993L1229.98 804.493L1223.98 804.564L1224 806.064L1218 806.134L1217.99 804.634L1211.99 804.704L1212.01 806.204L1206.01 806.274L1205.99 804.774L1200 804.845L1200.02 806.345L1194.02 806.415L1194 804.915L1188.01 804.985L1188.02 806.485L1182.03 806.555L1182.01 805.055L1176.02 805.126L1176.03 806.626L1170.04 806.696L1170.02 805.196L1164.02 805.266L1164.04 806.766L1158.05 806.836L1158.03 805.336L1152.03 805.407L1152.05 806.907L1146.05 806.977L1146.04 805.477L1140.04 805.547L1140.06 807.047L1134.06 807.117L1134.04 805.617L1128.05 805.688L1128.07 807.188L1122.07 807.258L1122.05 805.758L1116.06 805.828L1116.07 807.328L1110.08 807.398L1110.06 805.898L1104.07 805.969L1104.08 807.469L1098.09 807.539L1098.07 806.039L1092.07 806.109L1092.09 807.609L1086.1 807.679L1086.08 806.179L1080.08 806.25L1080.1 807.75L1074.1 807.82L1074.09 806.32L1068.09 806.39L1068.11 807.89L1062.11 807.96L1062.09 806.46L1056.1 806.531L1056.12 808.031L1050.12 808.101L1050.1 806.601L1044.11 806.671L1044.12 808.171L1038.13 808.241L1038.11 806.741L1032.11 806.812L1032.13 808.312L1026.14 808.382L1026.12 806.882L1020.12 806.952L1020.14 808.452L1014.14 808.522L1014.13 807.022L1008.13 807.093L1008.15 808.593L1002.15 808.663L1002.14 807.163L996.14 807.233L996.157 808.733L990.161 808.803L990.144 807.303L984.148 807.374L984.165 808.874L978.17 808.944L978.152 807.444L972.156 807.514L972.174 809.014L966.178 809.084L966.16 807.584L960.164 807.655L960.182 809.155L954.186 809.225L954.168 807.725L948.173 807.795L948.19 809.295L942.194 809.365L942.177 807.865L936.181 807.936L936.198 809.436L930.203 809.506L930.185 808.006L924.189 808.076L924.207 809.576L918.211 809.646L918.193 808.146L912.197 808.217L912.215 809.717L906.219 809.787L906.202 808.287L900.206 808.357L900.223 809.857L894.227 809.927L894.21 808.427L888.214 808.498L888.232 809.998L882.236 810.068L882.218 808.568L876.222 808.638L876.24 810.138L870.244 810.208L870.226 808.708L864.23 808.779L864.248 810.279L858.252 810.349L858.235 808.849L852.239 808.919L852.256 810.419L846.26 810.489L846.243 808.989L840.247 809.06L840.265 810.56L834.269 810.63L834.251 809.13L828.255 809.2L828.273 810.7L822.277 810.77L822.259 809.27L816.264 809.341L816.281 810.841L810.285 810.911L810.268 809.411L804.272 809.481L804.289 810.981L798.293 811.051L798.276 809.551L792.28 809.622L792.298 811.122L786.302 811.192L786.284 809.692L780.288 809.762L780.306 811.262L774.31 811.332L774.292 809.832L768.297 809.903L768.314 811.403L762.318 811.473L762.301 809.973L756.305 810.043L756.322 811.543L750.327 811.613L750.309 810.113L744.313 810.184L744.331 811.684L738.335 811.754L738.317 810.254L732.321 810.324L732.339 811.824L726.343 811.894L726.326 810.394L720.33 810.465L720.347 811.965L714.351 812.035L714.334 810.535L708.338 810.605L708.356 812.105L702.36 812.175L702.342 810.675L696.346 810.746L696.364 812.245L690.368 812.316L690.35 810.816L684.354 810.886L684.372 812.386L678.376 812.456L678.359 810.956L672.363 811.027L672.38 812.526L666.384 812.597L666.367 811.097L660.371 811.167L660.389 812.667L654.393 812.737L654.375 811.237L648.379 811.308L648.397 812.807L642.401 812.878L642.383 811.378L636.388 811.448L636.405 812.948L630.409 813.018L630.392 811.518L624.396 811.589L624.413 813.088L618.418 813.159L618.4 811.659L612.404 811.729L612.422 813.229L606.426 813.299L606.408 811.799L600.412 811.87L600.43 813.369L594.434 813.44L594.416 811.94L588.421 812.01L588.438 813.51L582.442 813.58L582.425 812.08L576.429 812.151L576.447 813.65L570.451 813.721L570.433 812.221L564.437 812.291L564.455 813.791L558.459 813.861L558.441 812.361L552.445 812.432L552.463 813.931L546.467 814.002L546.45 812.502L540.454 812.572L540.471 814.072L534.475 814.142L534.458 812.642L528.462 812.713L528.48 814.212L522.484 814.283L522.466 812.783L516.47 812.853L516.488 814.353L510.492 814.423L510.474 812.923L504.478 812.994L504.496 814.493L498.5 814.564L498.483 813.064L492.487 813.134L492.504 814.634L486.509 814.704L486.491 813.204L480.495 813.275L480.513 814.774L474.517 814.845L474.499 813.345L468.503 813.415L468.521 814.915L462.525 814.985L462.507 813.485L456.512 813.556L456.529 815.055L450.533 815.126L450.516 813.626L444.52 813.696L444.537 815.196L438.542 815.266L438.524 813.766L432.528 813.837L432.546 815.336L426.55 815.407L426.532 813.907L420.536 813.977L420.554 815.477L414.558 815.547L414.54 814.047L408.545 814.118L408.562 815.617L402.566 815.688L402.549 814.188L396.553 814.258L396.57 815.758L390.574 815.828L390.557 814.328L384.561 814.399L384.578 815.898L378.582 815.969L378.565 814.469L372.569 814.539L372.587 816.039L366.591 816.109L366.573 814.609L360.577 814.68L360.595 816.179L354.599 816.25L354.581 814.75L348.585 814.82L348.603 816.32L342.607 816.39L342.589 814.89L336.593 814.961L336.611 816.46L330.615 816.531L330.597 815.031L324.602 815.101L324.619 816.601L318.623 816.671L318.606 815.171L312.61 815.242L312.627 816.741L306.631 816.812L306.614 815.312L300.618 815.382L300.635 816.882L294.64 816.952L294.622 815.452L288.626 815.523L288.644 817.022L282.648 817.093L282.63 815.593L276.634 815.663L276.652 817.163L270.656 817.233L270.638 815.733L264.642 815.804L264.66 817.303L258.664 817.374L258.646 815.874L252.65 815.944L252.668 817.444L246.672 817.514L246.655 816.014L240.659 816.085L240.676 817.584L234.68 817.655L234.663 816.155L228.667 816.225L228.684 817.725L222.688 817.795L222.671 816.295L216.675 816.366L216.692 817.865L210.697 817.936L210.679 816.436L204.683 816.506L204.701 818.006L198.705 818.076L198.687 816.576L192.691 816.647L192.709 818.146L186.713 818.217L186.695 816.717L180.699 816.787L180.717 818.287L174.721 818.357L174.703 816.857L168.707 816.928L168.725 818.427L162.729 818.498L162.712 816.998L156.716 817.068L156.733 818.568L150.737 818.638L150.72 817.138L144.724 817.209L144.741 818.708L138.745 818.779L138.728 817.279L132.732 817.349L132.75 818.849L126.754 818.919L126.736 817.419L120.74 817.49L120.758 818.989L114.762 819.06L114.744 817.56L108.748 817.63L108.766 819.13L102.77 819.2L102.752 817.7L96.7564 817.77L96.774 819.27L90.778 819.341L90.7605 817.841L84.7645 817.911L84.7821 819.411L78.7862 819.481L78.7686 817.981L72.7727 818.051L72.7902 819.551L66.7943 819.622L66.7767 818.122L60.7808 818.192L60.7984 819.692L54.8024 819.762L54.7849 818.262L48.7889 818.332L48.8065 819.832L42.8106 819.903L42.793 818.403L36.7971 818.473L36.8147 819.973L30.8187 820.043L30.8012 818.543L24.8052 818.613L24.8228 820.113L18.8269 820.184L18.8093 818.684L12.8134 818.754L12.8309 820.254L6.835 820.324L6.81743 818.824L0.821501 818.894L0.839074 820.394L-5.15677 820.465L-5.17434 818.965L-6.68438 818.982L-6.71976 817.343L-8.21941 817.376L-8.3543 811.128L-6.85465 811.096L-6.98954 804.848L-8.48919 804.88L-8.62408 798.632L-7.12443 798.6L-7.25932 792.352L-8.75897 792.384L-8.89386 786.136L-7.39421 786.104L-7.5291 779.856L-9.02875 779.888L-9.16364 773.641L-7.66399 773.608L-7.79888 767.36L-9.29853 767.393L-9.43342 761.145L-7.93377 761.112L-8.06866 754.864L-9.56831 754.897L-9.7032 748.649L-8.20355 748.617L-8.23913 746.969C-7.69723 746.949 -7.15686 746.93 -6.618 746.912L-6.66798 745.413C-4.61056 745.344 -2.5751 745.288 -0.56082 745.243L-0.527455 746.743C1.50476 746.698 3.51529 746.664 5.50492 746.642L5.48834 745.142C7.55607 745.119 9.60134 745.109 11.625 745.11L11.6243 746.61C13.6502 746.611 15.6544 746.624 17.6378 746.647L17.6558 745.147C19.7279 745.172 21.7773 745.209 23.8051 745.258L23.7693 746.757C25.7935 746.806 27.7961 746.865 29.7779 746.936L29.8312 745.437C31.9019 745.51 33.9501 745.596 35.977 745.692L35.9058 747.19C37.931 747.286 39.9347 747.394 41.9182 747.511L42.0068 746.013C44.0709 746.136 46.1132 746.269 48.1348 746.412L48.0288 747.908C50.0559 748.052 52.0622 748.206 54.0491 748.369L54.172 746.874C56.2253 747.042 58.2579 747.221 60.2711 747.409L60.1319 748.902C62.1608 749.091 64.17 749.29 66.1611 749.496L66.3159 748.004C68.3558 748.216 70.3766 748.436 72.3797 748.664L72.2103 750.154C74.24 750.385 76.2518 750.624 78.2473 750.869L78.4304 749.38C80.4558 749.629 82.4644 749.885 84.4576 750.147L84.2624 751.634C86.292 751.9 88.306 752.173 90.3061 752.45L90.512 750.964C92.5296 751.243 94.533 751.528 96.5239 751.816L96.3091 753.3C98.3322 753.593 100.343 753.889 102.343 754.188L102.564 752.704C104.581 753.006 106.588 753.31 108.584 753.615L108.358 755.098C110.37 755.405 112.373 755.713 114.369 756.022L114.598 754.539C115.67 754.705 116.741 754.87 117.81 755.036C118.75 755.181 119.688 755.326 120.625 755.471L120.396 756.954C122.406 757.264 124.412 757.573 126.414 757.879L126.64 756.396C128.651 756.704 130.659 757.008 132.665 757.307L132.444 758.791C134.455 759.091 136.465 759.387 138.476 759.677L138.69 758.192C140.7 758.482 142.71 758.766 144.724 759.042L144.52 760.528C146.531 760.804 148.547 761.072 150.567 761.332L150.759 759.844C152.767 760.102 154.781 760.352 156.802 760.591L156.626 762.081C158.643 762.319 160.669 762.548 162.704 762.765L162.863 761.274C164.869 761.488 166.885 761.691 168.911 761.881L168.771 763.374C170.792 763.564 172.824 763.741 174.869 763.905L174.989 762.41C176.999 762.57 179.021 762.717 181.058 762.85L180.961 764.347C182.978 764.478 185.01 764.595 187.059 764.696L187.133 763.198C189.152 763.297 191.188 763.382 193.24 763.45L193.191 764.949C195.202 765.016 197.23 765.067 199.276 765.101L199.301 763.602C201.323 763.635 203.364 763.653 205.423 763.653L205.423 765.153C207.433 765.152 209.46 765.135 211.508 765.101L211.482 763.601C213.498 763.567 215.533 763.516 217.589 763.446L217.639 764.946C219.651 764.878 221.683 764.792 223.736 764.689L223.66 763.191C225.668 763.09 227.697 762.971 229.747 762.834L229.847 764.331C231.857 764.197 233.888 764.045 235.941 763.874L235.817 762.38C237.818 762.214 239.84 762.03 241.884 761.829L242.031 763.321C244.035 763.124 246.06 762.908 248.107 762.675L247.937 761.185C249.934 760.957 251.952 760.712 253.992 760.449L254.184 761.937C256.176 761.68 258.189 761.406 260.223 761.115L260.011 759.63C262.008 759.344 264.027 759.04 266.068 758.719L266.301 760.201C268.275 759.89 270.27 759.563 272.286 759.219L272.034 757.741C274.039 757.398 276.066 757.039 278.114 756.662L278.386 758.138C280.337 757.779 282.309 757.404 284.301 757.014L284.012 755.542C285.998 755.152 288.004 754.746 290.031 754.324L290.337 755.793C292.298 755.384 294.279 754.96 296.279 754.521L295.957 753.056C297.914 752.625 299.891 752.18 301.887 751.719L302.225 753.18C304.211 752.722 306.216 752.248 308.242 751.758L307.889 750.3C309.814 749.835 311.756 749.356 313.718 748.862L314.084 750.316C316.05 749.821 318.034 749.311 320.038 748.787L319.658 747.336C321.604 746.826 323.567 746.303 325.55 745.765L325.942 747.213C327.869 746.69 329.814 746.154 331.776 745.604L331.371 744.159C333.329 743.61 335.305 743.048 337.3 742.471L337.716 743.912C339.64 743.356 341.581 742.786 343.538 742.204L343.111 740.766C345.026 740.196 346.957 739.613 348.905 739.018L349.344 740.452C351.296 739.856 353.264 739.246 355.25 738.624L354.802 737.192C356.709 736.594 358.631 735.984 360.571 735.362L361.029 736.79C362.933 736.179 364.853 735.556 366.789 734.92L366.321 733.495C368.254 732.861 370.202 732.215 372.167 731.556L372.644 732.978C373.627 732.649 374.615 732.316 375.607 731.98C376.569 731.654 377.528 731.331 378.485 731.012L378.01 729.589C379.927 728.949 381.834 728.321 383.73 727.705L384.193 729.132C386.086 728.517 387.968 727.915 389.839 727.325L389.388 725.895C391.264 725.304 393.129 724.725 394.985 724.157L395.423 725.592C397.328 725.01 399.223 724.44 401.107 723.882L400.681 722.444C402.617 721.871 404.541 721.312 406.455 720.765L406.867 722.208C408.776 721.662 410.674 721.13 412.562 720.61L412.164 719.164C414.056 718.643 415.938 718.134 417.809 717.638L418.193 719.088C420.136 718.573 422.066 718.071 423.986 717.583L423.616 716.129C425.564 715.634 427.499 715.152 429.424 714.684L429.779 716.141C431.699 715.674 433.608 715.22 435.505 714.778L435.166 713.317C437.087 712.871 438.998 712.437 440.898 712.017L441.222 713.481C443.191 713.045 445.149 712.624 447.096 712.215L446.788 710.747C448.74 710.338 450.681 709.942 452.61 709.56L452.902 711.032C454.826 710.65 456.739 710.283 458.641 709.928L458.366 708.454C460.344 708.085 462.311 707.73 464.266 707.389L464.523 708.867C466.491 708.524 468.447 708.195 470.392 707.88L470.152 706.399C472.102 706.083 474.042 705.78 475.971 705.491L476.193 706.975C478.16 706.68 480.116 706.399 482.06 706.131L481.856 704.645C483.844 704.372 485.821 704.113 487.787 703.867L487.973 705.356C489.933 705.111 491.881 704.88 493.819 704.662L493.652 703.172C495.627 702.95 497.592 702.742 499.545 702.547L499.694 704.04C501.685 703.842 503.664 703.657 505.633 703.487L505.503 701.992C507.478 701.821 509.443 701.663 511.397 701.519L511.507 703.015C513.483 702.869 515.448 702.736 517.402 702.617L517.311 701.119C519.311 700.997 521.3 700.888 523.279 700.793L523.351 702.291C525.324 702.196 527.286 702.114 529.239 702.044L529.185 700.545C531.175 700.475 533.154 700.417 535.123 700.372L535.157 701.871C537.149 701.826 539.13 701.793 541.103 701.773L541.087 700.273C543.065 700.252 545.034 700.244 546.995 700.248L546.992 701.748C548.98 701.752 550.96 701.768 552.93 701.796L552.952 700.296C554.943 700.324 556.926 700.365 558.901 700.416L558.862 701.916C560.831 701.967 562.791 702.03 564.744 702.103L564.8 700.604C566.798 700.68 568.787 700.766 570.768 700.863L570.695 702.361C572.673 702.458 574.644 702.566 576.607 702.683L576.697 701.186C578.674 701.305 580.645 701.433 582.608 701.571L582.503 703.068C584.486 703.207 586.462 703.356 588.432 703.515L588.552 702.02C590.527 702.179 592.496 702.346 594.459 702.523L594.324 704.017C596.298 704.194 598.265 704.38 600.228 704.574L600.376 703.082C602.352 703.277 604.324 703.481 606.291 703.692L606.131 705.183C608.094 705.394 610.053 705.612 612.008 705.836L612.179 704.346C614.154 704.573 616.124 704.807 618.092 705.047L617.91 706.536C619.874 706.776 621.835 707.022 623.794 707.273L623.985 705.785C625.95 706.038 627.912 706.296 629.872 706.558L629.672 708.045C631.635 708.308 633.595 708.576 635.555 708.848L635.761 707.363C637.723 707.635 639.683 707.912 641.642 708.193L641.43 709.678C643.388 709.958 645.345 710.242 647.303 710.529L647.52 709.045C649.48 709.332 651.439 709.622 653.398 709.914L653.177 711.397C655.134 711.689 657.092 711.983 659.051 712.279L659.275 710.796C661.23 711.091 663.186 711.387 665.144 711.685L664.919 713.168C666.876 713.465 668.835 713.764 670.798 714.062L671.023 712.579C672.977 712.876 674.933 713.174 676.892 713.471L676.667 714.954C678.622 715.25 680.579 715.546 682.541 715.841L682.764 714.358C684.724 714.652 686.688 714.946 688.656 715.238L688.436 716.721C690.386 717.01 692.34 717.298 694.299 717.583L694.515 716.098C696.472 716.383 698.434 716.665 700.401 716.945L700.19 718.43C702.149 718.708 704.114 718.983 706.084 719.255L706.289 717.769C708.241 718.038 710.198 718.303 712.162 718.565L711.964 720.052C713.93 720.313 715.903 720.571 717.883 720.824L718.073 719.336C720.026 719.585 721.986 719.83 723.953 720.07L723.772 721.559C725.732 721.797 727.7 722.031 729.676 722.259L729.848 720.768C731.82 720.996 733.8 721.217 735.789 721.433L735.627 722.924C737.579 723.135 739.539 723.341 741.507 723.539L741.658 722.047C743.622 722.245 745.595 722.436 747.577 722.621L747.438 724.114C749.413 724.298 751.398 724.475 753.392 724.644L753.519 723.149C755.472 723.314 757.433 723.473 759.404 723.623L759.29 725.119C761.266 725.269 763.251 725.412 765.246 725.546L765.347 724.049C767.317 724.182 769.298 724.307 771.288 724.422L771.201 725.92C773.162 726.034 775.133 726.139 777.114 726.236L777.187 724.738C779.163 724.834 781.15 724.922 783.148 725L783.089 726.499C785.064 726.577 787.049 726.645 789.046 726.704L789.09 725.204C791.047 725.262 793.015 725.31 794.994 725.349L794.965 726.849C796.949 726.888 798.943 726.917 800.95 726.936L800.964 725.436C802.936 725.455 804.919 725.464 806.913 725.463L806.914 726.963C808.874 726.962 810.845 726.951 812.828 726.93L812.812 725.43C814.789 725.409 816.778 725.378 818.779 725.336L818.81 726.836C820.793 726.794 822.787 726.743 824.792 726.68L824.746 725.181C826.695 725.12 828.655 725.05 830.626 724.968L830.688 726.467C832.664 726.386 834.652 726.294 836.652 726.191L836.575 724.693C838.564 724.591 840.565 724.478 842.579 724.354L842.671 725.851C844.613 725.731 846.567 725.601 848.532 725.461L848.425 723.964C850.385 723.824 852.357 723.673 854.341 723.512L854.462 725.007C856.451 724.845 858.451 724.672 860.463 724.487L860.326 722.994C862.274 722.815 864.234 722.626 866.205 722.427L866.356 723.919C868.304 723.721 870.264 723.513 872.235 723.295L872.07 721.804C874.036 721.586 876.015 721.357 878.004 721.116L878.184 722.606C880.164 722.367 882.156 722.117 884.16 721.856L883.966 720.368C885.888 720.118 887.821 719.857 889.766 719.586L889.973 721.072C891.922 720.8 893.882 720.517 895.853 720.224L895.632 718.74C897.599 718.448 899.578 718.144 901.567 717.83L901.801 719.312C903.752 719.004 905.714 718.685 907.686 718.355L907.439 716.876C909.357 716.556 911.284 716.225 913.223 715.885L913.483 717.362C915.426 717.02 917.38 716.669 919.345 716.306L919.073 714.831C921.034 714.469 923.005 714.097 924.989 713.714L925.273 715.187C927.203 714.814 929.144 714.431 931.096 714.037L930.799 712.567C932.706 712.183 934.622 711.788 936.55 711.384L936.858 712.852C938.789 712.447 940.73 712.032 942.683 711.606L942.363 710.14C944.311 709.716 946.271 709.281 948.24 708.835L948.571 710.298C949.558 710.075 950.547 709.85 951.539 709.621C952.518 709.396 953.497 709.172 954.476 708.95L954.145 707.488C956.105 707.043 958.065 706.606 960.023 706.175L960.345 707.64C962.3 707.211 964.255 706.788 966.208 706.372L965.895 704.905C967.851 704.489 969.806 704.079 971.76 703.676L972.063 705.145C974.021 704.741 975.979 704.344 977.935 703.954L977.641 702.483C979.614 702.09 981.585 701.703 983.555 701.323L983.839 702.796C985.806 702.417 987.771 702.044 989.734 701.678L989.46 700.204C991.426 699.838 993.391 699.478 995.354 699.125L995.619 700.601C997.587 700.247 999.552 699.9 1001.52 699.56L1001.26 698.082C1003.24 697.738 1005.22 697.401 1007.2 697.07L1007.45 698.55C1009.43 698.22 1011.4 697.896 1013.37 697.579L1013.13 696.098C1015.11 695.781 1017.08 695.47 1019.05 695.166L1019.28 696.648C1021.26 696.343 1023.23 696.045 1025.2 695.752L1024.98 694.269C1026.97 693.973 1028.96 693.684 1030.95 693.402L1031.16 694.887C1033.15 694.605 1035.13 694.329 1037.11 694.06L1036.9 692.574C1038.89 692.304 1040.87 692.041 1042.84 691.784L1043.04 693.271C1045.02 693.013 1047 692.762 1048.97 692.516L1048.79 691.028C1050.79 690.78 1052.79 690.538 1054.78 690.302L1054.95 691.792C1056.94 691.557 1058.93 691.328 1060.92 691.105L1060.75 689.614C1062.74 689.391 1064.72 689.174 1066.7 688.963L1066.86 690.455C1068.85 690.243 1070.84 690.037 1072.82 689.837L1072.67 688.345C1074.67 688.143 1076.68 687.947 1078.67 687.757L1078.82 689.251C1080.81 689.061 1082.8 688.878 1084.79 688.7L1084.66 687.206C1086.65 687.028 1088.63 686.856 1090.62 686.69L1090.74 688.185C1092.74 688.018 1094.73 687.856 1096.72 687.701L1096.61 686.206C1098.62 686.049 1100.62 685.898 1102.62 685.752L1102.73 687.248C1104.73 687.103 1106.72 686.964 1108.71 686.831L1108.61 685.334C1110.6 685.201 1112.59 685.073 1114.57 684.95L1114.67 686.448C1116.67 686.324 1118.68 686.206 1120.67 686.094L1120.59 684.596C1122.6 684.483 1124.61 684.376 1126.61 684.274L1126.68 685.772C1128.68 685.67 1130.68 685.574 1132.66 685.484L1132.6 683.985C1134.59 683.895 1136.57 683.81 1138.55 683.73L1138.61 685.229C1140.63 685.148 1142.65 685.072 1144.65 685.002L1144.6 683.503C1146.61 683.433 1148.62 683.368 1150.62 683.309L1150.66 684.808C1152.66 684.749 1154.65 684.695 1156.64 684.646L1156.6 683.147C1158.6 683.098 1160.6 683.054 1162.59 683.016L1162.62 684.515C1164.64 684.476 1166.65 684.443 1168.65 684.414L1168.63 682.915C1170.64 682.886 1172.64 682.863 1174.64 682.845L1174.65 684.345C1176.64 684.327 1178.63 684.314 1180.61 684.306L1180.6 682.806C1182.62 682.798 1184.63 682.795 1186.64 682.797L1186.64 684.297C1188.65 684.3 1190.66 684.307 1192.66 684.319L1192.67 682.819C1194.67 682.831 1196.66 682.849 1198.65 682.871L1198.63 684.371C1200.63 684.393 1202.63 684.42 1204.61 684.452L1204.64 682.952C1206.66 682.985 1208.68 683.023 1210.69 683.065L1210.65 684.565C1212.66 684.607 1214.66 684.654 1216.65 684.706L1216.69 683.206C1218.68 683.258 1220.66 683.315 1222.64 683.376L1222.59 684.875C1224.61 684.938 1226.63 685.005 1228.64 685.077L1228.69 683.578C1230.71 683.65 1232.71 683.727 1234.71 683.808L1234.65 685.307C1236.64 685.388 1238.62 685.474 1240.6 685.564L1240.67 684.066C1242.68 684.158 1244.69 684.254 1246.68 684.355L1246.61 685.853C1248.63 685.955 1250.63 686.061 1252.63 686.172L1252.71 684.674C1254.71 684.785 1256.7 684.899 1258.68 685.018L1258.59 686.516C1260.59 686.636 1262.58 686.761 1264.57 686.89L1264.66 685.393C1266.69 685.525 1268.7 685.66 1270.7 685.8L1270.6 687.296C1272.59 687.436 1274.58 687.58 1276.55 687.727L1276.67 686.231C1278.67 686.38 1280.66 686.534 1282.63 686.691L1282.51 688.186C1284.54 688.347 1286.55 688.512 1288.55 688.68L1288.67 687.185C1290.67 687.354 1292.66 687.526 1294.63 687.702L1294.5 689.196C1296.5 689.374 1298.48 689.556 1300.45 689.741L1300.59 688.248C1302.62 688.438 1304.63 688.632 1306.62 688.829L1306.47 690.322C1308.47 690.519 1310.44 690.719 1312.4 690.922L1312.56 689.43C1314.57 689.638 1316.56 689.85 1318.54 690.064L1318.38 691.555C1320.39 691.774 1322.39 691.996 1324.38 692.221L1324.55 690.731C1326.53 690.956 1328.5 691.184 1330.44 691.414L1330.27 692.903C1332.29 693.143 1334.3 693.385 1336.28 693.63L1336.47 692.141C1338.47 692.389 1340.46 692.639 1342.43 692.891L1342.24 694.378C1344.22 694.633 1346.19 694.89 1348.13 695.149L1348.33 693.662C1350.36 693.933 1352.37 694.206 1354.35 694.48L1354.15 695.966C1356.13 696.24 1358.09 696.515 1360.02 696.792L1360.23 695.307C1362.26 695.598 1364.27 695.891 1366.24 696.184L1366.02 697.668C1368.02 697.965 1369.99 698.263 1371.93 698.561L1372.16 697.078C1374.17 697.388 1376.15 697.698 1378.1 698.008L1377.86 699.489C1379.88 699.81 1381.85 700.13 1383.8 700.449L1384.04 698.969C1386.05 699.299 1388.01 699.629 1389.94 699.956L1389.69 701.435C1391.71 701.779 1393.69 702.122 1395.63 702.462L1395.89 700.984C1397.9 701.339 1399.87 701.69 1401.79 702.038L1401.52 703.514C1403.54 703.881 1405.51 704.244 1407.41 704.601L1407.69 703.127C1409.74 703.511 1411.72 703.889 1413.63 704.26L1413.35 705.733C1415.34 706.119 1417.26 706.498 1419.11 706.869L1419.4 705.398C1421.5 705.817 1423.49 706.225 1425.4 706.62L1425.09 708.089C1427.17 708.521 1429.14 708.937 1430.99 709.335L1431.31 707.869C1433.42 708.323 1435.37 708.753 1437.17 709.155L1436.84 710.618C1439.03 711.109 1440.99 711.557 1442.7 711.957L1443.04 710.496C1445.43 711.055 1447.34 711.519 1448.75 711.867L1448.39 713.323C1449.04 713.484 1449.59 713.621 1450.02 713.73L1449.87 715.294L1451.36 715.438L1450.81 721.12L1449.32 720.975L1448.77 726.657L1450.26 726.801L1449.71 732.482L1448.22 732.338L1447.67 738.019L1449.16 738.164L1448.61 743.845L1447.12 743.701L1446.57 749.382L1448.07 749.526L1447.52 755.208L1446.02 755.064L1445.47 760.745L1446.97 760.889L1446.42 766.571L1444.92 766.426L1444.38 772.108L1445.87 772.252L1445.32 777.933L1443.83 777.789L1443.28 783.47L1444.77 783.615L1444.22 789.296L1442.73 789.152L1442.18 794.833L1443.67 794.977Z" stroke="#F0F0F0" stroke-width="3" stroke-dasharray="6 6"/>
<path d="M1440 886H0V754.106C148.204 754.106 158 807.982 379.5 754.106C706 692.333 655 804.617 947.5 754.106C1226 694.474 1440 793.477 1440 793.477V886Z" fill="url(#paint1_linear_784_4877)"/>
<defs>
<linearGradient id="paint0_linear_784_4877" x1="720.001" y1="-41.0178" x2="720.001" y2="348" gradientUnits="userSpaceOnUse">
<stop stop-color="#F9F9F9" stop-opacity="0.16"/>
<stop offset="1" stop-color="#F9F9F9"/>
</linearGradient>
<linearGradient id="paint1_linear_784_4877" x1="720" y1="886" x2="720" y2="735" gradientUnits="userSpaceOnUse">
<stop stop-color="#F9F9F9" stop-opacity="0"/>
<stop offset="0.322917" stop-color="#F9F9F9"/>
</linearGradient>
</defs>
</svg>
