<svg width="212" height="66" viewBox="0 0 212 66" fill="none" xmlns="http://www.w3.org/2000/svg">
<g clip-path="url(#clip0_129_142)">
<path d="M74.6138 55.7181V27.3087H66.3533V18.5178L92.9396 18.5178V27.3087H84.6791V55.7181H74.6138Z" fill="#00003E"/>
<path d="M94.9871 22.0859C94.9871 20.7167 95.4683 19.5501 96.435 18.5862C97.3997 17.6243 98.5614 17.1423 99.9201 17.1423C101.279 17.1423 102.509 17.6158 103.457 18.5627C104.405 19.5096 104.878 20.6847 104.878 22.0859C104.878 23.4871 104.395 24.6792 103.43 25.6603C102.466 26.6413 101.296 27.1297 99.9201 27.1297C98.5448 27.1297 97.4204 26.6306 96.4475 25.6347C95.4746 24.6366 94.9891 23.4551 94.9891 22.0859H94.9871ZM95.3937 55.7182V30.06H104.411V55.7182H95.3937Z" fill="#00003E"/>
<path d="M108.224 16.3042H116.775V29.7315C116.775 30.8192 116.752 31.7235 116.711 32.4464C116.67 33.1694 116.605 33.7922 116.522 34.3189C117.566 32.4848 118.765 31.1754 120.119 30.3948C121.474 29.6142 123.237 29.2218 125.407 29.2218C128.807 29.2218 131.562 30.4822 133.676 33.0009C135.788 35.5196 136.846 38.8253 136.846 42.9136C136.846 47.002 135.779 50.4974 133.651 52.9927C131.523 55.4879 128.674 56.7334 125.106 56.7334C123.356 56.7334 121.764 56.3026 120.335 55.4474C118.904 54.59 117.618 53.2934 116.475 51.5595V55.7182H108.224V16.3042ZM116.172 42.92C116.172 44.9205 116.688 46.4965 117.723 47.6503C118.758 48.8041 120.186 49.3799 122.003 49.3799C123.82 49.3799 125.276 48.8084 126.32 47.6631C127.363 46.52 127.886 44.9375 127.886 42.92C127.886 40.9025 127.359 39.3435 126.307 38.1897C125.256 37.036 123.82 36.4601 122.003 36.4601C120.186 36.4601 118.758 37.036 117.723 38.1897C116.686 39.3435 116.172 40.9196 116.172 42.92Z" fill="#00003E"/>
<path d="M138.958 22.0859C138.958 20.7167 139.439 19.5501 140.406 18.5862C141.37 17.6243 142.532 17.1423 143.891 17.1423C145.249 17.1423 146.48 17.6158 147.428 18.5627C148.376 19.5096 148.849 20.6847 148.849 22.0859C148.849 23.4871 148.365 24.6792 147.401 25.6603C146.436 26.6413 145.266 27.1297 143.891 27.1297C142.515 27.1297 141.391 26.6306 140.418 25.6347C139.445 24.6387 138.96 23.4551 138.96 22.0859H138.958ZM139.364 55.7182V30.06H148.382V55.7182H139.364Z" fill="#00003E"/>
<path d="M170.404 38.4329C169.531 37.6608 168.691 37.0999 167.886 36.748C167.081 36.3961 166.233 36.2191 165.343 36.2191C163.563 36.2191 162.148 36.8141 161.098 38.0042C160.049 39.1942 159.524 40.8087 159.524 42.8454C159.524 44.8821 160.069 46.3877 161.16 47.5607C162.252 48.7316 163.72 49.318 165.569 49.318C166.475 49.318 167.326 49.1389 168.124 48.7785C168.921 48.4181 169.682 47.8614 170.404 47.1065V54.9526C169.328 55.5647 168.251 56.0147 167.176 56.3047C166.1 56.5926 164.992 56.7376 163.847 56.7376C159.928 56.7376 156.756 55.4687 154.327 52.9329C151.898 50.3972 150.682 47.0574 150.682 42.9179C150.682 38.7783 151.923 35.6092 154.402 33.0564C156.881 30.5036 160.063 29.2261 163.947 29.2261C165.241 29.2261 166.409 29.354 167.452 29.6057C168.494 29.8595 169.477 30.2647 170.402 30.8213V38.435L170.404 38.4329Z" fill="#00003E"/>
<path d="M173.058 55.7182V16.3042H182.075V55.7182H173.058Z" fill="#00003E"/>
<path d="M212.182 44.654L192.867 44.654C192.883 46.6608 193.385 48.2092 194.373 49.299C195.36 50.3888 196.758 50.9326 198.567 50.9326C199.924 50.9326 201.067 50.666 201.994 50.1328C202.924 49.5997 203.631 48.8106 204.116 47.7613L210.844 50.5914C210.039 52.5534 208.612 54.0676 206.566 55.134C204.519 56.2003 202.013 56.7335 199.044 56.7335C194.615 56.7335 191.064 55.4901 188.388 53.0056C185.712 50.5188 184.374 47.2409 184.374 43.1696C184.374 39.0984 185.712 35.8396 188.392 33.193C191.07 30.5463 194.458 29.2219 198.555 29.2219C202.652 29.2219 206.093 30.5591 208.529 33.2335C210.962 35.9079 212.182 39.5697 212.182 44.2232V44.654ZM203.339 39.5697C203.171 38.1088 202.623 36.9358 201.693 36.0508C200.764 35.1657 199.621 34.7242 198.266 34.7242C196.81 34.7242 195.648 35.1273 194.788 35.9356C193.927 36.7439 193.352 37.9531 193.068 39.5697H203.339Z" fill="#00003E"/>
<path d="M23.8738 16.5L23.8738 45.208L56.4512 65.912L56.4512 37.204L23.8738 16.5Z" fill="url(#paint0_linear_129_142)"/>
<path d="M47.5259 29.4885L48.7125 28.708V0L25.4412 15.3105V15.6453L47.5259 29.4885Z" fill="url(#paint1_linear_129_142)"/>
<path d="M0 60.6064L23.2714 45.2959L23.2714 16.5879L0 31.8984L0 60.6064Z" fill="url(#paint2_linear_129_142)"/>
</g>
<defs>
<linearGradient id="paint0_linear_129_142" x1="23.8738" y1="41.2071" x2="56.4512" y2="41.2071" gradientUnits="userSpaceOnUse">
<stop stop-color="#12AFFC"/>
<stop offset="1" stop-color="#7B28FF"/>
</linearGradient>
<linearGradient id="paint1_linear_129_142" x1="66.9803" y1="9.25796" x2="17.4476" y2="22.8925" gradientUnits="userSpaceOnUse">
<stop stop-color="#12AFFC"/>
<stop offset="1" stop-color="#7B28FF"/>
</linearGradient>
<linearGradient id="paint2_linear_129_142" x1="0" y1="38.5971" x2="23.2714" y2="38.5971" gradientUnits="userSpaceOnUse">
<stop stop-color="#12AFFC"/>
<stop offset="1" stop-color="#7B28FF"/>
</linearGradient>
<clipPath id="clip0_129_142">
<rect width="212" height="66" fill="white"/>
</clipPath>
</defs>
</svg>
