<svg width="115" height="97" viewBox="0 0 115 97" fill="none" xmlns="http://www.w3.org/2000/svg">
<path d="M1.68457 17.0364V14.7993C1.68457 12.5667 3.49492 10.7563 5.72754 10.7563H20.5226M1.68457 24.8978V79.1387C1.68457 80.9244 2.40781 82.5415 3.57803 83.7118C4.74824 84.882 6.36543 85.6052 8.15107 85.6052M8.15107 85.6052H69.9568M8.15107 85.6052C11.7246 85.6052 14.5996 82.6112 14.5996 79.0399V31.106C14.5996 28.8734 16.41 27.063 18.6426 27.063H95.0435C97.2761 27.063 99.0864 28.8734 99.0864 31.106V36.0204M99.0864 54.0745V43.8818" stroke="#3A3A3A" stroke-width="3" stroke-miterlimit="10" stroke-linecap="round" stroke-linejoin="round"/>
<path d="M22.4805 35.0675H34.3019M22.4805 42.9288H40.268M93.1635 27.0631V6.27099C93.1635 4.03838 91.3531 2.22803 89.1205 2.22803H24.5656C22.3329 2.22803 20.5226 4.03838 20.5226 6.27099V27.0631M44.9403 77.7448H24.7266C23.4861 77.7448 22.4805 76.7392 22.4805 75.4987V69.3831C22.4805 68.1425 23.4861 67.137 24.7266 67.137H44.9403C46.1808 67.137 47.1864 68.1425 47.1864 69.3831V75.4987C47.1864 76.7392 46.1808 77.7448 44.9403 77.7448Z" stroke="#3A3A3A" stroke-width="3" stroke-miterlimit="10" stroke-linecap="round" stroke-linejoin="round"/>
<path d="M52.5912 19.8128L54.4363 9.58945C54.4824 9.35001 54.8164 9.32755 54.8941 9.55867L57.8958 19.733C57.9685 19.9498 58.2756 19.9482 58.3461 19.7308L61.2454 9.56047C61.3206 9.32868 61.6546 9.34754 61.7033 9.5863L63.6577 19.8128M45.7224 10.2929C44.8559 9.70709 43.8336 9.39481 42.7876 9.39651C39.8886 9.39651 37.5385 11.7466 37.5385 14.6456C37.5385 17.5447 39.8886 19.8947 42.7876 19.8947C43.965 19.8947 44.9336 19.5071 45.6685 18.8526C45.821 18.7166 45.9634 18.5697 46.0946 18.413M75.8007 10.4758C75.8007 10.4758 73.9169 8.89226 71.6955 9.56137C69.6559 10.1759 69.3704 12.5278 70.8463 13.4898C70.8463 13.4898 72.2943 14.1358 73.9003 14.7283C77.7665 16.1543 76.101 19.8945 72.9886 19.8945C71.4301 19.8945 70.1219 19.2119 69.3302 18.3384M113.315 73.8522V67.3385C113.315 67.1598 113.244 66.9884 113.118 66.8621C112.992 66.7357 112.82 66.6647 112.642 66.6647H108.568C108.257 66.6647 107.981 66.454 107.91 66.151C107.434 64.1413 106.637 62.2216 105.549 60.4662C105.387 60.2029 105.431 59.8613 105.65 59.6423L108.537 56.7554C108.6 56.6928 108.649 56.6185 108.683 56.5368C108.717 56.455 108.734 56.3674 108.734 56.2789C108.734 56.1904 108.717 56.1028 108.683 56.021C108.649 55.9392 108.6 55.8649 108.537 55.8024L103.931 51.1965C103.869 51.134 103.794 51.0843 103.713 51.0504C103.631 51.0166 103.543 50.9991 103.455 50.9991C103.366 50.9991 103.279 51.0166 103.197 51.0504C103.115 51.0843 103.041 51.134 102.978 51.1965L100.091 54.0834C99.8726 54.3022 99.5307 54.3471 99.2675 54.1843C97.5121 53.0964 95.5923 52.2994 93.5826 51.8241C93.2796 51.7527 93.0689 51.4771 93.0689 51.1658V47.092C93.0689 46.9133 92.9979 46.7419 92.8716 46.6156C92.7452 46.4892 92.5738 46.4182 92.3951 46.4182H85.8814C85.7027 46.4182 85.5313 46.4892 85.4049 46.6156C85.2786 46.7419 85.2076 46.9133 85.2076 47.092V51.1658C85.2076 51.4771 84.9969 51.7524 84.6939 51.8241C82.6842 52.2994 80.7645 53.0964 79.009 54.1843C78.7458 54.3471 78.4042 54.3024 78.1852 54.0834L75.2983 51.1965C75.2357 51.134 75.1614 51.0843 75.0797 51.0504C74.9979 51.0166 74.9103 50.9991 74.8218 50.9991C74.7333 50.9991 74.6456 51.0166 74.5639 51.0504C74.4821 51.0843 74.4078 51.134 74.3453 51.1965L69.7394 55.8024C69.6768 55.8649 69.6272 55.9392 69.5933 56.021C69.5594 56.1028 69.542 56.1904 69.542 56.2789C69.542 56.3674 69.5594 56.455 69.5933 56.5368C69.6272 56.6185 69.6768 56.6928 69.7394 56.7554L72.6263 59.6423C72.8451 59.8611 72.89 60.2029 72.7272 60.4662C71.6393 62.2216 70.8423 64.1413 70.367 66.151C70.2955 66.454 70.02 66.6647 69.7086 66.6647H65.6349C65.4562 66.6647 65.2848 66.7357 65.1584 66.8621C65.0321 66.9884 64.9611 67.1598 64.9611 67.3385V73.8522C64.9611 74.0309 65.0321 74.2023 65.1584 74.3287C65.2848 74.455 65.4562 74.526 65.6349 74.526H69.7086C70.02 74.526 70.2953 74.7367 70.367 75.0397C70.8423 77.0494 71.6393 78.9691 72.7272 80.7246C72.89 80.9878 72.8453 81.3294 72.6263 81.5484L69.7394 84.4353C69.6768 84.4979 69.6272 84.5722 69.5933 84.654C69.5594 84.7357 69.542 84.8234 69.542 84.9119C69.542 85.0004 69.5594 85.088 69.5933 85.1697C69.6272 85.2515 69.6768 85.3258 69.7394 85.3884L74.3453 89.9942C74.4078 90.0568 74.4821 90.1064 74.5639 90.1403C74.6456 90.1742 74.7333 90.1916 74.8218 90.1916C74.9103 90.1916 74.9979 90.1742 75.0797 90.1403C75.1614 90.1064 75.2357 90.0568 75.2983 89.9942L78.1852 87.1073C78.4039 86.8885 78.7458 86.8436 79.009 87.0065C80.7645 88.0943 82.6842 88.8914 84.6939 89.3666C84.9969 89.4381 85.2076 89.7137 85.2076 90.025V94.0987C85.2076 94.2774 85.2786 94.4488 85.4049 94.5752C85.5313 94.7016 85.7027 94.7725 85.8814 94.7725H92.3951C92.5738 94.7725 92.7452 94.7016 92.8716 94.5752C92.9979 94.4488 93.0689 94.2774 93.0689 94.0987V90.025C93.0689 89.7137 93.2796 89.4383 93.5826 89.3666C95.5923 88.8913 97.512 88.0943 99.2675 87.0065C99.5307 86.8436 99.8723 86.8883 100.091 87.1073L102.978 89.9942C103.041 90.0568 103.115 90.1064 103.197 90.1403C103.279 90.1742 103.366 90.1916 103.455 90.1916C103.543 90.1916 103.631 90.1742 103.713 90.1403C103.794 90.1064 103.869 90.0568 103.931 89.9942L108.537 85.3884C108.6 85.3258 108.649 85.2515 108.683 85.1697C108.717 85.088 108.734 85.0004 108.734 84.9119C108.734 84.8234 108.717 84.7357 108.683 84.654C108.649 84.5722 108.6 84.4979 108.537 84.4353L105.65 81.5484C105.431 81.3297 105.387 80.9878 105.549 80.7246C106.637 78.9692 107.434 77.0495 107.91 75.0397C107.981 74.7367 108.257 74.526 108.568 74.526H112.642C112.82 74.526 112.992 74.455 113.118 74.3287C113.244 74.2023 113.315 74.0309 113.315 73.8522Z" stroke="#3A3A3A" stroke-width="3" stroke-miterlimit="10" stroke-linecap="round" stroke-linejoin="round"/>
<path d="M89.1385 78.895C93.7222 78.895 97.438 75.1791 97.438 70.5954C97.438 66.0117 93.7222 62.2959 89.1385 62.2959C84.5548 62.2959 80.8389 66.0117 80.8389 70.5954C80.8389 75.1791 84.5548 78.895 89.1385 78.895Z" stroke="#3A3A3A" stroke-width="3" stroke-miterlimit="10" stroke-linecap="round" stroke-linejoin="round"/>
</svg>
