<svg width="140" height="140" viewBox="0 0 140 140" fill="none" xmlns="http://www.w3.org/2000/svg">
<g clip-path="url(#clip0_1291_37363)">
<path d="M121.655 116.903C132.817 108.379 144.361 92.9648 128.297 65.142C117.204 45.9275 107.85 50.9817 100.597 27.8811C95.3117 11.0468 75.7799 2.55058 59.2653 9.33661C41.4496 16.6573 40.7753 32.9911 29.1462 44.8813C16.6025 57.707 -11.0573 77.6866 -0.299414 96.3198C11.5629 116.866 28.0738 108.748 53.2021 111.984C77.3805 115.098 97.9747 134.989 121.655 116.903Z" fill="url(#paint0_linear_1291_37363)"/>
<path opacity="0.1" d="M130.655 46.3482H115.552C115.189 46.3482 114.842 46.4922 114.585 46.7486C114.329 47.005 114.185 47.3527 114.185 47.7153V63.7978H96.9628V29.374C96.9628 28.8961 96.773 28.4377 96.435 28.0998C96.0971 27.7619 95.6388 27.572 95.1609 27.572H18.2623C17.2643 27.572 16.4576 28.3787 16.4576 29.374V72.7423C11.4384 75.1789 7.97778 80.3241 7.97778 86.2782C7.97778 94.5839 14.7109 101.317 23.0168 101.317C31.3228 101.317 38.0559 94.5839 38.0559 86.2782C38.0559 84.9783 37.8908 83.7169 37.5807 82.5138H45.0871V93.3832L41.994 98.0112C41.6738 98.4902 42.0172 99.1331 42.5936 99.1331H55.344V108.753C55.344 111.015 57.184 112.855 59.4456 112.855H66.4934C67.0725 114.678 68.778 115.999 70.7929 115.999C72.8079 115.999 74.5133 114.678 75.0925 112.855H85.9952V116.766C85.9952 119.784 88.4453 122.234 91.464 122.234H114.753C117.771 122.234 120.221 119.784 120.221 116.766V81.3616H122.291C122.871 81.3616 123.428 81.1311 123.838 80.7209C124.248 80.3106 124.479 79.7542 124.479 79.1741V76.1045C124.479 75.5243 124.248 74.9679 123.838 74.5577C123.428 74.1474 122.871 73.917 122.291 73.917H120.221V69.537H130.656C131.018 69.537 131.366 69.393 131.622 69.1366C131.879 68.8802 132.023 68.5324 132.023 68.1698V47.7153C132.023 47.3527 131.878 47.005 131.622 46.7487C131.366 46.4923 131.018 46.3482 130.655 46.3482ZM75.0922 110.12C74.5128 108.297 72.8076 106.976 70.7927 106.976C68.7777 106.976 67.0726 108.297 66.4931 110.12H59.4453C58.6914 110.12 58.0781 109.507 58.0781 108.753V99.1328H70.8285C71.4049 99.1328 71.7483 98.49 71.4281 98.0109L68.335 93.383V82.5144L68.3323 82.5135H81.7367V84.0957C81.7367 84.6758 81.9672 85.2322 82.3774 85.6425C82.7877 86.0527 83.3441 86.2832 83.9242 86.2832H85.9952V110.12H75.0922V110.12Z" fill="#0000CB"/>
<path d="M45.0868 75.9521H68.3347V86.8207H45.0868V75.9521Z" fill="#9393FF"/>
<path d="M45.0868 75.9521H68.3347V81.3864H45.0868V75.9521Z" fill="#8282FF"/>
<path d="M45.0868 75.9521H68.3347V86.8207H45.0868V75.9521Z" stroke="#0000CB" stroke-width="3" stroke-miterlimit="10" stroke-linecap="round" stroke-linejoin="round"/>
<path d="M96.9631 22.8115V74.1494C96.9631 74.6273 96.7733 75.0856 96.4354 75.4235C96.0974 75.7615 95.6391 75.9513 95.1612 75.9513H18.2621C17.264 75.9513 16.4574 75.1447 16.4574 74.1494V22.8115C16.4574 21.8162 17.264 21.0095 18.2621 21.0095H95.1609C95.3976 21.0095 95.6319 21.0561 95.8506 21.1466C96.0692 21.2372 96.2679 21.3699 96.4353 21.5372C96.6026 21.7045 96.7354 21.9032 96.8259 22.1218C96.9165 22.3405 96.9631 22.5748 96.9631 22.8115Z" fill="#8282FF"/>
<path d="M62.3555 37.4246H43.5485V32.1448H61.1116C61.4415 32.1448 61.7578 32.2759 61.9911 32.5092C62.2243 32.7424 62.3554 33.0588 62.3555 33.3886V37.4246Z" fill="#FF6C6C"/>
<path d="M46.6856 35.4647L44.6163 32.0038C44.5059 31.8192 44.3495 31.6664 44.1624 31.5602C43.9753 31.4541 43.7639 31.3984 43.5488 31.3984H33.6394L31.4191 59.3962H62.4293C62.7592 59.3962 63.0756 59.2651 63.3088 59.0318C63.5421 58.7986 63.6731 58.4823 63.6732 58.1524V36.7089C63.6731 36.379 63.5421 36.0627 63.3088 35.8294C63.0756 35.5961 62.7592 35.4651 62.4293 35.465H46.6856V35.4647Z" fill="#FFC498"/>
<path d="M31.4188 59.3962C29.5055 59.3962 27.9546 57.8453 27.9546 55.9321V32.6423C27.9547 32.3124 28.0857 31.9961 28.319 31.7628C28.5522 31.5296 28.8686 31.3985 29.1985 31.3984H33.6391C33.969 31.3985 34.2853 31.5296 34.5185 31.7628C34.7518 31.9961 34.8829 32.3124 34.8829 32.6423V55.9321C34.8832 57.8453 33.332 59.3962 31.4188 59.3962Z" fill="#FF9C33"/>
<path d="M40.3867 49.5981H43.3891M40.3867 54.4686H49.2029" stroke="#FF6C6C" stroke-width="3" stroke-miterlimit="10" stroke-linecap="round" stroke-linejoin="round"/>
<path d="M96.9631 66.2607V74.1494C96.9631 74.6273 96.7733 75.0857 96.4354 75.4236C96.0974 75.7615 95.6391 75.9514 95.1612 75.9514H18.2621C17.264 75.9514 16.4574 75.1447 16.4574 74.1494V66.2607H96.9631Z" fill="#B2B2FF"/>
<path d="M38.0964 75.9523H95.1609C95.639 75.9523 96.0976 75.7623 96.4356 75.4242C96.7737 75.0861 96.9637 74.6276 96.9637 74.1495V22.8113C96.9637 22.5746 96.917 22.3401 96.8264 22.1214C96.7358 21.9027 96.603 21.704 96.4356 21.5366C96.2682 21.3692 96.0695 21.2364 95.8508 21.1458C95.6321 21.0552 95.3976 21.0085 95.1609 21.0085H18.261C18.0242 21.0085 17.7898 21.0552 17.5711 21.1458C17.3524 21.2364 17.1536 21.3692 16.9862 21.5366C16.8188 21.704 16.686 21.9027 16.5954 22.1214C16.5048 22.3401 16.4582 22.5746 16.4582 22.8113V57.1923" stroke="#0000CB" stroke-width="3" stroke-miterlimit="10" stroke-linecap="round" stroke-linejoin="round"/>
<path d="M70.8285 92.5704H42.5933C42.0169 92.5704 41.6735 91.9278 41.9937 91.4485L45.0868 86.8206H68.3347L71.4278 91.4485C71.7483 91.9278 71.4049 92.5704 70.8285 92.5704Z" fill="#B2B2FF"/>
<path d="M70.8285 92.5704H42.5933C42.0169 92.5704 41.6735 91.9278 41.9937 91.4485L45.0868 86.8206H68.3347L71.4278 91.4485C71.7483 91.9278 71.4049 92.5704 70.8285 92.5704Z" stroke="#0000CB" stroke-width="3" stroke-miterlimit="10" stroke-linecap="round" stroke-linejoin="round"/>
<path d="M86.5241 29.053H88.0127V37.2731M80.1333 37.2731H78.6756C78.1823 37.2731 77.7091 37.0771 77.3603 36.7282C77.0114 36.3794 76.8154 35.9062 76.8154 35.4129V30.9129C76.8154 30.4196 77.0114 29.9464 77.3603 29.5976C77.7091 29.2487 78.1823 29.0527 78.6756 29.0527H80.1333C80.6267 29.0527 81.0998 29.2487 81.4487 29.5976C81.7975 29.9464 81.9935 30.4196 81.9935 30.9129V35.4129C81.9934 35.9062 81.7974 36.3793 81.4486 36.7282C81.0998 37.077 80.6267 37.273 80.1333 37.2731Z" stroke="white" stroke-width="3" stroke-miterlimit="10" stroke-linecap="round" stroke-linejoin="round"/>
<path d="M85.995 79.721H83.924C83.3438 79.721 82.7874 79.4905 82.3772 79.0803C81.9669 78.67 81.7365 78.1136 81.7365 77.5335V68.4482C81.7365 67.8681 81.9669 67.3117 82.3772 66.9014C82.7874 66.4912 83.3438 66.2607 83.924 66.2607H85.995V79.721Z" fill="#6C6CFF"/>
<path d="M85.995 79.721H83.924C83.3438 79.721 82.7874 79.4905 82.3772 79.0803C81.9669 78.67 81.7365 78.1136 81.7365 77.5335V68.4482C81.7365 67.8681 81.9669 67.3117 82.3772 66.9014C82.7874 66.4912 83.3438 66.2607 83.924 66.2607H85.995V79.721Z" stroke="#0000CB" stroke-width="3" stroke-miterlimit="10" stroke-linecap="round" stroke-linejoin="round"/>
<path d="M120.22 74.7991H122.291C122.871 74.7991 123.428 74.5686 123.838 74.1584C124.248 73.7482 124.479 73.1918 124.479 72.6116V69.542C124.479 68.9618 124.248 68.4054 123.838 67.9952C123.428 67.585 122.871 67.3545 122.291 67.3545H120.22V74.7991Z" fill="#FF6C6C"/>
<path d="M120.22 74.7991H122.291C122.871 74.7991 123.428 74.5686 123.838 74.1584C124.248 73.7482 124.479 73.1918 124.479 72.6116V69.542C124.479 68.9618 124.248 68.4054 123.838 67.9952C123.428 67.585 122.871 67.3545 122.291 67.3545H120.22V74.7991Z" stroke="#0000CB" stroke-width="3" stroke-miterlimit="10" stroke-linecap="round" stroke-linejoin="round"/>
<path d="M120.221 62.7041V110.203C120.221 113.222 117.771 115.672 114.752 115.672H91.4637C88.445 115.672 85.995 113.222 85.995 110.203V62.7041C85.995 59.6854 88.445 57.2354 91.4637 57.2354H114.752C117.771 57.2354 120.221 59.6854 120.221 62.7041Z" fill="#FF9393"/>
<path d="M120.221 62.7041V69.5373H115.551C114.796 69.5373 114.184 68.9248 114.184 68.1701V57.2354H114.752C117.771 57.2354 120.221 59.6854 120.221 62.7041Z" fill="#FF6C6C"/>
<path d="M105.611 57.2366H91.4643C88.4439 57.2366 85.9955 59.6849 85.9955 62.7053V110.203C85.9955 113.223 88.4439 115.671 91.4643 115.671H114.751C117.772 115.671 120.22 113.223 120.22 110.203V63.2522" stroke="#0000CB" stroke-width="3" stroke-miterlimit="10" stroke-linecap="round" stroke-linejoin="round"/>
<path d="M99.8706 62.9746H106.345" stroke="#6C6CFF" stroke-width="3" stroke-miterlimit="10" stroke-linecap="round" stroke-linejoin="round"/>
<path d="M130.655 62.9745H115.552C115.189 62.9745 114.842 62.8305 114.585 62.5741C114.329 62.3177 114.185 61.9699 114.185 61.6073V41.1528C114.185 40.7902 114.329 40.4425 114.585 40.1861C114.842 39.9297 115.189 39.7856 115.552 39.7856H130.655C131.018 39.7856 131.366 39.9297 131.622 40.1861C131.878 40.4425 132.023 40.7902 132.023 41.1528V61.6073C132.023 61.9699 131.878 62.3177 131.622 62.5741C131.366 62.8305 131.018 62.9745 130.655 62.9745Z" fill="#FFC498"/>
<path d="M130.655 62.9745H115.552C115.189 62.9745 114.842 62.8305 114.585 62.5741C114.329 62.3177 114.185 61.9699 114.185 61.6073V41.1528C114.185 40.7902 114.329 40.4425 114.585 40.1861C114.842 39.9297 115.189 39.7856 115.552 39.7856H130.655C131.018 39.7856 131.366 39.9297 131.622 40.1861C131.878 40.4425 132.023 40.7902 132.023 41.1528V61.6073C132.023 61.9699 131.878 62.3177 131.622 62.5741C131.366 62.8305 131.018 62.9745 130.655 62.9745Z" stroke="#0000CB" stroke-width="3" stroke-miterlimit="10" stroke-linecap="round" stroke-linejoin="round"/>
<path d="M120.946 45.9536V45.9851M125.262 45.9536V45.9851" stroke="#FF6C6C" stroke-width="3" stroke-miterlimit="10" stroke-linecap="round" stroke-linejoin="round"/>
<path d="M119.101 52.1931H127.106M119.101 56.8066H127.106" stroke="#FFE7DB" stroke-width="3" stroke-miterlimit="10" stroke-linecap="round" stroke-linejoin="round"/>
<path d="M98.3279 74.4373C99.5529 73.2123 101.242 72.4565 103.107 72.4565C106.841 72.4565 109.866 75.4843 109.866 79.2162L112.19 75.0966" stroke="#6C6CFF" stroke-width="3" stroke-miterlimit="10" stroke-linecap="round" stroke-linejoin="round"/>
<path d="M94.0256 83.3357L96.3495 79.2161C96.3495 82.9479 99.3748 85.9757 103.107 85.9757C103.995 85.9772 104.874 85.8029 105.694 85.463C106.514 85.123 107.259 84.6241 107.886 83.9949" stroke="#FF4D4D" stroke-width="3" stroke-miterlimit="10" stroke-linecap="round" stroke-linejoin="round"/>
<path d="M109.142 108.889H97.0739" stroke="#FFD8D8" stroke-width="3" stroke-miterlimit="10" stroke-linecap="round" stroke-linejoin="round"/>
<path d="M97.6894 99.1112H108.526M97.6894 94.2407H103.058" stroke="white" stroke-width="3" stroke-miterlimit="10" stroke-linecap="round" stroke-linejoin="round"/>
<path d="M88.0127 48.1089H81.9785" stroke="#FF6C6C" stroke-width="3" stroke-miterlimit="10" stroke-linecap="round" stroke-linejoin="round"/>
<path d="M88.0127 52.9792H77.1761" stroke="#D8D8FF" stroke-width="3" stroke-miterlimit="10" stroke-linecap="round" stroke-linejoin="round"/>
<path d="M88.0127 43.2383H81.9785" stroke="#FF6C6C" stroke-width="3" stroke-miterlimit="10" stroke-linecap="round" stroke-linejoin="round"/>
<path d="M56.7109 92.5703V102.19C56.7109 103.701 57.9351 104.925 59.4453 104.925H85.9955" stroke="#0000CB" stroke-width="3" stroke-miterlimit="10" stroke-linecap="round" stroke-linejoin="round"/>
<path d="M70.7927 109.437C73.2844 109.437 75.3044 107.417 75.3044 104.925C75.3044 102.433 73.2844 100.413 70.7927 100.413C68.3009 100.413 66.2809 102.433 66.2809 104.925C66.2809 107.417 68.3009 109.437 70.7927 109.437Z" fill="#FFAA66"/>
<path d="M70.7927 109.437C73.2844 109.437 75.3044 107.417 75.3044 104.925C75.3044 102.433 73.2844 100.413 70.7927 100.413C68.3009 100.413 66.2809 102.433 66.2809 104.925C66.2809 107.417 68.3009 109.437 70.7927 109.437Z" stroke="#0000CB" stroke-width="3" stroke-miterlimit="10" stroke-linecap="round" stroke-linejoin="round"/>
<path d="M23.0166 94.7549C31.3224 94.7549 38.0557 88.0217 38.0557 79.7158C38.0557 71.41 31.3224 64.6768 23.0166 64.6768C14.7108 64.6768 7.97754 71.41 7.97754 79.7158C7.97754 88.0217 14.7108 94.7549 23.0166 94.7549Z" fill="#FFAA66"/>
<path d="M23.0166 90.2429C28.8307 90.2429 33.5439 85.5297 33.5439 79.7156C33.5439 73.9015 28.8307 69.1882 23.0166 69.1882C17.2025 69.1882 12.4893 73.9015 12.4893 79.7156C12.4893 85.5297 17.2025 90.2429 23.0166 90.2429Z" fill="#FF9C33"/>
<path d="M23.0166 94.7549C31.3224 94.7549 38.0557 88.0217 38.0557 79.7158C38.0557 71.41 31.3224 64.6768 23.0166 64.6768C14.7108 64.6768 7.97754 71.41 7.97754 79.7158C7.97754 88.0217 14.7108 94.7549 23.0166 94.7549Z" stroke="#0000CB" stroke-width="3" stroke-miterlimit="10" stroke-linecap="round" stroke-linejoin="round"/>
<path d="M23.021 79.7209V79.7206L23.012 79.7102L23.021 79.7209Z" fill="#B2B2FF"/>
<path d="M23.0166 81.3033C24.7704 81.3033 26.192 79.8816 26.192 78.1278C26.192 76.3741 24.7704 74.9524 23.0166 74.9524C21.2629 74.9524 19.8412 76.3741 19.8412 78.1278C19.8412 79.8816 21.2629 81.3033 23.0166 81.3033Z" stroke="white" stroke-width="3" stroke-miterlimit="10" stroke-linecap="round" stroke-linejoin="round"/>
<path d="M26.192 84.4791C26.192 82.7253 24.7704 81.3037 23.0166 81.3037C21.2628 81.3037 19.8412 82.7253 19.8412 84.4791" stroke="white" stroke-width="3" stroke-miterlimit="10" stroke-linecap="round" stroke-linejoin="round"/>
<path d="M123.327 18.7327C124.913 18.7327 126.198 17.4472 126.198 15.8616C126.198 14.2759 124.913 12.9905 123.327 12.9905C121.741 12.9905 120.456 14.2759 120.456 15.8616C120.456 17.4472 121.741 18.7327 123.327 18.7327Z" stroke="#FF9C33" stroke-width="3" stroke-miterlimit="10" stroke-linecap="round" stroke-linejoin="round"/>
<path d="M79.4043 129.344C80.99 129.344 82.2754 128.058 82.2754 126.472C82.2754 124.887 80.99 123.601 79.4043 123.601C77.8186 123.601 76.5332 124.887 76.5332 126.472C76.5332 128.058 77.8186 129.344 79.4043 129.344Z" stroke="#FF9C33" stroke-width="3" stroke-miterlimit="10" stroke-linecap="round" stroke-linejoin="round"/>
<path d="M45.0868 108.283C46.6725 108.283 47.9579 106.998 47.9579 105.412C47.9579 103.826 46.6725 102.541 45.0868 102.541C43.5011 102.541 42.2157 103.826 42.2157 105.412C42.2157 106.998 43.5011 108.283 45.0868 108.283Z" stroke="#FF6C6C" stroke-width="3" stroke-miterlimit="10" stroke-linecap="round" stroke-linejoin="round"/>
<path d="M39.4229 11.4573L36.6885 14.1917" stroke="#FF6C6C" stroke-width="3" stroke-miterlimit="10" stroke-linecap="round" stroke-linejoin="round"/>
<path d="M32.7859 107.521L30.0516 110.256" stroke="#6C6CFF" stroke-width="3" stroke-miterlimit="10" stroke-linecap="round" stroke-linejoin="round"/>
</g>
<defs>
<linearGradient id="paint0_linear_1291_37363" x1="7.16592" y1="48.0127" x2="139.172" y2="83.3836" gradientUnits="userSpaceOnUse">
<stop stop-color="#FFD8D8" stop-opacity="0"/>
<stop offset="0.998" stop-color="#FFB2B2"/>
</linearGradient>
<clipPath id="clip0_1291_37363">
<rect width="140" height="140" fill="white"/>
</clipPath>
</defs>
</svg>
