<svg width="127" height="44" viewBox="0 0 127 44" fill="none" xmlns="http://www.w3.org/2000/svg">
<g style="mix-blend-mode:multiply" opacity="0.5">
<path d="M91 44.0002C110.33 44.0002 126 40.1947 126 35.5002C126 30.8058 110.33 27.0002 91 27.0002C71.67 27.0002 56 30.8058 56 35.5002C56 40.1947 71.67 44.0002 91 44.0002Z" fill="#505758"/>
</g>
<path d="M126.999 31.3719C126.999 31.8487 126.883 32.3329 126.652 32.8096C126.511 33.1076 126.328 33.4018 126.097 33.6923C125.937 33.9009 125.758 34.1021 125.557 34.3032C121.084 38.8621 107.068 42.1174 91.3651 42.177C91.2161 42.177 91.0671 42.177 90.9181 42.177C75.0401 42.177 60.7971 38.9031 56.2791 34.3032C56.078 34.1021 55.8992 33.8972 55.7391 33.6923C55.5119 33.4018 55.3294 33.1039 55.1878 32.8096C54.9569 32.3291 54.8414 31.8449 54.8414 31.3682C54.8414 25.5094 71.3601 20.5593 90.9144 20.5593C94.2964 20.5593 97.5889 20.7083 100.718 20.9839C115.687 22.2987 126.991 26.5225 126.991 31.3682L126.999 31.3719Z" fill="#CCCCCC"/>
<g style="mix-blend-mode:multiply" opacity="0.5">
<path d="M112.119 22.6902C119.743 24.6903 124.648 27.6104 124.648 30.8024C124.648 31.2792 124.533 31.7634 124.302 32.2401C124.16 32.5381 123.978 32.8323 123.747 33.1229C123.587 33.3314 123.408 33.5326 123.207 33.7337C118.734 38.2926 104.718 41.548 89.0148 41.6075C88.8658 41.6075 88.7169 41.6075 88.5679 41.6075C80.7946 41.6075 73.4161 40.8217 67.3748 39.4845C73.796 41.168 82.1019 42.1774 90.9144 42.1774C91.0634 42.1774 91.2123 42.1774 91.3613 42.1774C107.064 42.1178 121.084 38.8662 125.553 34.3036C125.751 34.1024 125.933 33.8976 126.093 33.6927C126.321 33.4022 126.507 33.1042 126.648 32.81C126.879 32.3332 126.995 31.849 126.995 31.3723C126.995 27.8637 121.069 24.6791 112.115 22.6939L112.119 22.6902Z" fill="#B3B3B3"/>
</g>
<path d="M126.999 30.4823C126.999 30.959 126.883 31.4432 126.652 31.92C126.511 32.2179 126.328 32.5122 126.097 32.8027C125.937 33.0113 125.758 33.2124 125.557 33.4135C121.084 37.9725 107.068 41.2278 91.3651 41.2874C91.2161 41.2874 91.0671 41.2874 90.9181 41.2874C75.0401 41.2874 60.7971 38.0135 56.2791 33.4135C56.078 33.2124 55.8992 33.0076 55.7391 32.8027C55.5119 32.5122 55.3294 32.2142 55.1878 31.92C54.9569 31.4395 54.8414 30.9553 54.8414 30.4785C54.8414 24.6197 71.3601 19.6697 90.9144 19.6697C94.2964 19.6697 97.5889 19.8187 100.718 20.0943C115.687 21.4091 126.991 25.6328 126.991 30.4785L126.999 30.4823Z" fill="white"/>
<path opacity="0.5" d="M115.322 22.6008C118.857 24.2657 120.924 26.2249 120.924 28.2958C120.924 28.7725 120.808 29.2567 120.577 29.7335C120.436 30.0315 120.253 30.3257 120.022 30.6162C119.862 30.8248 119.683 31.0259 119.482 31.2271C115.009 35.786 100.993 39.0413 85.2902 39.1009C85.1412 39.1009 84.9922 39.1009 84.8432 39.1009C75.6509 39.1009 67.006 38.0021 60.4805 36.1883C67.0209 39.276 78.463 41.2873 90.9144 41.2873C91.0634 41.2873 91.2123 41.2873 91.3613 41.2873C107.064 41.2277 121.084 37.9761 125.553 33.4134C125.751 33.2123 125.933 33.0074 126.093 32.8026C126.321 32.5121 126.507 32.2141 126.648 31.9198C126.879 31.4431 126.995 30.9589 126.995 30.4821C126.995 27.413 122.454 24.5898 115.322 22.6008Z" fill="#E6E6E6"/>
<path d="M90.9218 38.8661C76.0344 38.8661 62.6332 36.2366 58.335 32.4747C58.1339 32.2996 57.9626 32.132 57.8136 31.9644C57.5938 31.7223 57.4113 31.4728 57.2735 31.2158C57.0426 30.8023 56.9271 30.3814 56.9271 29.9643C56.9271 27.588 60.54 25.3495 67.0953 23.6585C73.5799 21.9861 82.0385 21.0662 90.918 21.0662C94.0207 21.0662 97.1158 21.1816 100.122 21.4088C114.718 22.5113 124.916 26.0274 124.916 29.9643C124.916 30.3814 124.801 30.8023 124.57 31.2158C124.436 31.4616 124.253 31.7149 124.026 31.9607C123.877 32.1283 123.706 32.2959 123.505 32.471C119.266 36.1844 106.04 38.814 91.3389 38.8624C91.2011 38.8624 91.0596 38.8624 90.9218 38.8624V38.8661ZM90.9218 21.4386C82.0721 21.4386 73.6432 22.3549 67.1885 24.0198C60.9013 25.64 57.2921 27.8077 57.2921 29.968C57.2921 30.3219 57.3927 30.6831 57.5938 31.037C57.7205 31.2679 57.8844 31.4951 58.0855 31.7149C58.227 31.8713 58.3872 32.0277 58.5734 32.1916C62.812 35.9013 76.1127 38.4937 90.9218 38.4937C91.0484 38.49 91.1974 38.4937 91.3389 38.4937C105.962 38.4453 119.095 35.8566 123.27 32.1916C123.46 32.0277 123.62 31.8713 123.758 31.7149C123.963 31.4877 124.131 31.2605 124.253 31.037C124.455 30.6794 124.555 30.3219 124.555 29.968C124.555 26.2918 114.271 22.8503 100.099 21.7813C97.1046 21.5541 94.0169 21.4386 90.9255 21.4386H90.9218Z" fill="#F15A24"/>
<path d="M118.663 29.7445C118.663 30.0164 118.573 30.2883 118.398 30.5602C118.29 30.7278 118.149 30.8954 117.974 31.063C117.851 31.1822 117.713 31.2977 117.56 31.4094C114.122 34.0017 103.343 35.8492 91.2682 35.8827C91.1527 35.8827 91.041 35.8827 90.9255 35.8827C78.7162 35.8827 67.7658 34.0241 64.2907 31.4094C64.138 31.2939 64.0002 31.1785 63.8773 31.063C63.7022 30.8954 63.5607 30.7278 63.4527 30.5602C63.2739 30.2883 63.1882 30.0127 63.1882 29.7408C63.1882 26.411 75.8892 23.5989 90.9255 23.5989C93.5253 23.5989 96.058 23.6845 98.4641 23.841C109.973 24.5859 118.667 26.9883 118.667 29.7445H118.663Z" fill="#E6E6E6"/>
<g style="mix-blend-mode:multiply" opacity="0.5">
<path d="M31.5 42C43.9264 42 54 39.7614 54 37C54 34.2386 43.9264 32 31.5 32C19.0736 32 9 34.2386 9 37C9 39.7614 19.0736 42 31.5 42Z" fill="#505758"/>
</g>
<path d="M44.9004 27.6558L44.4795 31.1122L43.9171 35.7233L43.8314 36.4421C41.3322 37.3137 38.7138 37.9283 36.0321 38.2486C34.6055 38.4199 33.1604 38.5093 31.704 38.5093C28.0316 38.5093 24.4298 37.9469 21.0181 36.9115C20.5339 36.7625 20.0497 36.606 19.5767 36.4384L19.4463 35.3769L18.869 30.6504L18.571 28.2219L18.5002 27.6558H44.9004Z" fill="#CCCCCC"/>
<path d="M21.0143 36.911C20.5301 36.762 20.0459 36.6056 19.5729 36.438L18.8652 30.6499L20.262 31.4544L21.0143 36.911Z" fill="#E6E6E6"/>
<g style="mix-blend-mode:multiply">
<path d="M44.4757 31.1118L43.8239 36.4418C41.3247 37.3133 38.7063 37.9279 36.0245 38.2482L36.4156 33.9463L44.4757 31.1118Z" fill="#E6E6E6"/>
</g>
<g style="mix-blend-mode:multiply">
<path d="M44.9003 27.6558L44.4794 31.1122L43.917 35.7233C32.2962 39.1537 23.1299 36.7178 19.4462 35.3769L18.8689 30.6504L18.5709 28.2219L22.5488 27.6558H44.9003Z" fill="#CCCCCC"/>
</g>
<path d="M63.367 9.84033C63.367 11.5127 63.1882 13.1515 62.8493 14.7419C62.7971 14.9952 62.7413 15.2485 62.6779 15.498C62.596 15.8333 62.5066 16.1685 62.4098 16.5C62.3353 16.7532 62.2571 17.0065 62.1751 17.2598C59.5306 25.2417 52.7258 31.7337 43.8947 34.8884C40.144 36.233 36.0245 36.9742 31.704 36.9742C28.1805 36.9742 24.7911 36.4826 21.6251 35.57C11.7735 32.7393 4.0859 25.8711 1.23656 17.2635C1.15089 17.014 1.07268 16.7607 0.998184 16.5074C0.905069 16.1796 0.811953 15.8519 0.733736 15.5204C0.670418 15.2671 0.610823 15.0138 0.554954 14.7568C0.216013 13.1664 0.0372314 11.5239 0.0372314 9.84778H63.3633L63.367 9.84033Z" fill="#E6E6E6"/>
<path d="M21.6214 35.5629C11.4829 32.6502 3.63516 25.4617 0.9944 16.4965C0.826792 15.9192 0.677807 15.3345 0.55117 14.746C0.212229 13.1556 0.0334473 11.513 0.0334473 9.83691H3.32602C4.09329 16.8578 7.89241 27.0186 21.6176 35.5629H21.6214Z" fill="#F2F2F2"/>
<g style="mix-blend-mode:multiply">
<path d="M63.367 9.84033C63.367 11.5127 63.1883 13.1515 62.8493 14.7419C62.7264 15.3342 62.5774 15.9189 62.4061 16.5C59.9516 24.8319 52.9977 31.6294 43.891 34.8847C50.1633 26.873 49.1688 13.8629 48.6771 9.84033H63.367Z" fill="#E6E6E6"/>
</g>
<g style="mix-blend-mode:multiply" opacity="0.5">
<path d="M34.5534 19.1479C34.7136 19.1441 34.87 19.1367 35.0302 19.133C35.358 19.1218 35.6857 19.1106 36.0135 19.0957C36.1513 19.0883 36.2854 19.0845 36.4232 19.0771C36.8255 19.0585 37.2277 19.0361 37.63 19.0138C37.6672 19.0138 37.7045 19.0138 37.738 19.0063C48.9379 18.3173 58.3538 15.7659 61.6799 12.3765C59.8511 10.5291 56.1116 8.89397 51.1802 7.69092C40.8257 16.1011 26.4263 17.5686 16.8019 17.4345C8.30602 15.9149 4.01897 13.2779 2.26468 11.8886C2.071 12.0487 1.89594 12.2126 1.73206 12.3765C2.04865 12.7005 2.42111 13.0134 2.84572 13.3188C5.05815 14.9204 8.67476 16.2911 13.1741 17.3042C18.437 18.4923 24.8992 19.1888 31.7078 19.1888C32.1846 19.1888 32.6576 19.1851 33.1306 19.1777C33.2759 19.1777 33.4212 19.1702 33.5664 19.1702C33.8979 19.1628 34.2294 19.1553 34.5609 19.1479H34.5534Z" fill="#A8A056"/>
</g>
<path d="M63.4043 9.84046C63.4043 10.6338 63.0989 11.4085 62.5253 12.1497C59.1806 16.4703 46.6472 19.6809 31.7003 19.6809C16.7534 19.6809 4.22372 16.4703 0.875287 12.1497C0.301695 11.4085 0 10.6375 0 9.84046C0 4.40623 14.1908 0 31.7003 0C49.2097 0 63.4043 4.40623 63.4043 9.84046Z" fill="white"/>
<path d="M62.9201 9.84063C62.9201 10.2541 62.8196 10.6712 62.6222 11.0847C62.4992 11.3417 62.3391 11.5987 62.1417 11.8482C62.0039 12.027 61.8474 12.202 61.6761 12.3771C57.8062 16.3215 45.6751 19.1373 32.0877 19.1894C31.9573 19.1894 31.8307 19.1894 31.7003 19.1894C17.9602 19.1894 5.63541 16.355 1.72455 12.3771C1.55322 12.202 1.39679 12.027 1.25897 11.8482C1.06157 11.5949 0.905135 11.3417 0.782223 11.0847C0.584817 10.6675 0.484253 10.2503 0.484253 9.83691C0.484253 4.76769 14.7794 0.484375 31.7003 0.484375C34.6279 0.484375 37.4735 0.614737 40.185 0.849388C53.1393 1.9854 62.9201 5.64298 62.9201 9.83691V9.84063Z" fill="#B3B3B3"/>
<path d="M62.8493 14.7383C62.7264 15.3305 62.5774 15.9153 62.406 16.4963C59.5344 18.8763 54.6588 20.8504 48.6696 22.1577C43.6228 23.2602 37.79 23.8897 31.7002 23.8897C18.3884 23.8897 6.29458 20.8839 0.998162 16.5C0.830554 15.9227 0.681569 15.3379 0.554932 14.7495C4.79728 19.5319 17.5131 22.9213 31.7002 22.9213C37.8645 22.9213 43.7568 22.2806 48.7888 21.1633C55.3442 19.7107 60.4506 17.4498 62.8493 14.742V14.7383Z" fill="#F15A24"/>
<path d="M61.8586 18.1318C61.7878 18.333 61.7096 18.5341 61.6277 18.7315C61.4713 19.1114 61.3111 19.4913 61.136 19.8675C58.1973 21.8267 53.8544 23.4543 48.6734 24.5866C48.5356 24.6164 48.3978 24.6462 48.26 24.6723C43.31 25.7226 37.6299 26.3186 31.7041 26.3186C19.3718 26.3186 8.08249 23.7374 2.27952 19.8712C2.10447 19.4988 1.94058 19.1226 1.78787 18.7427C1.70593 18.5453 1.62772 18.3404 1.55322 18.1393C6.55912 22.4114 18.4928 25.3464 31.7041 25.3464C37.7305 25.3464 43.4888 24.7356 48.4462 23.6666C48.5617 23.6406 48.6809 23.6182 48.7926 23.5921C54.5509 22.3183 59.1918 20.4188 61.8623 18.1356L61.8586 18.1318Z" fill="#F15A24"/>
<path d="M60.1117 21.8296C59.9888 22.0419 59.8622 22.2579 59.7318 22.4665C59.5195 22.8203 59.2961 23.163 59.0614 23.5057C56.2977 24.9285 52.7407 26.1241 48.6734 27.0143C48.3345 27.0888 47.9881 27.1633 47.638 27.2303C42.8369 28.1987 37.3804 28.7462 31.704 28.7462C20.7052 28.7462 10.537 26.6939 4.35039 23.5094C4.11947 23.1705 3.89599 22.8241 3.67996 22.4739C3.5496 22.2616 3.42296 22.0493 3.30005 21.8333C9.0099 25.409 19.8448 27.7741 31.7078 27.7741C37.5182 27.7741 43.0828 27.2042 47.9173 26.206C48.2153 26.1427 48.5058 26.0794 48.7963 26.0161C53.4521 24.9843 57.3741 23.5466 60.1192 21.8296H60.1117Z" fill="#F15A24"/>
<g style="mix-blend-mode:multiply">
<path d="M62.6743 15.4941C62.5923 15.8294 62.5029 16.1646 62.4061 16.4961C62.3316 16.7493 62.2534 17.0026 62.1714 17.2559C56.7596 21.5392 44.8221 24.4556 31.7003 24.4556C18.5784 24.4556 6.65219 21.5392 1.23659 17.2559C1.15092 17.0063 1.07271 16.7531 0.998213 16.4998C0.905097 16.172 0.811982 15.8443 0.733765 15.5128C5.14372 20.1946 17.7069 23.4872 31.7003 23.4872C45.6937 23.4872 58.2755 20.1909 62.6743 15.4979V15.4941Z" fill="#E6E6E6"/>
</g>
<g style="mix-blend-mode:multiply">
<path d="M61.6277 18.7311C61.4713 19.111 61.3111 19.4909 61.1361 19.8671C61.0429 20.0645 60.9498 20.2619 60.853 20.4593C57.9217 22.3365 53.6905 23.8971 48.6735 24.9884C43.6266 26.0909 37.7938 26.7204 31.7041 26.7204C19.5693 26.7204 8.44381 24.2212 2.5589 20.4556C2.46206 20.2582 2.36522 20.0608 2.27583 19.8634C2.10077 19.4909 1.93689 19.1147 1.78418 18.7348C6.92044 22.8989 18.694 25.7445 31.7041 25.7445C37.8683 25.7445 43.7607 25.1039 48.7927 23.9865C54.387 22.7462 58.9311 20.9174 61.6314 18.7236L61.6277 18.7311Z" fill="#E6E6E6"/>
</g>
<g style="mix-blend-mode:multiply">
<path d="M59.7319 22.4666C59.5196 22.8205 59.2961 23.1631 59.0615 23.5058C58.92 23.7181 58.771 23.9267 58.6183 24.139C55.9254 25.4612 52.5285 26.5823 48.6735 27.4204C43.6266 28.5229 37.7939 29.1523 31.7041 29.1523C20.966 29.1523 11.0176 27.1969 4.79372 24.139C4.64101 23.9341 4.49575 23.7218 4.35049 23.5095C4.11956 23.1706 3.89608 22.8242 3.68005 22.4741C9.48302 25.9156 20.1019 28.1802 31.7041 28.1802C37.8684 28.1802 43.7607 27.5396 48.7927 26.4222C53.2362 25.4389 57.0167 24.0831 59.7356 22.4629L59.7319 22.4666Z" fill="#E6E6E6"/>
</g>
<g style="mix-blend-mode:multiply">
<path d="M62.8494 14.7383C62.7265 15.3305 62.5775 15.9153 62.4062 16.4963C59.5345 18.8763 54.659 20.8504 48.6698 22.1577C48.7145 21.8225 48.7555 21.491 48.789 21.1633C55.3443 19.7107 60.4508 17.4498 62.8494 14.742V14.7383Z" fill="#C05A24"/>
</g>
<g style="mix-blend-mode:multiply">
<path d="M61.8585 18.1318C61.6387 18.7203 61.3966 19.2976 61.1359 19.8675C58.1972 21.8267 53.8543 23.4543 48.6733 24.5866C48.5355 24.6164 48.3977 24.6462 48.2599 24.6723C48.3269 24.3371 48.3902 23.9981 48.4461 23.6629C48.5616 23.6368 48.6808 23.6145 48.7925 23.5884C54.5508 22.3146 59.1917 20.415 61.8622 18.1318H61.8585Z" fill="#C05A24"/>
</g>
<g style="mix-blend-mode:multiply">
<path d="M60.1117 21.8296C59.7839 22.3995 59.4338 22.9582 59.0614 23.5057C56.2977 24.9285 52.7407 26.1241 48.6734 27.0143C48.3344 27.0888 47.9881 27.1633 47.6379 27.2303C47.7385 26.8914 47.8279 26.5487 47.9136 26.206C48.2115 26.1427 48.502 26.0794 48.7926 26.0161C53.4483 24.9843 57.3704 23.5466 60.1154 21.8296H60.1117Z" fill="#C05A24"/>
</g>
</svg>
