<svg width="144" height="140" viewBox="0 0 144 140" fill="none" xmlns="http://www.w3.org/2000/svg">
<path d="M128.655 127.903C139.817 119.379 151.361 103.965 135.298 76.1422C124.204 56.9277 114.85 61.9819 107.597 38.8813C102.312 22.047 82.7801 13.5508 66.2655 20.3369C48.4498 27.6576 47.7755 43.9913 36.1464 55.8815C23.6027 68.7072 -4.05709 88.6869 6.70077 107.32C18.5631 127.866 35.074 119.748 60.2022 122.984C84.3807 126.098 104.975 145.989 128.655 127.903Z" fill="url(#paint0_linear_122_37)"/>
<g clip-path="url(#clip0_122_37)">
<mask id="mask0_122_37" style="mask-type:luminance" maskUnits="userSpaceOnUse" x="0" y="0" width="140" height="140">
<path d="M0 0.000411987H140V140H0V0.000411987Z" fill="white"/>
</mask>
<g mask="url(#mask0_122_37)">
<mask id="mask1_122_37" style="mask-type:luminance" maskUnits="userSpaceOnUse" x="13" y="23" width="104" height="104">
<path d="M13.6855 23.7448H116.47V126.919H13.6852L13.6855 23.7448Z" fill="white"/>
</mask>
<g mask="url(#mask1_122_37)">
<g opacity="0.11">
<path d="M113.059 114.385H107.395V61.5714C107.395 58.4343 112.699 55.8725 112.699 55.8725V26.4791C112.699 24.9687 111.474 23.7448 109.964 23.7448H79.7341C78.224 23.7448 76.9998 24.9687 76.9998 26.4791V55.8706H28.4566C25.3093 55.8706 22.7581 58.4217 22.7581 61.5714V114.385H17.0969C15.2129 114.385 13.6855 115.912 13.6855 117.796V120.931C13.6855 124.237 16.3644 126.919 19.6732 126.919H110.482C113.791 126.919 116.47 124.237 116.47 120.931V117.796C116.47 115.912 114.943 114.385 113.059 114.385Z" fill="#241ABF"/>
</g>
</g>
<path d="M111.317 113.779V56.6502C111.317 54.0518 109.213 51.9487 106.618 51.9487H33.3784C30.7838 51.9487 28.68 54.0518 28.68 56.6502V114.146H110.95C111.152 114.146 111.317 113.982 111.317 113.779Z" fill="#9EAEFF" stroke="#0000CB" stroke-width="2"/>
<path d="M65.1047 102.669H37.2065V68.0155C37.2065 67.6529 37.3506 67.3051 37.607 67.0487C37.8634 66.7924 38.2111 66.6483 38.5737 66.6483H63.7376C64.1002 66.6483 64.4479 66.7924 64.7043 67.0487C64.9607 67.3051 65.1047 67.6529 65.1047 68.0155V102.669Z" fill="#FFA7CF"/>
<path d="M112.317 56.6501V82.3474H85.4763C83.9669 82.3474 82.7419 81.1254 82.7419 79.613V50.9487H106.618C109.766 50.9487 112.317 53.4998 112.317 56.6501Z" fill="#8296FF"/>
<path d="M112.318 102.669V113.778C112.318 114.533 111.705 115.146 110.95 115.146H27.6808V102.669H112.318Z" fill="#00EDA3"/>
<path d="M85.7158 114.952L85.2005 114.095L85.7158 114.952C85.3474 115.174 84.9258 115.291 84.496 115.291H55.5033C55.0735 115.291 54.6519 115.174 54.2836 114.952C53.9152 114.731 53.6142 114.413 53.4127 114.034L51.6192 110.658C51.5879 110.599 51.5411 110.55 51.4839 110.515C51.4268 110.481 51.3614 110.463 51.2948 110.463C51.2947 110.463 51.2946 110.463 51.2946 110.463H22.0188C20.6871 110.463 19.6074 111.542 19.6074 112.874V116.009C19.6074 118.763 21.8388 120.997 24.5951 120.997H115.404C118.161 120.997 120.392 118.763 120.392 116.009V112.874C120.392 111.542 119.312 110.463 117.981 110.463H88.705C88.7049 110.463 88.7048 110.463 88.7048 110.463C88.6381 110.463 88.5727 110.481 88.5156 110.515C88.4584 110.55 88.4117 110.599 88.3804 110.658L86.5867 114.034C86.3852 114.413 86.0841 114.731 85.7158 114.952Z" fill="#93FFD1" stroke="#0000CB" stroke-width="2"/>
<path d="M121.392 112.873V116.01C121.392 119.315 118.713 121.998 115.404 121.998H111.379C114.688 121.998 117.367 119.315 117.367 116.01V112.873C117.367 110.989 115.839 109.463 113.955 109.463H117.98C119.864 109.463 121.392 110.989 121.392 112.873Z" fill="#DBFDEE"/>
<path d="M40.9198 114.417H29.071C28.7084 114.417 28.3606 114.273 28.1042 114.017C27.8478 113.76 27.7038 113.413 27.7038 113.05V109.463H42.287V113.05C42.287 113.413 42.143 113.76 41.8866 114.017C41.6302 114.273 41.2824 114.417 40.9198 114.417Z" fill="#FF7CB8"/>
<path d="M110.894 114.417H99.0456C98.683 114.417 98.3352 114.273 98.0788 114.017C97.8224 113.76 97.6784 113.413 97.6784 113.05V109.463H112.262V113.05C112.262 113.413 112.118 113.76 111.861 114.017C111.605 114.273 111.257 114.417 110.894 114.417Z" fill="#FF7CB8"/>
<path d="M85.4761 76.7319H115.706C116.664 76.7319 117.441 75.9552 117.441 74.9976V20.7371C117.441 19.779 116.664 19.0027 115.706 19.0027H85.4761C84.5183 19.0027 83.7417 19.779 83.7417 20.7371V74.9976C83.7417 75.9552 84.5184 76.7319 85.4761 76.7319Z" fill="#FFC3DF" stroke="#0000CB" stroke-width="2"/>
<path d="M101.426 26.8528C99.534 26.8528 98.0001 25.3188 98.0001 23.4263V19.9999H104.853V23.4263C104.853 25.3188 103.319 26.8528 101.426 26.8528Z" fill="#0000CB"/>
<path d="M97.6522 49.0364L93.4487 36.0336H89.5322" stroke="#0000CB" stroke-miterlimit="10" stroke-linecap="round" stroke-linejoin="round"/>
<path d="M95.538 39.7056H111.65L109.985 49.0364H95.538" stroke="#0000CB" stroke-miterlimit="10" stroke-linecap="round" stroke-linejoin="round"/>
<path d="M100.656 55.2418C100.656 55.8229 100.426 56.3801 100.015 56.791C99.6039 57.2018 99.0467 57.4326 98.4657 57.4326C97.8846 57.4326 97.3274 57.2018 96.9166 56.791C96.5057 56.3801 96.2749 55.8229 96.2749 55.2418C96.2749 54.6608 96.5057 54.1036 96.9166 53.6927C97.3274 53.2819 97.8846 53.0511 98.4657 53.0511C99.0467 53.0511 99.6039 53.2819 100.015 53.6927C100.426 54.1036 100.656 54.6608 100.656 55.2418Z" stroke="#0000CB" stroke-miterlimit="10" stroke-linecap="round" stroke-linejoin="round"/>
<path d="M110.866 55.2419C110.869 55.5317 110.815 55.8192 110.706 56.0878C110.597 56.3565 110.436 56.6009 110.233 56.807C110.029 57.013 109.786 57.1766 109.519 57.2882C109.251 57.3998 108.964 57.4573 108.675 57.4573C108.385 57.4573 108.098 57.3998 107.831 57.2881C107.563 57.1764 107.321 57.0128 107.117 56.8068C106.913 56.6007 106.752 56.3562 106.644 56.0876C106.535 55.8189 106.481 55.5314 106.484 55.2416C106.49 54.6648 106.724 54.1138 107.134 53.7082C107.544 53.3026 108.098 53.0751 108.675 53.0752C109.252 53.0752 109.805 53.3027 110.216 53.7084C110.626 54.114 110.859 54.6651 110.866 55.2419Z" stroke="#0000CB" stroke-miterlimit="10" stroke-linecap="round" stroke-linejoin="round"/>
<path d="M45.2133 72.0632L41.0098 59.0602H37.0934" stroke="#0000CB" stroke-miterlimit="10" stroke-linecap="round" stroke-linejoin="round"/>
<path d="M43.0991 62.7322H59.2116L57.5458 72.063H43.0991" stroke="#0000CB" stroke-miterlimit="10" stroke-linecap="round" stroke-linejoin="round"/>
<path d="M48.2178 78.2689C48.2178 78.85 47.987 79.4072 47.5762 79.8181C47.1653 80.2289 46.6081 80.4597 46.027 80.4597C45.446 80.4597 44.8888 80.2289 44.4779 79.8181C44.0671 79.4072 43.8363 78.85 43.8363 78.2689C43.8363 77.6879 44.0671 77.1307 44.4779 76.7198C44.8888 76.309 45.446 76.0782 46.027 76.0782C46.6081 76.0782 47.1653 76.309 47.5762 76.7198C47.987 77.1307 48.2178 77.6879 48.2178 78.2689Z" stroke="#0000CB" stroke-miterlimit="10" stroke-linecap="round" stroke-linejoin="round"/>
<path d="M58.4268 78.2689C58.4268 78.85 58.196 79.4072 57.7852 79.8181C57.3743 80.2289 56.8171 80.4597 56.2361 80.4597C55.655 80.4597 55.0978 80.2289 54.687 79.8181C54.2761 79.4072 54.0453 78.85 54.0453 78.2689C54.0453 77.6879 54.2761 77.1307 54.687 76.7198C55.0978 76.309 55.655 76.0782 56.2361 76.0782C56.8171 76.0782 57.3743 76.309 57.7852 76.7198C58.196 77.1307 58.4268 77.6879 58.4268 78.2689Z" stroke="#0000CB" stroke-miterlimit="10" stroke-linecap="round" stroke-linejoin="round"/>
<path d="M58.528 87.52H43.7239C43.3613 87.52 43.0136 87.376 42.7572 87.1196C42.5008 86.8632 42.3567 86.5154 42.3567 86.1528C42.3567 85.7902 42.5008 85.4425 42.7572 85.1861C43.0136 84.9297 43.3613 84.7857 43.7239 84.7857H58.528C58.8906 84.7857 59.2384 84.9297 59.4948 85.1861C59.7512 85.4425 59.8952 85.7902 59.8952 86.1528C59.8952 86.5154 59.7512 86.8632 59.4948 87.1196C59.2384 87.376 58.8906 87.52 58.528 87.52Z" fill="white"/>
<path d="M99.0333 92.344H43.7239C43.3613 92.344 43.0136 92.2 42.7572 91.9436C42.5008 91.6872 42.3567 91.3394 42.3567 90.9768C42.3567 90.6142 42.5008 90.2665 42.7572 90.0101C43.0136 89.7537 43.3613 89.6096 43.7239 89.6096H99.0333C99.3959 89.6096 99.7437 89.7537 100 90.0101C100.256 90.2665 100.4 90.6142 100.4 90.9768C100.4 91.3394 100.256 91.6872 100 91.9436C99.7437 92.2 99.3959 92.344 99.0333 92.344Z" fill="#93FFD1"/>
<path d="M99.0333 97.1677H43.7239C43.3613 97.1677 43.0136 97.0237 42.7572 96.7673C42.5008 96.5109 42.3567 96.1631 42.3567 95.8005C42.3567 95.4379 42.5008 95.0902 42.7572 94.8338C43.0136 94.5774 43.3613 94.4334 43.7239 94.4334H99.0333C99.3959 94.4334 99.7437 94.5774 100 94.8338C100.256 95.0902 100.4 95.4379 100.4 95.8005C100.4 96.1631 100.256 96.5109 100 96.7673C99.7437 97.0237 99.3959 97.1677 99.0333 97.1677Z" fill="#93FFD1"/>
<path d="M69.9984 69.7014C69.593 69.7014 69.2043 69.5404 68.9176 69.2537C68.6309 68.9671 68.4699 68.5783 68.4699 68.1729C68.4699 67.7675 68.6309 67.3787 68.9176 67.0921C69.2043 66.8054 69.593 66.6444 69.9984 66.6444C70.4038 66.6444 70.7926 66.8054 71.0792 67.0921C71.3659 67.3787 71.5269 67.7675 71.5269 68.1729C71.5269 68.5783 71.3659 68.9671 71.0792 69.2537C70.7926 69.5404 70.4038 69.7014 69.9984 69.7014Z" fill="#D2DDFF"/>
<path d="M69.9984 74.3254C69.593 74.3254 69.2043 74.1644 68.9176 73.8777C68.6309 73.5911 68.4699 73.2023 68.4699 72.7969C68.4699 72.3915 68.6309 72.0028 68.9176 71.7161C69.2043 71.4295 69.593 71.2684 69.9984 71.2684C70.4038 71.2684 70.7926 71.4295 71.0792 71.7161C71.3659 72.0028 71.5269 72.3915 71.5269 72.7969C71.5269 73.2023 71.3659 73.5911 71.0792 73.8777C70.7926 74.1644 70.4038 74.3254 69.9984 74.3254Z" fill="#D2DDFF"/>
<path d="M69.9984 78.9492C69.593 78.9492 69.2043 78.7882 68.9176 78.5015C68.6309 78.2149 68.4699 77.8261 68.4699 77.4207C68.4699 77.0153 68.6309 76.6265 68.9176 76.3399C69.2043 76.0532 69.593 75.8922 69.9984 75.8922C70.4038 75.8922 70.7926 76.0532 71.0792 76.3399C71.3659 76.6265 71.5269 77.0153 71.5269 77.4207C71.5269 77.8261 71.3659 78.2149 71.0792 78.5015C70.7926 78.7882 70.4038 78.9492 69.9984 78.9492Z" fill="#D2DDFF"/>
</g>
</g>
<defs>
<linearGradient id="paint0_linear_122_37" x1="14.1661" y1="59.013" x2="146.172" y2="94.3839" gradientUnits="userSpaceOnUse">
<stop stop-color="#FFD8D8" stop-opacity="0"/>
<stop offset="0.998" stop-color="#FFB2B2"/>
</linearGradient>
<clipPath id="clip0_122_37">
<rect width="140" height="140" fill="white"/>
</clipPath>
</defs>
</svg>
