<svg xmlns="http://www.w3.org/2000/svg" width="22" height="22" viewBox="0 0 22 22" fill="none">
  <path d="M16.3072 20.8541H5.69217C3.18051 20.8541 1.14551 18.8099 1.14551 16.2982V9.50573C1.14551 8.25906 1.91551 6.69156 2.90551 5.92156L7.84634 2.07156C9.33134 0.916562 11.7055 0.861561 13.2455 1.94323L18.9105 5.9124C20.0013 6.67323 20.8538 8.3049 20.8538 9.63406V16.3074C20.8538 18.8099 18.8188 20.8541 16.3072 20.8541ZM8.68967 3.15323L3.74884 7.00323C3.09801 7.51656 2.52051 8.68073 2.52051 9.50573V16.2982C2.52051 18.0491 3.94134 19.4791 5.69217 19.4791H16.3072C18.058 19.4791 19.4788 18.0582 19.4788 16.3074V9.63406C19.4788 8.75406 18.8463 7.53489 18.1222 7.0399L12.4572 3.07073C11.4122 2.33739 9.68884 2.37406 8.68967 3.15323Z" fill="#A9A9A9"/>
  <path d="M11 17.1875C10.6242 17.1875 10.3125 16.8758 10.3125 16.5V13.75C10.3125 13.3742 10.6242 13.0625 11 13.0625C11.3758 13.0625 11.6875 13.3742 11.6875 13.75V16.5C11.6875 16.8758 11.3758 17.1875 11 17.1875Z" fill="#A9A9A9"/>
</svg>