<svg width="18" height="18" viewBox="0 0 18 18" fill="none" xmlns="http://www.w3.org/2000/svg">
<g id="Frame">
<g id="Group">
<g id="Group_2">
<path id="Vector" d="M16.2 8.99994C16.2 9.37494 16.05 9.74994 15.75 10.0499L10.8 14.9999C10.575 15.2249 10.35 15.3749 10.05 15.3749C9.75 15.4499 9.45 15.3749 9.15 15.2999C8.85 15.1499 8.625 14.9999 8.475 14.7749C8.325 14.5499 8.25 14.2499 8.25 13.9499L8.25 11.9999L6.75 11.9999C6.3 11.9999 6 11.6999 6 11.2499L6 6.74994C6 6.29994 6.3 5.99994 6.75 5.99994L8.25 5.99994L8.25 4.04994C8.25 3.74994 8.325 3.44994 8.475 3.22494C8.625 2.99994 8.85 2.77494 9.15 2.69994C9.45 2.54994 9.75 2.54994 10.05 2.62494C10.35 2.69994 10.575 2.84994 10.8 2.99994L15.75 7.94994C16.05 8.24994 16.2 8.62494 16.2 8.99994ZM9.75 13.9499L14.7 8.99994L9.75 4.04994L9.75 6.74994C9.75 7.19994 9.45 7.49994 9 7.49994L7.5 7.49994L7.5 10.4999L9 10.4999C9.45 10.4999 9.75 10.7999 9.75 11.2499L9.75 13.9499ZM3 6.74994L3 11.2499C3 11.6999 2.7 11.9999 2.25 11.9999C1.8 11.9999 1.5 11.6999 1.5 11.2499L1.5 6.74994C1.5 6.29994 1.8 5.99994 2.25 5.99994C2.7 5.99994 3 6.29994 3 6.74994ZM5.25 6.74994L5.25 11.2499C5.25 11.6999 4.95 11.9999 4.5 11.9999C4.05 11.9999 3.75 11.6999 3.75 11.2499L3.75 6.74994C3.75 6.29994 4.05 5.99994 4.5 5.99994C4.95 5.99994 5.25 6.29994 5.25 6.74994Z" fill="#D0D0D0"/>
</g>
</g>
</g>
</svg>
