<svg width="30" height="30" viewBox="0 0 30 30" fill="none" xmlns="http://www.w3.org/2000/svg">
<g clip-path="url(#clip0_1223_6475)">
<path d="M14.9993 0.000106815C12.6708 -0.0101244 10.4334 0.903646 8.77778 2.54096C7.12219 4.17828 6.18364 6.40543 6.16802 8.73386C6.16123 10.7295 6.85104 12.665 8.11849 14.2065L14.7222 23.4001C14.7518 23.4411 14.7681 23.4902 14.7691 23.5407V25.8442C14.8483 25.8395 14.9224 25.8343 15.0035 25.8343C15.0846 25.8343 15.1568 25.8395 15.2379 25.8442V23.4582C15.2381 23.4079 15.2536 23.3589 15.2824 23.3176L21.7511 14.3607C23.0917 12.7927 23.8304 10.7987 23.8352 8.73573C23.8201 6.40617 22.8811 4.17782 21.2244 2.53996C19.5678 0.902109 17.3289 -0.011368 14.9993 0.000106815ZM14.9993 13.621C14.0335 13.6124 13.0918 13.3181 12.293 12.7752C11.4942 12.2322 10.874 11.465 10.5105 10.5701C10.1471 9.67524 10.0567 8.69281 10.2507 7.74665C10.4447 6.80048 10.9145 5.93292 11.6008 5.25333C12.2871 4.57373 13.1593 4.1125 14.1073 3.92778C15.0553 3.74307 16.0368 3.84312 16.9281 4.21534C17.8193 4.58756 18.5805 5.21528 19.1155 6.01939C19.6506 6.8235 19.9356 7.768 19.9347 8.73386C19.927 10.036 19.4031 11.2819 18.4778 12.1982C17.5525 13.1144 16.3014 13.6262 14.9993 13.621ZM16.8602 28.1579C16.8643 28.5088 16.7692 28.8536 16.5857 29.1527C16.4023 29.4518 16.138 29.693 15.8234 29.8483C15.5088 30.0037 15.1566 30.0669 14.8076 30.0308C14.4586 29.9946 14.1269 29.8605 13.8509 29.644C13.5748 29.4274 13.3656 29.1372 13.2473 28.8069C13.1291 28.4765 13.1066 28.1195 13.1826 27.7769C13.2585 27.4344 13.4298 27.1203 13.6766 26.8708C13.9234 26.6214 14.2357 26.4469 14.5774 26.3673C14.7155 26.3334 14.8571 26.3161 14.9993 26.3157C15.1431 26.318 15.2863 26.3369 15.4258 26.372C15.8313 26.4643 16.1937 26.6909 16.454 27.0152C16.7144 27.3394 16.8576 27.7421 16.8602 28.1579Z" fill="white"/>
</g>
<defs>
<clipPath id="clip0_1223_6475">
<rect width="30" height="30" fill="white"/>
</clipPath>
</defs>
</svg>
