<svg width="35" height="35" viewBox="0 0 35 35" fill="none" xmlns="http://www.w3.org/2000/svg">
<g id="Frame">
<g id="Group">
<path id="Vector" d="M24.4997 1.28687H10.4997C9.82794 1.28727 9.18386 1.55433 8.70893 2.02936C8.234 2.50439 7.96707 3.14853 7.9668 3.82025V31.18C7.96707 31.8518 8.23407 32.496 8.70911 32.971C9.18415 33.4461 9.82837 33.7131 10.5002 33.7133H24.4991C25.171 33.7131 25.8152 33.4461 26.2902 32.971C26.7653 32.496 27.0323 31.8518 27.0325 31.18V3.82025C27.0323 3.14844 26.7653 2.50422 26.2902 2.02918C25.8152 1.55413 25.1715 1.28714 24.4997 1.28687ZM17.6592 3.51606H19.3819C19.6604 3.51606 19.8884 3.73892 19.8884 4.02304C19.888 4.15724 19.8345 4.28583 19.7396 4.38072C19.6447 4.47561 19.5161 4.52911 19.3819 4.52951H17.6592C17.5927 4.52972 17.5267 4.51676 17.4652 4.49137C17.4036 4.46599 17.3477 4.4287 17.3006 4.38163C17.2536 4.33455 17.2163 4.27864 17.1909 4.2171C17.1655 4.15556 17.1525 4.08961 17.1528 4.02304C17.1528 3.73892 17.3756 3.51606 17.6592 3.51606ZM15.6174 3.51606H15.795C16.078 3.51606 16.3014 3.73892 16.3014 4.02304C16.3016 4.08961 16.2887 4.15556 16.2633 4.2171C16.2379 4.27864 16.2006 4.33455 16.1535 4.38163C16.1065 4.4287 16.0506 4.46599 15.989 4.49137C15.9275 4.51676 15.8615 4.52972 15.795 4.52951H15.6174C15.4832 4.52911 15.3546 4.47561 15.2597 4.38072C15.1648 4.28583 15.1113 4.15724 15.1109 4.02304C15.1109 3.73892 15.3389 3.51606 15.6174 3.51606ZM18.3633 31.4939H16.636C16.5017 31.4937 16.373 31.4402 16.278 31.3453C16.183 31.2504 16.1294 31.1217 16.129 30.9875C16.1287 30.9208 16.1417 30.8548 16.167 30.7932C16.1924 30.7316 16.2298 30.6756 16.2769 30.6285C16.3241 30.5814 16.3801 30.5442 16.4417 30.5188C16.5033 30.4935 16.5694 30.4806 16.636 30.481H18.3633C18.6423 30.481 18.8703 30.7038 18.8703 30.9875C18.8699 31.1217 18.8164 31.2504 18.7214 31.3453C18.6263 31.4402 18.4976 31.4937 18.3633 31.4939ZM25.4797 28.2513H9.51966V6.74892H25.4797V28.2513Z" fill="#A7A7A7"/>
<path id="Vector_2" d="M16.5341 27.1468H18.4653C18.8168 27.1468 19.1014 26.8431 19.1014 26.4679V24.3957C19.1014 24.021 18.8168 23.7168 18.4653 23.7168H16.5341C16.1825 23.7168 15.8979 24.0205 15.8979 24.3962V26.4679C15.8979 26.8431 16.1825 27.1468 16.5341 27.1468ZM11.5939 22.1207H13.5251C13.8761 22.1207 14.1613 21.8118 14.1613 21.4371V19.3696C14.1613 18.9949 13.8761 18.6907 13.5251 18.6907H11.5939C11.2424 18.6907 10.9531 18.9944 10.9531 19.3701V21.4371C10.9531 21.8118 11.2424 22.1207 11.5939 22.1207ZM21.4742 22.1207H23.4054C23.7569 22.1207 24.0462 21.8118 24.0462 21.4371V19.3696C24.0462 18.9949 23.7569 18.6907 23.4054 18.6907H21.4742C21.1232 18.6907 20.8381 18.9944 20.8381 19.3701V21.4371C20.8381 21.8118 21.1232 22.1207 21.4742 22.1207ZM21.4742 27.1468H23.4054C23.7569 27.1468 24.0462 26.8431 24.0462 26.4679V24.3957C24.0462 24.021 23.7569 23.7168 23.4054 23.7168H21.4742C21.1232 23.7168 20.8381 24.0205 20.8381 24.3962V26.4679C20.8381 26.8431 21.1232 27.1468 21.4742 27.1468ZM11.5939 27.1468H13.5251C13.8761 27.1468 14.1613 26.8431 14.1613 26.4679V24.3957C14.1613 24.021 13.8761 23.7168 13.5251 23.7168H11.5939C11.2424 23.7168 10.9531 24.0205 10.9531 24.3962V26.4679C10.9531 26.8431 11.2424 27.1468 11.5939 27.1468ZM16.5341 22.1207H18.4653C18.8168 22.1207 19.1014 21.8118 19.1014 21.4371V19.3696C19.1014 18.9949 18.8168 18.6907 18.4653 18.6907H16.5341C16.1825 18.6907 15.8979 18.9944 15.8979 19.3701V21.4371C15.8979 21.8118 16.1825 22.1207 16.5341 22.1207Z" fill="#A7A7A7"/>
</g>
</g>
</svg>
