<svg width="40" height="44" viewBox="0 0 40 44" fill="none" xmlns="http://www.w3.org/2000/svg">
<g clip-path="url(#clip0_1135_1293)">
<path fill-rule="evenodd" clip-rule="evenodd" d="M21.696 0.466997C21.1472 0.160469 20.5291 -0.000457764 19.9005 -0.000457764C19.2719 -0.000457764 18.6538 0.160469 18.105 0.466997L14.086 2.734C9.97867 5.05066 5.87133 7.367 1.764 9.683C1.23421 9.97112 0.791221 10.3958 0.481024 10.913C0.170827 11.4302 0.00473603 12.0209 0 12.624V31.187C0.0088563 31.801 0.183859 32.4012 0.506421 32.9238C0.828982 33.4464 1.28706 33.8718 1.832 34.155C2.422 34.476 3.006 34.809 3.59 35.142C4.554 35.692 5.518 36.242 6.51 36.737C7.42968 37.228 8.4509 37.4985 9.49306 37.5272C10.5352 37.5558 11.5697 37.3418 12.515 36.902C13.222 36.4601 13.7975 35.8365 14.1813 35.0963C14.5651 34.3561 14.7432 33.5265 14.697 32.694C14.705 28.8273 14.7067 24.9583 14.702 21.087C14.702 18.8297 14.702 16.5727 14.702 14.316C14.7126 14.2489 14.709 14.1804 14.6913 14.1148C14.6735 14.0493 14.6422 13.9882 14.5992 13.9356C14.5563 13.883 14.5027 13.8401 14.442 13.8097C14.3813 13.7792 14.3148 13.762 14.247 13.759C13.547 13.748 12.854 13.752 12.158 13.759C12.0936 13.7532 12.0287 13.7611 11.9676 13.7821C11.9064 13.8031 11.8504 13.8369 11.8032 13.881C11.756 13.9252 11.7187 13.9789 11.6936 14.0385C11.6686 14.0981 11.6565 14.1624 11.658 14.227C11.6533 17.415 11.6533 20.6037 11.658 23.793C11.658 26.6917 11.658 29.5917 11.658 32.493C11.6594 32.9134 11.5321 33.3243 11.2933 33.6703C11.0545 34.0164 10.7156 34.2811 10.322 34.429C9.86865 34.5628 9.3922 34.5995 8.92371 34.5367C8.45522 34.474 8.00521 34.3133 7.603 34.065L6.131 33.235C5.16767 32.6917 4.20667 32.1497 3.248 31.609C3.15114 31.5644 3.07038 31.491 3.0167 31.3989C2.96303 31.3067 2.93904 31.2003 2.948 31.094C2.948 29.0527 2.948 27.0113 2.948 24.97C2.948 20.8873 2.948 16.8047 2.948 12.722C2.93791 12.6029 2.96575 12.4836 3.02753 12.3812C3.08932 12.2788 3.18188 12.1986 3.292 12.152C6.31267 10.4527 9.333 8.75266 12.353 7.052L19.576 2.983C19.6701 2.91863 19.7815 2.8842 19.8955 2.8842C20.0095 2.8842 20.1209 2.91863 20.215 2.983L27.409 7.033C30.4397 8.73966 33.4703 10.4457 36.501 12.151C36.6106 12.1989 36.7025 12.28 36.7638 12.3827C36.8251 12.4854 36.8528 12.6048 36.843 12.724C36.843 14.9507 36.843 17.1777 36.843 19.405C36.843 23.3017 36.843 27.1983 36.843 31.095C36.8525 31.2013 36.8298 31.308 36.7777 31.4011C36.7256 31.4943 36.6466 31.5695 36.551 31.617C33.751 33.1963 30.9527 34.7737 28.156 36.349C25.6047 37.7857 23.054 39.2233 20.504 40.662L20.404 40.72C20.171 40.856 19.904 41.011 19.647 40.861C18.847 40.407 18.047 39.943 17.247 39.479C16.6523 39.133 16.057 38.7883 15.461 38.445C15.3899 38.3913 15.3045 38.3597 15.2155 38.3544C15.1266 38.3491 15.038 38.3701 14.961 38.415L14.847 38.476C14.2676 38.8123 13.6579 39.0936 13.026 39.316C12.944 39.349 12.858 39.376 12.771 39.402C12.5286 39.4478 12.3078 39.5714 12.142 39.754C12.3424 39.9918 12.5926 40.1827 12.875 40.313C12.947 40.353 13.018 40.393 13.088 40.434L15.323 41.724C16.213 42.2373 17.1027 42.7513 17.992 43.266C18.5332 43.6053 19.1554 43.7934 19.7939 43.811C20.4324 43.8286 21.0639 43.6749 21.623 43.366L29.369 39.001L37.969 34.157C38.5146 33.8737 38.9734 33.448 39.2968 32.9252C39.6202 32.4023 39.7962 31.8017 39.806 31.187V12.624C39.8006 12.0336 39.6403 11.455 39.3411 10.9461C39.0419 10.4372 38.6143 10.0157 38.101 9.724C34.901 7.916 31.699 6.10933 28.495 4.304L21.696 0.466997ZM29.916 14.409C27.7116 13.3929 25.2653 13.0189 22.858 13.33C21.0944 13.4019 19.4092 14.078 18.085 15.245C17.4775 15.8986 17.066 16.7099 16.8974 17.5863C16.7289 18.4626 16.8102 19.3687 17.132 20.201C17.3834 20.7583 17.7527 21.2544 18.2143 21.6553C18.6759 22.0562 19.219 22.3522 19.806 22.523C21.2794 22.9899 22.8037 23.2769 24.346 23.378C25.7517 23.4797 27.1437 23.7222 28.501 24.102C29.052 24.289 29.693 24.574 29.862 25.186C29.9528 25.5531 29.9461 25.9375 29.8424 26.3012C29.7387 26.6648 29.5417 26.995 29.271 27.259C28.1631 27.9657 26.8581 28.2993 25.547 28.211L25.337 28.22L24.927 28.215C23.4122 28.3443 21.8917 28.0438 20.54 27.348C20.2034 27.079 19.9256 26.7438 19.7236 26.3632C19.5217 25.9825 19.4 25.5645 19.366 25.135C19.3654 25.0704 19.3519 25.0066 19.3263 24.9473C19.3007 24.888 19.2635 24.8343 19.217 24.7896C19.1704 24.7448 19.1154 24.7097 19.0551 24.6864C18.9949 24.6632 18.9306 24.6521 18.866 24.654C18.172 24.646 17.478 24.647 16.783 24.654C16.6618 24.6416 16.5406 24.6775 16.4457 24.7539C16.3508 24.8303 16.2898 24.941 16.276 25.062C16.2366 25.8155 16.3642 26.5685 16.6498 27.2669C16.9354 27.9653 17.3719 28.592 17.928 29.102C19.3326 30.1964 21.0373 30.8368 22.815 30.938C24.6675 31.1525 26.5423 31.0728 28.37 30.702C29.7729 30.4406 31.0593 29.7481 32.05 28.721C32.5973 28.0471 32.9641 27.245 33.1159 26.3903C33.2678 25.5355 33.1997 24.6562 32.918 23.835C32.6811 23.2553 32.3146 22.7376 31.8466 22.3216C31.3785 21.9056 30.8214 21.6023 30.218 21.435C28.6271 20.937 26.9891 20.6046 25.33 20.443C24.0444 20.2998 22.769 20.0771 21.511 19.776L21.447 19.756C20.963 19.605 20.397 19.428 20.185 18.924C20.0571 18.5541 20.0484 18.1534 20.1602 17.7783C20.2719 17.4032 20.4985 17.0726 20.808 16.833C21.7073 16.3196 22.731 16.0649 23.766 16.097H23.875C25.2467 15.9731 26.6283 16.1767 27.906 16.691C28.2986 16.9228 28.6361 17.2372 28.8951 17.6125C29.1541 17.9877 29.3284 18.4147 29.406 18.864C29.41 18.9969 29.4635 19.1234 29.556 19.2189C29.6485 19.3144 29.7733 19.3718 29.906 19.38C30.378 19.39 30.85 19.388 31.321 19.386H31.974C32.0934 19.4002 32.2139 19.3709 32.3134 19.3035C32.4129 19.2361 32.4849 19.1351 32.516 19.019C32.5216 18.0907 32.2847 17.177 31.8286 16.3685C31.3726 15.5599 30.7133 14.8845 29.916 14.409Z" fill="url(#paint0_linear_1135_1293)"/>
</g>
<defs>
<linearGradient id="paint0_linear_1135_1293" x1="0" y1="21.9069" x2="39.806" y2="21.9069" gradientUnits="userSpaceOnUse">
<stop stop-color="#12AFFC"/>
<stop offset="1" stop-color="#7B28FF"/>
</linearGradient>
<clipPath id="clip0_1135_1293">
<rect width="39.803" height="43.809" fill="white"/>
</clipPath>
</defs>
</svg>
