<svg width="140" height="140" viewBox="0 0 140 140" fill="none" xmlns="http://www.w3.org/2000/svg">
<g clip-path="url(#clip0_1291_37511)">
<path d="M78.7738 17.4765C68.3575 17.6553 59.1443 22.7689 53.3704 30.5793C48.398 37.3056 40.6581 41.5075 32.2936 41.5031C32.0481 41.5028 31.8023 41.5056 31.5553 41.511C14.6252 41.8813 0.228796 56.4073 0.00293715 73.3399C-0.237414 91.3681 14.3042 106.058 32.2772 106.058C46.208 106.058 58.0757 97.232 62.5972 84.8671C63.7807 81.6318 67.2875 79.898 70.6046 80.8279L70.7287 80.8627C73.7639 81.7005 75.7758 84.5923 75.5273 87.7311C75.1947 91.9374 75.6864 96.2774 77.1129 100.527C82.7241 117.243 100.953 126.417 117.716 120.947C134.864 115.351 144.07 96.8341 138.257 79.8217C135.023 70.3581 127.828 63.3717 119.157 60.0787C114.664 58.3728 111.679 54.1025 111.614 49.2977C111.612 49.1927 111.61 49.0874 111.607 48.9819C111.2 31.5093 96.7435 17.4724 79.3308 17.4716C79.1451 17.4716 78.9603 17.4732 78.7738 17.4765Z" fill="url(#paint0_linear_1291_37511)"/>
<mask id="mask0_1291_37511" style="mask-type:luminance" maskUnits="userSpaceOnUse" x="0" y="0" width="140" height="140">
<path d="M0 0.000411987H140V140H0V0.000411987Z" fill="white"/>
</mask>
<g mask="url(#mask0_1291_37511)">
<mask id="mask1_1291_37511" style="mask-type:luminance" maskUnits="userSpaceOnUse" x="30" y="10" width="91" height="125">
<path d="M30.7208 10.4836H120.801V134.985H30.7208V10.4836Z" fill="white"/>
</mask>
<g mask="url(#mask1_1291_37511)">
<g opacity="0.2">
<path d="M118.066 88.409H102.426V18.6867C102.426 14.1562 98.7527 10.4836 94.2224 10.4836H38.9237C34.3934 10.4836 30.7206 14.1562 30.7206 18.6867V126.782C30.7206 131.313 34.3934 134.985 38.9237 134.985H94.2224C98.7527 134.985 102.426 131.313 102.426 126.782V122.562H118.066C119.577 122.562 120.801 121.338 120.801 119.828V91.1434C120.801 89.6334 119.577 88.409 118.066 88.409Z" fill="#6583FE"/>
</g>
</g>
<path d="M38.9239 128.516H94.2224C98.2004 128.516 101.425 125.292 101.425 121.313V13.2183C101.425 9.23975 98.2005 6.01517 94.2224 6.01517H38.9239C34.9456 6.01517 31.7208 9.23973 31.7208 13.2183V121.313C31.7208 125.292 34.9456 128.516 38.9239 128.516Z" fill="#6583FE" stroke="#0000CB" stroke-width="2"/>
<path d="M102.426 87.9976V121.313C102.426 121.598 102.412 121.876 102.385 122.152H89.3804C87.8713 122.152 86.646 120.928 86.646 119.418V90.732C86.646 89.2224 87.8713 87.9976 89.3804 87.9976H102.426Z" fill="#4369FD"/>
<path d="M77.1701 14.0723H61.7154C61.3529 14.0723 61.0051 13.9282 60.7487 13.6718C60.4923 13.4154 60.3483 13.0677 60.3483 12.7051C60.3483 12.3425 60.4923 11.9947 60.7487 11.7383C61.0051 11.4819 61.3529 11.3379 61.7154 11.3379H77.1701C77.5327 11.3379 77.8804 11.4819 78.1368 11.7383C78.3932 11.9947 78.5373 12.3425 78.5373 12.7051C78.5373 13.0677 78.3932 13.4154 78.1368 13.6718C77.8804 13.9282 77.5327 14.0723 77.1701 14.0723Z" fill="#9FB0FE"/>
<path d="M57.3431 12.7051C57.3431 13.0677 57.1991 13.4154 56.9427 13.6718C56.6863 13.9282 56.3385 14.0723 55.9759 14.0723C55.6133 14.0723 55.2656 13.9282 55.0092 13.6718C54.7528 13.4154 54.6088 13.0677 54.6088 12.7051C54.6088 12.3425 54.7528 11.9947 55.0092 11.7383C55.2656 11.4819 55.6133 11.3379 55.9759 11.3379C56.3385 11.3379 56.6863 11.4819 56.9427 11.7383C57.1991 11.9947 57.3431 12.3425 57.3431 12.7051Z" fill="#9FB0FE"/>
<path d="M73.2274 119.057C73.2274 122.731 70.248 125.711 66.573 125.711C62.8983 125.711 59.9189 122.731 59.9189 119.057C59.9189 115.382 62.8983 112.402 66.573 112.402C70.248 112.402 73.2274 115.382 73.2274 119.057Z" fill="#9FB0FE"/>
<path d="M95.4799 109.929H37.6664C37.3038 109.929 36.956 109.785 36.6996 109.529C36.4432 109.273 36.2992 108.925 36.2992 108.562V20.6904C36.2992 20.3278 36.4432 19.98 36.6996 19.7236C36.956 19.4672 37.3038 19.3232 37.6664 19.3232H95.4799C95.8425 19.3232 96.1903 19.4672 96.4467 19.7236C96.7031 19.98 96.8471 20.3278 96.8471 20.6904V108.562C96.8471 108.925 96.7031 109.273 96.4467 109.529C96.1903 109.785 95.8425 109.929 95.4799 109.929Z" fill="white"/>
<path d="M91.1643 55.1638H70.1001C69.7375 55.1638 69.3897 55.0198 69.1333 54.7634C68.877 54.507 68.7329 54.1592 68.7329 53.7966V23.6073C68.7329 23.2447 68.877 22.897 69.1333 22.6406C69.3897 22.3842 69.7375 22.2401 70.1001 22.2401H91.1643C91.5269 22.2401 91.8746 22.3842 92.131 22.6406C92.3874 22.897 92.5315 23.2447 92.5315 23.6073V53.7966C92.5315 54.1592 92.3874 54.507 92.131 54.7634C91.8746 55.0198 91.5269 55.1638 91.1643 55.1638Z" fill="#FF7EB8"/>
<path d="M77.3516 63.1792H70.1001C69.7375 63.1792 69.3897 63.0352 69.1333 62.7788C68.877 62.5224 68.7329 62.1746 68.7329 61.812C68.7329 61.4494 68.877 61.1017 69.1333 60.8453C69.3897 60.5889 69.7375 60.4448 70.1001 60.4448H77.3516C77.7142 60.4448 78.062 60.5889 78.3184 60.8453C78.5748 61.1017 78.7188 61.4494 78.7188 61.812C78.7188 62.1746 78.5748 62.5224 78.3184 62.7788C78.062 63.0352 77.7142 63.1792 77.3516 63.1792Z" fill="#D2DEFF"/>
<path d="M91.1643 63.1792H89.3815C89.0189 63.1792 88.6711 63.0352 88.4147 62.7788C88.1583 62.5224 88.0143 62.1746 88.0143 61.812C88.0143 61.4494 88.1583 61.1017 88.4147 60.8453C88.6711 60.5889 89.0189 60.4448 89.3815 60.4448H91.1643C91.5269 60.4448 91.8746 60.5889 92.131 60.8453C92.3874 61.1017 92.5315 61.4494 92.5315 61.812C92.5315 62.1746 92.3874 62.5224 92.131 62.7788C91.8746 63.0352 91.5269 63.1792 91.1643 63.1792Z" fill="#D2DEFF"/>
<path d="M91.8479 68.2378H70.1001C69.7375 68.2378 69.3897 68.0938 69.1333 67.8374C68.877 67.581 68.7329 67.2332 68.7329 66.8706C68.7329 66.508 68.877 66.1603 69.1333 65.9039C69.3897 65.6475 69.7375 65.5034 70.1001 65.5034H91.8479C92.2105 65.5034 92.5582 65.6475 92.8146 65.9039C93.071 66.1603 93.2151 66.508 93.2151 66.8706C93.2151 67.2332 93.071 67.581 92.8146 67.8374C92.5582 68.0938 92.2105 68.2378 91.8479 68.2378Z" fill="#D2DEFF"/>
<path d="M91.8479 73.2964H70.1001C69.7375 73.2964 69.3897 73.1523 69.1333 72.8959C68.877 72.6396 68.7329 72.2918 68.7329 71.9292C68.7329 71.5666 68.877 71.2189 69.1333 70.9625C69.3897 70.7061 69.7375 70.562 70.1001 70.562H91.8479C92.2105 70.562 92.5582 70.7061 92.8146 70.9625C93.071 71.2189 93.2151 71.5666 93.2151 71.9292C93.2151 72.2918 93.071 72.6396 92.8146 72.8959C92.5582 73.1523 92.2105 73.2964 91.8479 73.2964Z" fill="#D2DEFF"/>
<path d="M62.3627 42.8591H41.2985C40.9359 42.8591 40.5881 42.7151 40.3317 42.4587C40.0753 42.2023 39.9313 41.8545 39.9313 41.4919V23.6073C39.9313 23.2447 40.0753 22.8969 40.3317 22.6405C40.5881 22.3841 40.9359 22.2401 41.2985 22.2401H62.3627C62.7253 22.2401 63.073 22.3841 63.3294 22.6405C63.5858 22.8969 63.7298 23.2447 63.7298 23.6073V41.4919C63.7298 41.8545 63.5858 42.2023 63.3294 42.4587C63.073 42.7151 62.7253 42.8591 62.3627 42.8591Z" fill="#01ECA5"/>
<path d="M48.5498 50.8745H41.2982C40.9356 50.8745 40.5879 50.7305 40.3315 50.4741C40.0751 50.2177 39.931 49.8699 39.931 49.5073C39.931 49.1447 40.0751 48.797 40.3315 48.5406C40.5879 48.2842 40.9356 48.1401 41.2982 48.1401H48.5498C48.9124 48.1401 49.2601 48.2842 49.5165 48.5406C49.7729 48.797 49.9169 49.1447 49.9169 49.5073C49.9169 49.8699 49.7729 50.2177 49.5165 50.4741C49.2601 50.7305 48.9124 50.8745 48.5498 50.8745Z" fill="#D2DEFF"/>
<path d="M62.3626 50.8745H60.5798C60.2172 50.8745 59.8695 50.7305 59.6131 50.4741C59.3567 50.2177 59.2126 49.8699 59.2126 49.5073C59.2126 49.1447 59.3567 48.797 59.6131 48.5406C59.8695 48.2842 60.2172 48.1401 60.5798 48.1401H62.3626C62.7252 48.1401 63.073 48.2842 63.3294 48.5406C63.5858 48.797 63.7298 49.1447 63.7298 49.5073C63.7298 49.8699 63.5858 50.2177 63.3294 50.4741C63.073 50.7305 62.7252 50.8745 62.3626 50.8745Z" fill="#D2DEFF"/>
<path d="M63.0462 55.9331H41.2985C40.9359 55.9331 40.5881 55.7891 40.3317 55.5327C40.0753 55.2763 39.9313 54.9285 39.9313 54.5659C39.9313 54.2033 40.0753 53.8556 40.3317 53.5992C40.5881 53.3428 40.9359 53.1987 41.2985 53.1987H63.0462C63.4088 53.1987 63.7566 53.3428 64.013 53.5992C64.2694 53.8556 64.4134 54.2033 64.4134 54.5659C64.4134 54.9285 64.2694 55.2763 64.013 55.5327C63.7566 55.7891 63.4088 55.9331 63.0462 55.9331Z" fill="#D2DEFF"/>
<path d="M92.5315 109.929H68.7329V79.5851C68.7329 78.8304 69.3451 78.2179 70.1001 78.2179H91.1643C91.5269 78.2179 91.8746 78.3619 92.131 78.6183C92.3874 78.8747 92.5315 79.2225 92.5315 79.5851V109.929Z" fill="#01ECA5"/>
<path d="M62.3627 93.3689H41.2985C40.9359 93.3689 40.5881 93.2249 40.3317 92.9685C40.0753 92.7121 39.9313 92.3643 39.9313 92.0017V61.8121C39.9313 61.4495 40.0753 61.1018 40.3317 60.8454C40.5881 60.589 40.9359 60.4449 41.2985 60.4449H62.3627C62.7253 60.4449 63.073 60.589 63.3294 60.8454C63.5858 61.1018 63.7298 61.4495 63.7298 61.8121V92.0017C63.7298 92.3643 63.5858 92.7121 63.3294 92.9685C63.073 93.2249 62.7253 93.3689 62.3627 93.3689Z" fill="#8399FE"/>
<path d="M48.5498 101.384H41.2982C40.9356 101.384 40.5879 101.24 40.3315 100.984C40.0751 100.727 39.931 100.379 39.931 100.017C39.931 99.6543 40.0751 99.3065 40.3315 99.0501C40.5879 98.7937 40.9356 98.6497 41.2982 98.6497H48.5498C48.9124 98.6497 49.2601 98.7937 49.5165 99.0501C49.7729 99.3065 49.9169 99.6543 49.9169 100.017C49.9169 100.379 49.7729 100.727 49.5165 100.984C49.2601 101.24 48.9124 101.384 48.5498 101.384Z" fill="#D2DEFF"/>
<path d="M62.3626 101.384H60.5798C60.2172 101.384 59.8695 101.24 59.6131 100.984C59.3567 100.727 59.2126 100.379 59.2126 100.017C59.2126 99.6543 59.3567 99.3065 59.6131 99.0501C59.8695 98.7937 60.2172 98.6497 60.5798 98.6497H62.3626C62.7252 98.6497 63.073 98.7937 63.3294 99.0501C63.5858 99.3065 63.7298 99.6543 63.7298 100.017C63.7298 100.379 63.5858 100.727 63.3294 100.984C63.073 101.24 62.7252 101.384 62.3626 101.384Z" fill="#D2DEFF"/>
<path d="M63.0462 106.443H41.2985C40.9359 106.443 40.5881 106.299 40.3317 106.042C40.0753 105.786 39.9313 105.438 39.9313 105.075C39.9313 104.713 40.0753 104.365 40.3317 104.109C40.5881 103.852 40.9359 103.708 41.2985 103.708H63.0462C63.4088 103.708 63.7566 103.852 64.013 104.109C64.2694 104.365 64.4134 104.713 64.4134 105.075C64.4134 105.438 64.2694 105.786 64.013 106.042C63.7566 106.299 63.4088 106.443 63.0462 106.443Z" fill="#D2DEFF"/>
<path d="M119.801 114.359V85.6745C119.801 84.7169 119.024 83.9402 118.066 83.9402H89.3817C88.4239 83.9402 87.6473 84.7168 87.6473 85.6745V114.359C87.6473 115.317 88.4237 116.094 89.3817 116.094H118.066C119.024 116.094 119.801 115.317 119.801 114.359Z" fill="#4369FD" stroke="#0000CB" stroke-width="2"/>
<path d="M108.374 103.008C108.374 107.047 105.099 110.321 101.061 110.321C97.0211 110.321 93.7469 107.047 93.7469 103.008C93.7469 98.969 97.0211 95.6946 101.061 95.6946C105.099 95.6946 108.374 98.969 108.374 103.008Z" fill="#FF7EB8"/>
<path d="M120.801 114.359V102.497C118.181 101.587 115.428 101.123 112.655 101.126C102.076 101.126 93.0486 107.761 89.4972 117.094H118.066C119.576 117.094 120.801 115.869 120.801 114.359Z" fill="#01ECA5"/>
<path d="M112.441 117.094H89.3817C87.8715 117.094 86.6473 115.869 86.6473 114.359V107.221C89.3265 105.471 92.5243 104.456 95.96 104.456C103.852 104.456 110.494 109.815 112.441 117.094Z" fill="#97FFD2"/>
</g>
</g>
<defs>
<linearGradient id="paint0_linear_1291_37511" x1="8.68993" y1="42.8087" x2="85.1327" y2="146.249" gradientUnits="userSpaceOnUse">
<stop stop-color="#FFD8D8" stop-opacity="0"/>
<stop offset="0.998" stop-color="#FFB2B2"/>
</linearGradient>
<clipPath id="clip0_1291_37511">
<rect width="140" height="140" fill="white"/>
</clipPath>
</defs>
</svg>
