<svg width="42" height="45" viewBox="0 0 42 45" fill="none" xmlns="http://www.w3.org/2000/svg">
<g clip-path="url(#clip0_1135_1295)">
<path d="M39.5 28C35.9 29.2 33.6667 28.1667 33 27.5L32 28L31.5 30L32 32L38 30.5C41.2 28.1 40.3333 27.8333 39.5 28Z" fill="url(#paint0_linear_1135_1295)" stroke="url(#paint1_linear_1135_1295)"/>
<path d="M14.772 29.5C18.372 30.7 20.3333 29.6667 21 29L21.272 29.5V31.5V33.5L16.272 32C13.072 29.6 13.9386 29.3333 14.772 29.5Z" fill="url(#paint2_linear_1135_1295)" stroke="url(#paint3_linear_1135_1295)"/>
<path fill-rule="evenodd" clip-rule="evenodd" d="M14.849 26.909C15.8126 27.4085 16.8815 27.6711 17.967 27.675C18.0715 27.6751 18.1753 27.6575 18.274 27.623C18.3943 27.6308 18.5095 27.6743 18.605 27.748L18.699 27.803C18.763 27.839 18.826 27.871 18.891 27.903C19.0974 28.0073 19.281 28.1516 19.431 28.3276C19.5811 28.5036 19.6946 28.7077 19.765 28.928C19.794 29.014 19.82 29.101 19.842 29.189C19.861 29.261 19.877 29.335 19.891 29.408C19.8516 30.734 19.8353 32.0603 19.842 33.387C19.848 34.6117 19.8736 35.8363 19.919 37.061C19.9543 37.9943 20.021 38.9277 20.119 39.861C20.1728 40.4556 20.2877 41.043 20.462 41.614C20.7721 42.5402 21.3054 43.3758 22.015 44.047C22.7588 44.6874 23.7148 45.0272 24.696 45C25.2038 44.9949 25.7096 44.9359 26.205 44.824C27.5404 44.629 28.7832 44.027 29.764 43.1C29.9648 42.8887 30.144 42.6579 30.299 42.411C30.5121 42.0668 30.6868 41.7003 30.82 41.318C31.011 40.7648 31.1532 40.196 31.245 39.618C31.478 38.23 31.866 35.148 32.134 32.797C32.4266 32.8282 32.7207 32.8432 33.015 32.842C34.3873 32.8447 35.7514 32.629 37.056 32.203C39.194 31.588 40.699 30.416 41.084 29.065C41.1884 28.7483 41.2092 28.41 41.1444 28.0829C41.0795 27.7557 40.9313 27.4509 40.714 27.198C40.067 26.48 39.145 26.721 38.252 26.956C37.3498 27.2257 36.4114 27.3543 35.47 27.337C35.0899 27.3209 34.7128 27.264 34.345 27.167C36.577 24.049 38.514 19.678 40.268 13.816C40.8372 12.01 41.1664 10.1369 41.247 8.245C41.367 6.97797 41.0405 5.70881 40.324 4.657C37.549 1.6 33.649 0.028 28.724 0H28.372C27.8758 0.0124251 27.3826 0.0811997 26.902 0.205C26.474 0.305 26.058 0.442 25.65 0.574C25.242 0.706 24.832 0.837 24.429 0.927C23.3866 0.672612 22.3188 0.536421 21.246 0.521H21.024C19.3482 0.479392 17.6938 0.902706 16.244 1.744C15.486 1.516 14.577 1.267 13.584 1.063C12.5236 0.838174 11.4467 0.69972 10.364 0.649C9.78736 0.607517 9.20854 0.607517 8.63195 0.649C6.35658 0.645774 4.16276 1.49611 2.48395 3.032C0.660954 4.842 -0.166046 7.65 0.023954 11.382C0.226557 13.1975 0.56077 14.9959 1.02395 16.763C1.65729 19.4684 2.466 22.1297 3.44495 24.73C4.10695 26.401 5.45495 29.414 7.01695 30.85C7.56721 31.4285 8.31945 31.7724 9.11695 31.81H9.21695C9.6717 31.7593 10.1114 31.6165 10.5092 31.3905C10.907 31.1644 11.2546 30.8597 11.531 30.495C11.918 30.065 12.451 29.488 13.011 28.885L13.833 27.998L14.849 26.909ZM15.136 24.898L15.236 24.967C15.8494 25.3688 16.5421 25.6341 17.267 25.745C17.408 25.286 17.56 24.852 17.71 24.479C17.81 24.212 17.941 23.903 18.089 23.569C18.848 21.835 19.889 19.462 18.768 14.183C18.7066 13.7557 18.5383 13.3508 18.2787 13.0059C18.0191 12.6609 17.6766 12.3872 17.283 12.21C16.4833 11.9462 15.6221 11.9333 14.815 12.173C14.1661 12.3313 13.5364 12.5596 12.937 12.854C12.95 13.271 12.967 13.866 12.978 14.513C13.0305 16.1664 12.9401 17.8212 12.708 19.459C12.5924 20.247 12.6487 21.0507 12.8731 21.8149C13.0975 22.579 13.4847 23.2856 14.008 23.886C14.3376 24.2723 14.7169 24.6132 15.136 24.9V24.898ZM11.051 12.41C11.061 12.667 11.091 13.546 11.108 14.561C11.124 15.0803 11.124 15.5973 11.108 16.112C11.0833 17.1414 10.9981 18.1685 10.853 19.188C10.6974 20.2419 10.7713 21.3169 11.0698 22.3395C11.3682 23.3621 11.884 24.3082 12.582 25.113C12.7997 25.3671 13.0335 25.6069 13.282 25.831L12.463 26.717L12.096 27.117C11.37 27.9 10.636 28.691 10.136 29.248C9.95011 29.4711 9.72963 29.6629 9.48295 29.816C9.41945 29.8529 9.35246 29.8833 9.28295 29.907C9.23444 29.9234 9.18403 29.9334 9.13295 29.937C8.83295 29.973 8.52395 29.697 8.28895 29.48C6.9142 27.8871 5.86143 26.0427 5.18895 24.049C4.24095 21.5282 3.45796 18.9484 2.84495 16.326C2.41155 14.6699 2.0928 12.9859 1.89095 11.286C1.72695 8.111 2.36895 5.786 3.80095 4.361C5.16225 3.14491 6.93183 2.48649 8.75695 2.517C8.99995 2.5 9.24295 2.495 9.48595 2.5C9.72895 2.505 9.99195 2.5 10.247 2.521C11.6662 2.59829 13.0736 2.82181 14.447 3.188C13.4011 4.32841 12.5988 5.67006 12.089 7.131C11.7375 8.16326 11.4772 9.22431 11.311 10.302C11.137 11.336 11.054 12.145 11.048 12.21C11.0419 12.2766 11.0429 12.3436 11.051 12.41ZM27.356 2.026C29.2327 3.0176 30.8676 4.41105 32.144 6.107C33.036 7.26478 33.7723 8.53462 34.334 9.884C34.4136 10.0751 34.4827 10.2703 34.541 10.469C34.55 10.499 34.558 10.532 34.565 10.564L34.582 10.611C34.6004 10.6707 34.6131 10.7319 34.62 10.794C34.8182 12.4466 34.867 14.1137 34.766 15.775C34.7735 16.393 34.8206 17.01 34.907 17.622C35.0553 18.7542 35.1278 19.8951 35.124 21.037C35.118 21.2323 35.1093 21.4277 35.098 21.623C35.084 21.8503 35.0666 22.0777 35.046 22.305C36.4378 19.3971 37.5832 16.3775 38.47 13.278C38.9902 11.6377 39.2928 9.93613 39.37 8.217C39.388 7.65971 39.3318 7.10249 39.203 6.56C39.157 6.32938 39.0645 6.11057 38.931 5.917C36.524 3.259 33.09 1.9 28.724 1.875H28.39C28.0408 1.88678 27.6939 1.93743 27.356 2.026ZM32.841 11.795C32.2658 11.7043 31.6775 11.7435 31.1195 11.9098C30.5614 12.0761 30.0477 12.3652 29.616 12.756C28.967 13.51 28.851 14.687 29.26 16.356C29.6833 17.8866 30.2749 19.3656 31.024 20.766C31.313 21.329 31.59 21.836 31.824 22.266L31.889 22.386L31.906 22.414C32.038 22.647 32.166 22.881 32.306 23.154C32.364 23.269 32.424 23.391 32.487 23.523C32.6046 23.8076 32.7382 24.0854 32.887 24.355C32.901 24.272 32.914 24.188 32.928 24.102C33.0996 23.0723 33.2072 22.033 33.25 20.99C33.2495 19.9369 33.1804 18.885 33.043 17.841V17.829C33.003 17.477 32.966 17.146 32.943 16.835C32.9052 16.4603 32.8901 16.0836 32.898 15.707C32.9719 14.4033 32.9529 13.096 32.841 11.795ZM16.341 3.968C16.4743 3.856 16.6076 3.75033 16.741 3.651C16.77 3.639 16.8 3.626 16.828 3.612C16.8886 3.58146 16.9456 3.54423 16.998 3.501C17.0291 3.47501 17.0589 3.4473 17.087 3.418C17.6489 3.06719 18.2618 2.80574 18.904 2.643C19.5933 2.47112 20.3015 2.38679 21.012 2.392H21.225C23.068 2.4009 24.8828 2.84545 26.5213 3.68937C28.1598 4.53329 29.5755 5.75268 30.653 7.248C31.2921 8.07504 31.8409 8.96813 32.29 9.912C31.5296 9.86522 30.7683 9.98608 30.0598 10.266C29.3513 10.546 28.713 10.9781 28.19 11.532C27.124 12.776 26.878 14.5 27.44 16.8C27.5988 17.4403 27.7972 18.0702 28.034 18.686C28.164 19.029 28.31 19.386 28.472 19.752C28.727 20.335 29.023 20.952 29.362 21.615C29.662 22.192 29.943 22.715 30.183 23.16L30.222 23.15C30.2366 23.2151 30.2574 23.2787 30.284 23.34L30.291 23.352L30.312 23.391V23.405L30.338 23.45L30.355 23.477C30.4363 23.6223 30.5143 23.7693 30.589 23.918C30.6636 24.0667 30.7343 24.2123 30.801 24.355C31.1148 25.0974 31.5177 25.7989 32.001 26.444C31.59 26.7358 31.2513 27.1179 31.011 27.561C30.636 28.3099 30.4737 29.1473 30.542 29.982C30.454 31.15 29.734 37.26 29.389 39.3C29.3121 40.2154 28.9663 41.0877 28.395 41.807C28.0635 42.1403 27.6651 42.3993 27.226 42.567C27.0092 42.6557 26.7879 42.7328 26.563 42.798C26.3283 42.8647 26.072 42.9313 25.794 42.998C24.281 43.328 23.628 42.976 23.227 42.63C22.9165 42.3423 22.6666 41.9956 22.492 41.61C22.382 41.386 22.286 41.157 22.2 40.937C22.0882 40.518 22.0129 40.09 21.975 39.658C21.894 38.934 21.829 38.019 21.786 36.988C21.737 35.602 21.707 34.215 21.707 32.818C21.707 31.6847 21.7246 30.5513 21.76 29.418C21.7668 29.2951 21.7508 29.1721 21.713 29.055C21.6739 28.7933 21.6103 28.5358 21.523 28.286C21.3603 27.8105 21.1011 27.3737 20.7616 27.0032C20.422 26.6327 20.0095 26.3364 19.55 26.133C19.4298 26.0606 19.3052 25.9958 19.177 25.939C19.269 25.66 19.366 25.393 19.464 25.153C19.542 24.942 19.636 24.721 19.738 24.486L19.808 24.325C20.62 22.468 21.848 19.665 20.608 13.797C20.4818 13.0672 20.1749 12.3806 19.7151 11.7999C19.2553 11.2193 18.6574 10.7631 17.976 10.473C16.8215 10.0586 15.5661 10.0173 14.387 10.355C13.9634 10.4552 13.5465 10.5821 13.139 10.735C13.229 10.186 13.346 9.564 13.492 8.969C13.537 8.785 13.585 8.605 13.636 8.43C13.701 8.202 13.771 7.986 13.845 7.784C14.1709 6.8707 14.6233 6.00763 15.189 5.22C15.523 4.75934 15.9096 4.33918 16.341 3.968ZM32.424 30.012C32.3718 29.4868 32.4537 28.957 32.662 28.472C33.4932 28.9412 34.4295 29.1926 35.384 29.203C36.5041 29.2388 37.6227 29.0943 38.697 28.775L38.731 28.766C38.903 28.721 39.098 28.666 39.26 28.635C39.08 29.057 38.347 29.879 36.393 30.455C35.5259 30.7204 34.6295 30.8786 33.724 30.926C33.2638 30.9685 32.801 30.9742 32.34 30.943C32.367 30.68 32.388 30.452 32.404 30.268L32.424 30.012Z" fill="url(#paint4_linear_1135_1295)"/>
</g>
<defs>
<linearGradient id="paint0_linear_1135_1295" x1="31.5" y1="29.7501" x2="40.2721" y2="29.7501" gradientUnits="userSpaceOnUse">
<stop stop-color="#12AFFC"/>
<stop offset="1" stop-color="#7B28FF"/>
</linearGradient>
<linearGradient id="paint1_linear_1135_1295" x1="31.5" y1="29.7501" x2="40.2721" y2="29.7501" gradientUnits="userSpaceOnUse">
<stop stop-color="#12AFFC"/>
<stop offset="1" stop-color="#7B28FF"/>
</linearGradient>
<linearGradient id="paint2_linear_1135_1295" x1="21.272" y1="31.2501" x2="13.9999" y2="31.2501" gradientUnits="userSpaceOnUse">
<stop stop-color="#12AFFC"/>
<stop offset="1" stop-color="#7B28FF"/>
</linearGradient>
<linearGradient id="paint3_linear_1135_1295" x1="21.272" y1="31.2501" x2="13.9999" y2="31.2501" gradientUnits="userSpaceOnUse">
<stop stop-color="#12AFFC"/>
<stop offset="1" stop-color="#7B28FF"/>
</linearGradient>
<linearGradient id="paint4_linear_1135_1295" x1="-0.00268555" y1="22.5017" x2="41.2713" y2="22.5017" gradientUnits="userSpaceOnUse">
<stop stop-color="#12AFFC"/>
<stop offset="1" stop-color="#7B28FF"/>
</linearGradient>
<clipPath id="clip0_1135_1295">
<rect width="41.248" height="45.002" fill="white"/>
</clipPath>
</defs>
</svg>
