<svg width="74" height="74" viewBox="0 0 74 74" fill="none" xmlns="http://www.w3.org/2000/svg">
<path d="M26.8771 20.5696L53.4246 47.1171C54.8988 48.5913 54.4478 51.083 52.5516 51.9444L44.4925 55.604L34.5141 60.1365L25.6283 64.166L15.6556 68.6985L9.72986 71.3868C9.07666 71.6846 8.34814 71.7761 7.64157 71.6491C6.935 71.522 6.284 71.1824 5.77548 70.6757L3.31845 68.2187C2.8117 67.7101 2.47213 67.0592 2.34507 66.3526C2.21801 65.646 2.30951 64.9175 2.60736 64.2643L7.44627 53.6037L13.1061 41.1451L18.1474 30.0393L22.0497 21.4426C22.5989 20.2459 23.7899 19.6273 24.9635 19.7024C25.6514 19.7487 26.3336 20.0262 26.8771 20.5696Z" fill="#FFD243"/>
<path d="M13.1061 41.1452L25.6283 64.1661L15.6557 68.6929L7.44629 53.6038L13.1061 41.1452ZM24.9635 19.6967L44.4925 55.5983L34.5141 60.1308L18.1474 30.0394L22.0497 21.4427C22.5932 20.246 23.7841 19.6216 24.9635 19.6967Z" fill="#DA2C38"/>
</svg>
