<svg width="140" height="140" viewBox="0 0 140 140" fill="none" xmlns="http://www.w3.org/2000/svg">
<g clip-path="url(#clip0_1291_37470)">
<path d="M119.655 113.903C130.817 105.379 142.361 89.9648 126.297 62.142C115.204 42.9275 105.85 47.9817 98.5973 24.8811C93.3117 8.04677 73.7799 -0.449423 57.2653 6.33661C39.4496 13.6573 38.7753 29.9911 27.1462 41.8813C14.6025 54.707 -13.0573 74.6866 -2.29941 93.3198C9.56288 113.866 26.0738 105.748 51.2021 108.984C75.3805 112.098 95.9747 131.989 119.655 113.903Z" fill="url(#paint0_linear_1291_37470)"/>
<path opacity="0.1" d="M117.302 91.0648L112.384 90.2834C112.018 89.0986 111.542 87.9507 110.962 86.8549L113.888 82.8228C114.192 82.405 114.336 81.8927 114.295 81.378C114.255 80.8633 114.032 80.38 113.667 80.0149L109.479 75.8269C109.114 75.4618 108.63 75.239 108.116 75.1983C107.601 75.1577 107.089 75.302 106.671 75.6053L106.557 75.6879V34.6985C106.557 33.538 105.615 32.5962 104.455 32.5962H29.321C28.1584 32.5962 27.2186 33.538 27.2186 34.6985V108.087C27.2186 109.25 28.1584 110.189 29.321 110.189H72.4333C72.3262 110.562 72.3209 110.956 72.4176 111.331C72.5144 111.706 72.7099 112.048 72.9837 112.322L77.1715 116.51C77.5366 116.875 78.0199 117.098 78.5346 117.139C79.0493 117.179 79.5616 117.035 79.9794 116.732L84.0115 113.805C85.1073 114.386 86.2552 114.862 87.44 115.228L88.2212 120.146C88.3022 120.656 88.5624 121.12 88.9551 121.455C89.3478 121.79 89.8472 121.975 90.3635 121.975H96.2862C97.3527 121.975 98.2612 121.199 98.4285 120.146L99.21 115.227C100.395 114.861 101.542 114.385 102.638 113.805L106.671 116.732C107.088 117.035 107.601 117.179 108.115 117.139C108.63 117.098 109.113 116.875 109.478 116.51L113.666 112.322C114.031 111.957 114.254 111.474 114.295 110.959C114.335 110.444 114.191 109.932 113.888 109.514L110.961 105.482C111.542 104.386 112.018 103.238 112.384 102.054L117.302 101.272C117.812 101.191 118.276 100.931 118.611 100.538C118.946 100.146 119.13 99.6463 119.13 99.1301V93.2073C119.131 92.691 118.947 92.1915 118.612 91.7988C118.276 91.406 117.812 91.1457 117.302 91.0648Z" fill="#0000CC"/>
<path d="M106.557 29.6529V103.041C106.557 104.204 105.615 105.144 104.454 105.144H29.321C28.1584 105.144 27.2186 104.204 27.2186 103.041V29.6529C27.2186 28.4924 28.1584 27.5505 29.321 27.5505H104.454C105.615 27.5505 106.557 28.4922 106.557 29.6529Z" fill="#4D4DFF"/>
<path d="M102.638 78.5323C101.543 77.9511 100.396 77.4746 99.2112 77.109L98.4292 72.1916C98.261 71.1383 97.3528 70.3625 96.2869 70.3625H90.3646C89.2966 70.3625 88.3884 71.1383 88.2223 72.1916L87.4402 77.109C86.2551 77.4746 85.107 77.9511 84.0113 78.5323L79.979 75.6058C79.1171 74.9793 77.925 75.0718 77.1724 75.8265L72.9845 80.0144C72.6192 80.3794 72.396 80.8628 72.3551 81.3777C72.3143 81.8925 72.4584 82.4051 72.7617 82.8231L75.6881 86.8554C75.1082 87.9514 74.6324 89.0994 74.2669 90.2843L69.3475 91.0643C68.2942 91.2325 67.5184 92.1407 67.5184 93.2066V99.1289C67.5184 100.197 68.2942 101.105 69.3475 101.271L74.2669 102.053C74.5958 103.116 75.0128 104.15 75.5136 105.144H88.0226C84.9574 103.329 82.9013 99.9887 82.9013 96.1688C82.9013 90.4105 87.5685 85.7433 93.3247 85.7433C99.083 85.7433 103.75 90.4105 103.75 96.1688C103.75 99.9887 101.694 103.329 98.6289 105.144H104.454C105.615 105.144 106.557 104.204 106.557 103.041V75.6878L102.638 78.5323Z" fill="#2C27FF"/>
<path d="M78.4381 89.4412V105.144H46.1167V89.4412C46.1167 88.2786 47.0564 87.3389 48.219 87.3389H76.3358C77.4963 87.3389 78.4381 88.2788 78.4381 89.4412Z" fill="#FFC599"/>
<path d="M76.3357 87.3389H75.4422C74.9754 88.2807 74.5802 89.2646 74.2669 90.2843L69.3475 91.0642C68.2942 91.2324 67.5184 92.1406 67.5184 93.2065V99.1288C67.5184 100.197 68.2942 101.105 69.3475 101.271L74.2669 102.053C74.5958 103.116 75.0128 104.15 75.5136 105.144H78.438V89.4412C78.438 88.2788 77.4961 87.3389 76.3357 87.3389Z" fill="#FFAB66"/>
<path d="M39.6126 27.5498H29.32C28.1574 27.5498 27.2177 28.4917 27.2177 29.6521V103.041C27.2177 104.203 28.1574 105.143 29.32 105.143H39.6126V27.5498Z" fill="#B3B3FF"/>
<path d="M35.3009 52.5911H32.3703C32.0915 52.5911 31.8241 52.4804 31.627 52.2832C31.4298 52.0861 31.3191 51.8187 31.3191 51.5399V48.6093C31.3191 48.3305 31.4298 48.0631 31.627 47.866C31.8241 47.6689 32.0915 47.5581 32.3703 47.5581H35.3009C35.5797 47.5581 35.8471 47.6689 36.0442 47.866C36.2413 48.0631 36.3521 48.3305 36.3521 48.6093V51.5399C36.3521 51.8187 36.2413 52.0861 36.0442 52.2832C35.8471 52.4804 35.5797 52.5911 35.3009 52.5911ZM35.3009 61.9503H32.3703C32.0915 61.9503 31.8241 61.8396 31.627 61.6424C31.4298 61.4453 31.3191 61.1779 31.3191 60.8991V57.9685C31.3191 57.6897 31.4298 57.4223 31.627 57.2252C31.8241 57.0281 32.0915 56.9173 32.3703 56.9173H35.3009C35.5797 56.9173 35.8471 57.0281 36.0442 57.2252C36.2413 57.4223 36.3521 57.6897 36.3521 57.9685V60.8991C36.3521 61.1779 36.2413 61.4453 36.0442 61.6424C35.8471 61.8396 35.5797 61.9503 35.3009 61.9503ZM35.3009 71.3095H32.3703C32.0915 71.3095 31.8241 71.1988 31.627 71.0016C31.4298 70.8045 31.3191 70.5371 31.3191 70.2583V67.3277C31.3191 67.0489 31.4298 66.7815 31.627 66.5844C31.8241 66.3873 32.0915 66.2765 32.3703 66.2765H35.3009C35.5797 66.2765 35.8471 66.3873 36.0442 66.5844C36.2413 66.7815 36.3521 67.0489 36.3521 67.3277V70.2583C36.3521 70.5371 36.2413 70.8045 36.0442 71.0016C35.8471 71.1988 35.5797 71.3095 35.3009 71.3095Z" fill="#FFC599"/>
<path d="M106.555 43.6865V29.6519C106.555 28.4908 105.614 27.5496 104.453 27.5496H29.3191C28.158 27.5496 27.2168 28.4908 27.2168 29.6519V43.6865H106.555Z" fill="#FF9D33"/>
<path d="M85.5528 38.8761H35.8444C35.5656 38.8761 35.2982 38.7653 35.1011 38.5682C34.904 38.3711 34.7932 38.1037 34.7932 37.8249V33.8319C34.7932 33.5531 34.904 33.2858 35.1011 33.0886C35.2982 32.8915 35.5656 32.7808 35.8444 32.7808H85.5526C85.8314 32.7808 86.0987 32.8915 86.2959 33.0886C86.493 33.2858 86.6037 33.5531 86.6037 33.8319V37.8249C86.6038 37.9629 86.5766 38.0996 86.5238 38.2272C86.471 38.3547 86.3936 38.4706 86.296 38.5682C86.1984 38.6658 86.0825 38.7432 85.955 38.7961C85.8275 38.8489 85.6908 38.8761 85.5528 38.8761Z" fill="#FFC599"/>
<path d="M92.4453 34.8831C93.0259 34.8831 93.4965 34.4125 93.4965 33.8319C93.4965 33.2514 93.0259 32.7808 92.4453 32.7808C91.8648 32.7808 91.3942 33.2514 91.3942 33.8319C91.3942 34.4125 91.8648 34.8831 92.4453 34.8831Z" fill="white"/>
<path d="M92.4453 38.876C93.0259 38.876 93.4965 38.4054 93.4965 37.8249C93.4965 37.2443 93.0259 36.7737 92.4453 36.7737C91.8648 36.7737 91.3942 37.2443 91.3942 37.8249C91.3942 38.4054 91.8648 38.876 92.4453 38.876Z" fill="white"/>
<path d="M96.083 34.8831C96.6636 34.8831 97.1342 34.4125 97.1342 33.8319C97.1342 33.2514 96.6636 32.7808 96.083 32.7808C95.5025 32.7808 95.0319 33.2514 95.0319 33.8319C95.0319 34.4125 95.5025 34.8831 96.083 34.8831Z" fill="white"/>
<path d="M96.083 38.876C96.6636 38.876 97.1342 38.4054 97.1342 37.8249C97.1342 37.2443 96.6636 36.7737 96.083 36.7737C95.5025 36.7737 95.0319 37.2443 95.0319 37.8249C95.0319 38.4054 95.5025 38.876 96.083 38.876Z" fill="white"/>
<path d="M99.7207 34.8831C100.301 34.8831 100.772 34.4125 100.772 33.8319C100.772 33.2514 100.301 32.7808 99.7207 32.7808C99.1402 32.7808 98.6696 33.2514 98.6696 33.8319C98.6696 34.4125 99.1402 34.8831 99.7207 34.8831Z" fill="white"/>
<path d="M99.7207 38.876C100.301 38.876 100.772 38.4054 100.772 37.8249C100.772 37.2443 100.301 36.7737 99.7207 36.7737C99.1402 36.7737 98.6696 37.2443 98.6696 37.8249C98.6696 38.4054 99.1402 38.876 99.7207 38.876Z" fill="white"/>
<path d="M117.302 86.0191L112.384 85.2378C112.018 84.053 111.542 82.9052 110.962 81.8093L113.888 77.7773C114.192 77.3594 114.336 76.8471 114.295 76.3325C114.255 75.8178 114.032 75.3345 113.667 74.9694L109.479 70.7813C109.114 70.4163 108.63 70.1934 108.116 70.1528C107.601 70.1122 107.089 70.2565 106.671 70.5597L102.639 73.4862C101.543 72.9058 100.395 72.4296 99.2103 72.0637L98.429 67.1457C98.348 66.6358 98.0878 66.1715 97.6951 65.8363C97.3024 65.5011 96.8031 65.3169 96.2868 65.3169H90.364C89.8477 65.3169 89.3484 65.5011 88.9557 65.8363C88.563 66.1715 88.3028 66.6358 88.2217 67.1457L87.4405 72.0635C86.2556 72.4293 85.1077 72.9056 84.0118 73.486L79.9799 70.5595C79.5621 70.2563 79.0498 70.112 78.5351 70.1526C78.0205 70.1932 77.5371 70.416 77.1721 70.7811L72.984 74.9692C72.6189 75.3342 72.396 75.8176 72.3554 76.3322C72.3148 76.8469 72.4591 77.3592 72.7624 77.7771L75.6891 81.8091C75.1088 82.9049 74.6327 84.0527 74.2668 85.2374L69.3486 86.0189C68.8387 86.0999 68.3744 86.3601 68.0392 86.7528C67.704 87.1455 67.5198 87.6448 67.5198 88.1611V94.0839C67.5198 95.1504 68.2951 96.0588 69.3486 96.2262L74.2666 97.0074C74.6325 98.1922 75.1087 99.3401 75.6891 100.436L72.7626 104.468C72.4593 104.886 72.3151 105.398 72.3557 105.913C72.3963 106.427 72.6191 106.911 72.9842 107.276L77.1723 111.464C77.5373 111.829 78.0207 112.052 78.5353 112.092C79.05 112.133 79.5623 111.989 79.9801 111.686L84.0122 108.759C85.108 109.339 86.2559 109.816 87.4407 110.181L88.222 115.1C88.303 115.609 88.5632 116.074 88.9559 116.409C89.3486 116.744 89.8479 116.928 90.3642 116.928H96.287C97.3535 116.928 98.2619 116.153 98.4292 115.1L99.2107 110.181C100.395 109.815 101.543 109.339 102.639 108.759L106.671 111.686C107.089 111.989 107.601 112.133 108.116 112.092C108.631 112.052 109.114 111.829 109.479 111.464L113.667 107.276C114.032 106.911 114.255 106.427 114.296 105.913C114.336 105.398 114.192 104.886 113.889 104.468L110.962 100.436C111.543 99.3403 112.019 98.1923 112.385 97.0074L117.303 96.2262C117.813 96.1451 118.277 95.8849 118.612 95.4922C118.947 95.0995 119.131 94.6002 119.131 94.0839V88.1614C119.131 87.645 118.947 87.1457 118.612 86.753C118.276 86.3603 117.812 86.1001 117.302 86.0191ZM103.75 91.124C103.75 96.8802 99.0829 101.548 93.3239 101.548C87.5677 101.548 82.9003 96.8802 82.9003 91.124C82.9003 85.3652 87.5677 80.6976 93.3239 80.6976C99.0829 80.6976 103.75 85.3652 103.75 91.124Z" fill="#9494FF"/>
<path d="M92.7712 111.939L91.9025 106.471C92.849 106.558 93.8015 106.558 94.748 106.471L93.8794 111.939H92.7712ZM103.166 102.978C103.898 102.369 104.572 101.695 105.18 100.964L108.437 105.451L107.653 106.234L103.166 102.978ZM78.2138 105.451L81.4701 100.964C82.0784 101.695 82.7524 102.369 83.4837 102.978L78.9973 106.234L78.2138 105.451ZM72.5084 91.6768V90.5687L77.9764 89.7C77.8894 90.6465 77.8893 91.599 77.9762 92.5455L72.5084 91.6768ZM108.674 92.5453C108.761 91.5989 108.761 90.6465 108.674 89.7L114.142 90.5687V91.6768L108.674 92.5453ZM105.18 81.2818C104.572 80.5504 103.897 79.8763 103.166 79.268L107.653 76.0112L108.437 76.7948L105.18 81.2818ZM78.2138 76.795L78.9975 76.0112L83.4841 79.2678C82.7528 79.8762 82.0787 80.5503 81.4705 81.2818L78.2138 76.795ZM94.748 75.7739C94.2792 75.7306 93.8041 75.7087 93.3241 75.7087C92.8448 75.7087 92.3709 75.7306 91.9027 75.7737L92.7714 70.3059H93.8796L94.748 75.7739Z" fill="#B3B3FF"/>
<path d="M66.411 104.092H29.3192C28.7395 104.092 28.268 103.621 28.268 103.041V29.652C28.268 29.0724 28.7395 28.6009 29.3192 28.6009H104.453C105.033 28.6009 105.504 29.0724 105.504 29.652V64.2284C105.504 64.8091 105.975 65.2796 106.555 65.2796C107.136 65.2796 107.607 64.8091 107.607 64.2284V29.652C107.607 27.9132 106.192 26.4985 104.453 26.4985H29.3192C27.5803 26.4985 26.1656 27.9132 26.1656 29.652V103.041C26.1656 104.78 27.5803 106.195 29.3192 106.195H66.411C66.9917 106.195 67.4622 105.724 67.4622 105.144C67.4622 104.563 66.9917 104.092 66.411 104.092Z" fill="#0000CC"/>
<path d="M117.467 84.9809L113.184 84.3008C112.903 83.4828 112.571 82.683 112.191 81.906L114.739 78.3947C115.192 77.7754 115.408 77.0142 115.348 76.2494C115.287 75.4845 114.955 74.7666 114.41 74.2262L110.222 70.0383C109.682 69.4936 108.964 69.1608 108.199 69.1004C107.434 69.04 106.673 69.2559 106.054 69.7091L102.542 72.2577C101.765 71.8774 100.965 71.5455 100.147 71.264L99.4672 66.9811C99.3497 66.2228 98.9642 65.5318 98.3806 65.0336C97.797 64.5354 97.0541 64.263 96.2868 64.2659H90.364C89.5967 64.263 88.8538 64.5354 88.2701 65.0336C87.6865 65.5318 87.3009 66.2228 87.1834 66.9811L86.5033 71.2637C85.6852 71.5453 84.8854 71.8772 84.1083 72.2575L80.5974 69.7093C79.9783 69.2559 79.217 69.0398 78.452 69.1002C77.687 69.1606 76.969 69.4934 76.4287 70.0383L72.2408 74.2262C71.6961 74.7666 71.3633 75.4844 71.3029 76.2493C71.2425 77.0143 71.4585 77.7755 71.9116 78.3947L74.4605 81.9062C74.08 82.6831 73.7481 83.4828 73.4667 84.3008L69.1836 84.9809C68.4253 85.0984 67.7342 85.484 67.236 86.0676C66.7378 86.6512 66.4654 87.3942 66.4684 88.1615V94.0842C66.4655 94.8516 66.7379 95.5945 67.2361 96.1781C67.7343 96.7616 68.4253 97.1472 69.1836 97.2647L73.4665 97.945C73.7479 98.763 74.0798 99.5628 74.4602 100.34L71.9118 103.851C71.4586 104.47 71.2426 105.231 71.303 105.996C71.3634 106.761 71.6961 107.479 72.2408 108.02L76.4287 112.207C77.5549 113.334 79.3078 113.472 80.5974 112.537L84.1085 109.988C84.8855 110.368 85.6853 110.7 86.5033 110.982L87.1834 115.265C87.3009 116.023 87.6865 116.714 88.2701 117.212C88.8537 117.71 89.5967 117.983 90.364 117.98H96.2868C97.0541 117.983 97.797 117.71 98.3806 117.212C98.9642 116.714 99.3497 116.023 99.4672 115.265L100.147 110.981C100.965 110.7 101.765 110.368 102.542 109.988L106.054 112.537C106.673 112.99 107.434 113.206 108.199 113.145C108.964 113.085 109.682 112.752 110.222 112.207L114.41 108.02C114.955 107.479 115.287 106.761 115.348 105.996C115.408 105.232 115.192 104.47 114.739 103.851L112.191 100.34C112.571 99.5628 112.903 98.763 113.185 97.945L117.467 97.2647C118.225 97.1472 118.916 96.7616 119.415 96.1781C119.913 95.5945 120.185 94.8516 120.182 94.0842V88.1615C120.185 87.3942 119.913 86.6512 119.415 86.0676C118.917 85.484 118.226 85.0984 117.467 84.9809ZM118.08 94.084C118.081 94.3504 117.987 94.6083 117.814 94.8108C117.641 95.0134 117.401 95.1472 117.138 95.188L112.22 95.9694C112.026 96.0003 111.844 96.0849 111.696 96.2137C111.547 96.3424 111.438 96.5102 111.38 96.6979C111.033 97.8198 110.582 98.9067 110.033 99.9445C109.941 100.118 109.9 100.314 109.914 100.51C109.927 100.706 109.996 100.894 110.111 101.054L113.038 105.086C113.195 105.301 113.27 105.565 113.249 105.83C113.228 106.096 113.113 106.345 112.924 106.533L108.736 110.721C108.548 110.91 108.299 111.026 108.033 111.046C107.768 111.067 107.503 110.992 107.288 110.835L103.256 107.908C103.097 107.793 102.909 107.724 102.713 107.711C102.517 107.697 102.321 107.738 102.147 107.83C101.109 108.379 100.022 108.83 98.9006 109.177C98.7129 109.235 98.5452 109.344 98.4164 109.493C98.2877 109.641 98.203 109.822 98.1721 110.016L97.3907 114.935C97.35 115.198 97.2162 115.438 97.0136 115.611C96.811 115.784 96.5531 115.878 96.2868 115.877H90.364C90.0977 115.878 89.8397 115.784 89.6371 115.611C89.4345 115.438 89.3007 115.198 89.2599 114.935L88.4787 110.017C88.4478 109.823 88.3631 109.641 88.2344 109.493C88.1056 109.345 87.9379 109.235 87.7502 109.177C86.6283 108.831 85.5414 108.38 84.5036 107.83C84.3299 107.738 84.1338 107.697 83.9378 107.711C83.7417 107.724 83.5534 107.793 83.3944 107.908L79.3625 110.835C79.1475 110.992 78.8832 111.067 78.6176 111.047C78.352 111.026 78.1027 110.91 77.915 110.721L73.7272 106.533C73.538 106.345 73.4225 106.096 73.4016 105.831C73.3806 105.565 73.4556 105.301 73.613 105.086L76.5395 101.054C76.6549 100.895 76.7234 100.706 76.7373 100.51C76.7512 100.314 76.7098 100.118 76.6179 99.9447C76.0686 98.9068 75.6176 97.8198 75.2709 96.6979C75.2129 96.5102 75.1035 96.3424 74.9551 96.2137C74.8067 96.0849 74.6253 96.0003 74.4312 95.9694L69.5132 95.188C69.25 95.1473 69.0101 95.0135 68.8372 94.8109C68.6642 94.6083 68.5697 94.3504 68.5707 94.084V88.1613C68.5697 87.8949 68.6642 87.637 68.8371 87.4344C69.0101 87.2318 69.25 87.0979 69.5132 87.0572L74.4314 86.2759C74.6255 86.245 74.807 86.1604 74.9554 86.0317C75.1038 85.9029 75.2131 85.7352 75.2711 85.5475C75.6178 84.4256 76.0688 83.3386 76.6181 82.3008C76.71 82.1272 76.7514 81.9312 76.7375 81.7352C76.7236 81.5392 76.6551 81.3511 76.5397 81.1921L73.6128 77.1596C73.4555 76.9446 73.3805 76.6803 73.4015 76.4147C73.4225 76.1492 73.5381 75.8999 73.7272 75.7123L77.915 71.5244C78.1027 71.3353 78.3519 71.2198 78.6175 71.1988C78.883 71.1779 79.1473 71.2529 79.3623 71.4103L83.3941 74.3367C83.5532 74.4522 83.7415 74.5208 83.9375 74.5346C84.1336 74.5485 84.3297 74.507 84.5033 74.4149C85.5413 73.8657 86.6283 73.4148 87.7502 73.068C87.9379 73.01 88.1056 72.9006 88.2344 72.7522C88.3631 72.6038 88.4478 72.4223 88.4787 72.2283L89.2599 67.3105C89.3006 67.0472 89.4345 66.8073 89.6371 66.6344C89.8397 66.4614 90.0976 66.3669 90.364 66.368H96.2868C96.5531 66.367 96.811 66.4615 97.0136 66.6345C97.2161 66.8074 97.3499 67.0473 97.3907 67.3105L98.1721 72.2285C98.203 72.4225 98.2877 72.604 98.4164 72.7524C98.5452 72.9008 98.7129 73.0102 98.9006 73.0682C100.022 73.4149 101.109 73.8658 102.147 74.4152C102.321 74.5072 102.517 74.5487 102.713 74.5348C102.909 74.521 103.097 74.4525 103.256 74.3369L107.289 71.4101C107.504 71.2529 107.768 71.1781 108.033 71.1991C108.299 71.2201 108.548 71.3355 108.736 71.5244L112.924 75.7123C113.113 75.9 113.228 76.1492 113.249 76.4148C113.27 76.6803 113.195 76.9446 113.038 77.1596L110.111 81.1916C109.996 81.3507 109.927 81.539 109.913 81.735C109.9 81.9311 109.941 82.1271 110.033 82.3008C110.582 83.3386 111.033 84.4256 111.38 85.5475C111.438 85.7352 111.547 85.9029 111.695 86.0317C111.844 86.1604 112.025 86.245 112.219 86.2759L117.138 87.0572C117.401 87.0979 117.641 87.2317 117.814 87.4343C117.987 87.637 118.081 87.8949 118.08 88.1613V94.084Z" fill="#0000CC"/>
<path d="M93.3242 79.6467C86.9969 79.6467 81.8494 84.7954 81.8494 91.124C81.8494 97.4515 86.9969 102.599 93.3242 102.599C99.653 102.599 104.802 97.4515 104.802 91.124C104.801 84.7954 99.6528 79.6467 93.3242 79.6467ZM93.3242 100.496C88.1562 100.496 83.9517 96.292 83.9517 91.1238C83.9517 85.9544 88.1562 81.7489 93.3242 81.7489C98.4936 81.7489 102.699 85.9544 102.699 91.1238C102.699 96.292 98.4936 100.496 93.3242 100.496Z" fill="#0000CC"/>
<path d="M51.0736 50.0748H47.1668C46.888 50.0748 46.6206 49.964 46.4235 49.7669C46.2263 49.5697 46.1156 49.3024 46.1156 49.0236C46.1156 48.7448 46.2263 48.4774 46.4235 48.2803C46.6206 48.0832 46.888 47.9724 47.1668 47.9724H51.0736C51.3523 47.9724 51.6197 48.0832 51.8168 48.2803C52.014 48.4774 52.1247 48.7448 52.1247 49.0236C52.1247 49.3024 52.014 49.5697 51.8168 49.7669C51.6197 49.964 51.3523 50.0748 51.0736 50.0748Z" fill="#FF6C6C"/>
<path d="M63.6876 54.3594H47.1668C46.888 54.3594 46.6206 54.2487 46.4235 54.0515C46.2263 53.8544 46.1156 53.587 46.1156 53.3083C46.1156 53.0295 46.2263 52.7621 46.4235 52.565C46.6206 52.3678 46.888 52.2571 47.1668 52.2571H63.6876C63.9664 52.2571 64.2338 52.3678 64.4309 52.565C64.628 52.7621 64.7388 53.0295 64.7388 53.3083C64.7388 53.587 64.628 53.8544 64.4309 54.0515C64.2338 54.2487 63.9664 54.3594 63.6876 54.3594Z" fill="#FFAB66"/>
<path d="M55.2782 58.6443H47.1668C46.888 58.6443 46.6206 58.5336 46.4235 58.3365C46.2263 58.1393 46.1156 57.872 46.1156 57.5932C46.1156 57.3144 46.2263 57.047 46.4235 56.8499C46.6206 56.6527 46.888 56.542 47.1668 56.542H55.2782C55.557 56.542 55.8244 56.6527 56.0215 56.8499C56.2187 57.047 56.3294 57.3144 56.3294 57.5932C56.3294 57.872 56.2187 58.1393 56.0215 58.3365C55.8244 58.5336 55.557 58.6443 55.2782 58.6443Z" fill="#9494FF"/>
<path d="M86.4942 54.3594H68.712C68.4332 54.3594 68.1658 54.2487 67.9687 54.0515C67.7716 53.8544 67.6608 53.587 67.6608 53.3083C67.6608 53.0295 67.7716 52.7621 67.9687 52.565C68.1658 52.3678 68.4332 52.2571 68.712 52.2571H86.4942C86.773 52.2571 87.0404 52.3678 87.2375 52.565C87.4347 52.7621 87.5454 53.0295 87.5454 53.3083C87.5454 53.587 87.4347 53.8544 87.2375 54.0515C87.0404 54.2487 86.773 54.3594 86.4942 54.3594ZM78.0849 58.6444H60.3026C60.0238 58.6444 59.7565 58.5337 59.5593 58.3365C59.3622 58.1394 59.2515 57.872 59.2515 57.5932C59.2515 57.3145 59.3622 57.0471 59.5593 56.85C59.7565 56.6528 60.0238 56.5421 60.3026 56.5421H78.0849C78.3636 56.5421 78.631 56.6528 78.8282 56.85C79.0253 57.0471 79.136 57.3145 79.136 57.5932C79.136 57.872 79.0253 58.1394 78.8282 58.3365C78.631 58.5337 78.3636 58.6444 78.0849 58.6444ZM63.6876 62.9292H47.1668C46.888 62.9292 46.6206 62.8185 46.4235 62.6213C46.2263 62.4242 46.1156 62.1568 46.1156 61.878C46.1156 61.5992 46.2263 61.3319 46.4235 61.1347C46.6206 60.9376 46.888 60.8269 47.1668 60.8269H63.6876C63.9664 60.8269 64.2338 60.9376 64.4309 61.1347C64.628 61.3319 64.7388 61.5992 64.7388 61.878C64.7388 62.1568 64.628 62.4242 64.4309 62.6213C64.2338 62.8185 63.9664 62.9292 63.6876 62.9292Z" fill="#FFAB66"/>
<path d="M55.2782 67.2142H47.1668C46.888 67.2142 46.6206 67.1034 46.4235 66.9063C46.2263 66.7091 46.1156 66.4418 46.1156 66.163C46.1156 65.8842 46.2263 65.6168 46.4235 65.4197C46.6206 65.2226 46.888 65.1118 47.1668 65.1118H55.2782C55.557 65.1118 55.8244 65.2226 56.0215 65.4197C56.2187 65.6168 56.3294 65.8842 56.3294 66.163C56.3294 66.4418 56.2187 66.7091 56.0215 66.9063C55.8244 67.1034 55.557 67.2142 55.2782 67.2142Z" fill="#9494FF"/>
<path d="M86.4942 62.9292H68.7119C68.4331 62.9292 68.1658 62.8185 67.9686 62.6214C67.7715 62.4242 67.6608 62.1569 67.6608 61.8781C67.6608 61.5993 67.7715 61.3319 67.9686 61.1348C68.1658 60.9377 68.4331 60.8269 68.7119 60.8269H86.4942C86.773 60.8269 87.0403 60.9377 87.2375 61.1348C87.4346 61.3319 87.5453 61.5993 87.5453 61.8781C87.5453 62.1569 87.4346 62.4242 87.2375 62.6214C87.0403 62.8185 86.773 62.9292 86.4942 62.9292Z" fill="#FFAB66"/>
<path d="M78.0849 67.2142H60.3026C60.0238 67.2142 59.7565 67.1034 59.5593 66.9063C59.3622 66.7091 59.2515 66.4418 59.2515 66.163C59.2515 65.8842 59.3622 65.6168 59.5593 65.4197C59.7565 65.2226 60.0238 65.1118 60.3026 65.1118H78.0849C78.3637 65.1118 78.631 65.2226 78.8282 65.4197C79.0253 65.6168 79.136 65.8842 79.136 66.163C79.136 66.4418 79.0253 66.7091 78.8282 66.9063C78.631 67.1034 78.3637 67.2142 78.0849 67.2142Z" fill="#9494FF"/>
<path d="M50.4258 83.687C50.2877 83.6872 50.151 83.6601 50.0234 83.6073C49.8959 83.5544 49.78 83.4769 49.6826 83.379L46.4235 80.12C46.3259 80.0224 46.2485 79.9066 46.1956 79.779C46.1428 79.6515 46.1156 79.5149 46.1156 79.3768C46.1156 79.2388 46.1428 79.1021 46.1956 78.9746C46.2485 78.8471 46.3259 78.7312 46.4235 78.6336L49.6826 75.3746C49.7802 75.277 49.896 75.1995 50.0235 75.1467C50.1511 75.0938 50.2877 75.0667 50.4258 75.0667C50.5638 75.0667 50.7005 75.0938 50.828 75.1467C50.9555 75.1995 51.0714 75.277 51.1689 75.3746C51.2666 75.4722 51.344 75.588 51.3969 75.7155C51.4497 75.8431 51.4769 75.9797 51.4769 76.1178C51.4769 76.2558 51.4497 76.3925 51.3969 76.52C51.344 76.6475 51.2666 76.7634 51.1689 76.8609L48.6533 79.3768L51.1689 81.8927C51.2666 81.9903 51.344 82.1061 51.3969 82.2336C51.4497 82.3612 51.4769 82.4978 51.4769 82.6359C51.4769 82.7739 51.4497 82.9106 51.3969 83.0381C51.344 83.1656 51.2666 83.2815 51.1689 83.379C51.0715 83.4769 50.9557 83.5544 50.8281 83.6073C50.7006 83.6601 50.5638 83.6872 50.4258 83.687ZM58.7674 83.687C58.6294 83.6872 58.4926 83.6601 58.3651 83.6073C58.2375 83.5544 58.1217 83.4769 58.0243 83.379C57.9266 83.2815 57.8492 83.1656 57.7964 83.0381C57.7435 82.9106 57.7163 82.7739 57.7163 82.6359C57.7163 82.4978 57.7435 82.3612 57.7964 82.2336C57.8492 82.1061 57.9266 81.9903 58.0243 81.8927L60.5399 79.3768L58.0243 76.8612C57.9266 76.7636 57.8492 76.6477 57.7964 76.5202C57.7435 76.3927 57.7163 76.256 57.7163 76.118C57.7163 75.98 57.7435 75.8433 57.7964 75.7158C57.8492 75.5882 57.9266 75.4724 58.0243 75.3748C58.1218 75.2772 58.2377 75.1997 58.3652 75.1469C58.4927 75.0941 58.6294 75.0669 58.7674 75.0669C58.9055 75.0669 59.0422 75.0941 59.1697 75.1469C59.2972 75.1997 59.413 75.2772 59.5106 75.3748L62.7697 78.6339C62.8673 78.7314 62.9447 78.8473 62.9976 78.9748C63.0504 79.1023 63.0776 79.239 63.0776 79.377C63.0776 79.5151 63.0504 79.6517 62.9976 79.7793C62.9447 79.9068 62.8673 80.0226 62.7697 80.1202L59.5106 83.3793C59.4131 83.477 59.2973 83.5545 59.1697 83.6073C59.0422 83.6601 58.9055 83.6872 58.7674 83.687Z" fill="white"/>
<path d="M24.946 25.8677C24.6673 25.8677 24.3999 25.757 24.2028 25.5598C24.0056 25.3627 23.8949 25.0953 23.8949 24.8165C23.8944 24.4635 23.754 24.1251 23.5044 23.8755C23.2547 23.6259 22.9163 23.4855 22.5633 23.4851C21.9826 23.4851 21.5121 23.0146 21.5121 22.434C21.5121 21.8533 21.9826 21.3828 22.5633 21.3828C22.9163 21.3823 23.2547 21.2419 23.5044 20.9923C23.754 20.7426 23.8944 20.4042 23.8949 20.0512C23.8949 19.4705 24.3654 19 24.946 19C25.5267 19 25.9972 19.4705 25.9972 20.0512C25.9976 20.4042 26.138 20.7426 26.3876 20.9923C26.6372 21.2419 26.9756 21.3823 27.3286 21.3828C27.9093 21.3828 28.3798 21.8533 28.3798 22.434C28.3798 23.0146 27.9093 23.4851 27.3286 23.4851C26.9756 23.4855 26.6372 23.6259 26.3876 23.8755C26.138 24.1251 25.9976 24.4636 25.9972 24.8165C25.9972 25.0953 25.8865 25.3627 25.6893 25.5598C25.4922 25.757 25.2248 25.8677 24.946 25.8677Z" fill="#8383FF"/>
<path d="M114.142 47.1204C113.863 47.1204 113.596 47.0097 113.399 46.8125C113.201 46.6154 113.091 46.348 113.091 46.0692C113.09 45.7162 112.95 45.3778 112.7 45.1281C112.451 44.8785 112.112 44.7381 111.759 44.7376C111.179 44.7376 110.708 44.2671 110.708 43.6864C110.708 43.1058 111.179 42.6353 111.759 42.6353C112.112 42.6349 112.451 42.4945 112.7 42.2449C112.95 41.9953 113.09 41.6568 113.091 41.3039C113.091 40.7232 113.561 40.2527 114.142 40.2527C114.723 40.2527 115.193 40.7232 115.193 41.3039C115.194 41.6569 115.334 41.9953 115.584 42.2449C115.833 42.4945 116.172 42.6349 116.525 42.6353C117.105 42.6353 117.576 43.1058 117.576 43.6864C117.576 44.2671 117.105 44.7376 116.525 44.7376C116.172 44.7381 115.833 44.8785 115.584 45.1281C115.334 45.3778 115.194 45.7162 115.193 46.0692C115.193 46.348 115.082 46.6154 114.885 46.8125C114.688 47.0097 114.421 47.1204 114.142 47.1204Z" fill="#FF6C6C"/>
<path d="M68.7799 115.239C68.6418 115.239 68.5051 115.212 68.3776 115.159C68.25 115.106 68.1342 115.028 68.0367 114.931L66.8878 113.782L65.7389 114.931C65.6413 115.028 65.5254 115.106 65.3979 115.158C65.2704 115.211 65.1337 115.238 64.9957 115.238C64.8577 115.238 64.721 115.211 64.5935 115.158C64.466 115.106 64.3501 115.028 64.2525 114.931C64.1549 114.833 64.0775 114.717 64.0246 114.59C63.9718 114.462 63.9446 114.325 63.9446 114.187C63.9446 114.049 63.9718 113.913 64.0246 113.785C64.0775 113.658 64.1549 113.542 64.2525 113.444L66.1446 111.552C66.2422 111.454 66.3581 111.377 66.4856 111.324C66.6131 111.271 66.7498 111.244 66.8878 111.244C67.0258 111.244 67.1625 111.271 67.29 111.324C67.4175 111.377 67.5334 111.454 67.631 111.552L69.5231 113.444C69.6703 113.591 69.7705 113.778 69.8112 113.982C69.8518 114.186 69.8311 114.398 69.7515 114.59C69.6719 114.782 69.5371 114.946 69.3642 115.062C69.1912 115.177 68.9879 115.239 68.7799 115.239Z" fill="#FFAB66"/>
<path d="M116.525 68.5911C116.387 68.5913 116.25 68.5642 116.122 68.5113C115.995 68.4585 115.879 68.3809 115.781 68.2831L114.633 67.1344L113.484 68.2831C113.386 68.3807 113.27 68.4582 113.143 68.511C113.015 68.5638 112.878 68.591 112.74 68.591C112.602 68.591 112.466 68.5638 112.338 68.511C112.211 68.4582 112.095 68.3807 111.997 68.2831C111.9 68.1855 111.822 68.0696 111.769 67.9421C111.717 67.8146 111.689 67.6779 111.689 67.5399C111.689 67.4019 111.717 67.2652 111.769 67.1377C111.822 67.0102 111.9 66.8943 111.997 66.7967L113.889 64.9046C113.987 64.807 114.103 64.7295 114.23 64.6767C114.358 64.6239 114.495 64.5967 114.633 64.5967C114.771 64.5967 114.907 64.6239 115.035 64.6767C115.162 64.7295 115.278 64.807 115.376 64.9046L117.268 66.7967C117.415 66.9437 117.515 67.131 117.556 67.3349C117.597 67.5388 117.576 67.7503 117.496 67.9424C117.417 68.1345 117.282 68.2987 117.109 68.4142C116.936 68.5297 116.733 68.5912 116.525 68.5911Z" fill="#FF6C6C"/>
<path d="M58.2214 117.98C58.0834 117.98 57.9466 117.953 57.8191 117.9C57.6915 117.847 57.5757 117.77 57.4783 117.672L56.3293 116.523L55.1804 117.672C55.0828 117.77 54.967 117.847 54.8395 117.9C54.7119 117.953 54.5753 117.98 54.4372 117.98C54.2992 117.98 54.1625 117.953 54.035 117.9C53.9075 117.847 53.7916 117.77 53.694 117.672C53.5964 117.574 53.519 117.459 53.4661 117.331C53.4133 117.204 53.3861 117.067 53.3861 116.929C53.3861 116.791 53.4133 116.654 53.4661 116.527C53.519 116.399 53.5964 116.283 53.694 116.186L55.5862 114.294C55.6837 114.196 55.7996 114.118 55.9271 114.066C56.0546 114.013 56.1913 113.986 56.3293 113.986C56.4674 113.986 56.604 114.013 56.7316 114.066C56.8591 114.118 56.9749 114.196 57.0725 114.294L58.9646 116.186C59.1118 116.333 59.2121 116.52 59.2527 116.724C59.2934 116.928 59.2726 117.139 59.193 117.331C59.1134 117.523 58.9786 117.688 58.8057 117.803C58.6327 117.919 58.4294 117.98 58.2214 117.98Z" fill="#8383FF"/>
</g>
<defs>
<linearGradient id="paint0_linear_1291_37470" x1="5.16592" y1="45.0127" x2="137.172" y2="80.3836" gradientUnits="userSpaceOnUse">
<stop stop-color="#FFD8D8" stop-opacity="0"/>
<stop offset="0.998" stop-color="#FFB2B2"/>
</linearGradient>
<clipPath id="clip0_1291_37470">
<rect width="140" height="140" fill="white"/>
</clipPath>
</defs>
</svg>
