<svg width="87" height="91" viewBox="0 0 87 91" fill="none" xmlns="http://www.w3.org/2000/svg">
<g clip-path="url(#clip0_122_37)">
<g style="mix-blend-mode:multiply">
<path d="M40.7531 69.2445H32.4986L20.7182 62.4617H11.6164L0 69.1627L11.9171 76H21.0462L29.984 70.8516H40.6984L40.7531 69.2445Z" fill="#C4BCCC"/>
</g>
<path d="M48.2969 43.2302C48.0236 43.3392 47.7502 43.3936 47.4769 43.3664C46.3016 43.2574 47.2036 41.1327 47.3676 40.4789C47.5042 39.8797 47.6136 39.3076 47.7776 38.7083C47.9962 37.8911 48.3242 37.1284 48.5155 36.3112C48.5155 36.2567 48.5155 36.2022 48.5155 36.1478C48.5155 36.0933 48.4336 36.066 48.3789 36.066C48.3789 36.066 48.3242 36.0933 48.3242 36.1205C48.1602 36.3929 48.1056 36.7198 47.9416 36.9922C47.7502 37.3463 47.6136 37.7004 47.4769 38.0546C47.2036 38.8173 46.9576 39.6073 46.7389 40.3972C46.1649 42.4675 44.9623 44.456 43.869 46.3083C43.5957 46.7714 43.3497 47.2345 43.0763 47.6976C42.721 48.4058 42.065 49.3592 42.0104 50.1492C41.9557 50.7485 42.0104 51.3478 42.0377 51.947C42.0377 52.4101 41.9284 52.846 41.8737 53.309C41.7917 54.5076 42.0104 68.7542 42.1744 68.046C42.475 66.6295 42.557 52.0288 42.9943 50.6668C43.4317 49.332 43.869 48.1607 44.7163 47.0166C45.1536 46.4173 45.6729 45.709 46.2196 45.2187C46.9576 44.565 47.9689 44.2926 48.7889 43.8022C49.6089 43.3119 50.3468 42.4675 50.9482 41.732C52.2055 40.1521 53.1074 38.2997 53.9001 36.4474C54.2281 35.6302 54.5561 34.7585 54.3374 33.9141C53.5721 35.0854 53.0528 36.4202 52.5335 37.7004C51.9868 39.008 51.4128 40.2883 50.5108 41.3779C50.0462 41.9227 49.1442 42.8216 48.2422 43.1757L48.2969 43.2302Z" fill="#A25B10"/>
<path d="M42.2837 67.8008C42.2837 67.8008 42.2837 67.6373 42.2837 67.5829C42.311 67.1198 42.1743 53.4452 42.147 52.9822C42.1197 52.3829 42.065 51.7836 42.1197 51.1571C42.2017 50.3671 42.8303 49.4137 43.1857 48.7054C43.4317 48.2424 43.6776 47.752 43.951 47.3162C45.0443 45.4639 46.2469 43.4753 46.8209 41.4051C47.0396 40.6151 47.2856 39.8252 47.5589 39.0624C47.6409 38.8173 47.7502 38.5721 47.8596 38.327C48.0509 37.6459 48.3242 37.0194 48.4882 36.3384C48.4882 36.2839 48.4882 36.2295 48.4882 36.175C48.4882 36.1205 48.4062 36.0933 48.3515 36.0933C48.3515 36.0933 48.2969 36.1205 48.2969 36.1477C48.1329 36.4201 48.0782 36.747 47.9142 37.0194C47.7229 37.3735 47.5862 37.7277 47.4496 38.0818C47.1762 38.8445 46.9302 39.6345 46.7116 40.4244C46.1376 42.4947 44.935 44.4832 43.8416 46.3356C43.5683 46.7986 43.3223 47.2617 43.049 47.7248C42.6937 48.433 42.0377 49.3865 41.983 50.1764C41.9284 50.7757 41.983 51.375 42.0104 51.9743C42.0104 52.4373 41.901 52.8732 41.8464 53.3363C41.7644 54.5348 41.983 68.7814 42.147 68.0732C42.147 67.9642 42.2017 67.8825 42.2017 67.7735L42.2837 67.8008Z" fill="#A25B10"/>
<path d="M34.0566 41.4322C34.4666 41.6773 34.8766 41.7591 35.2045 41.4322C35.5052 41.1598 35.5052 40.6695 35.4505 40.3153C35.3959 40.0157 35.3139 39.716 35.2319 39.4164C34.9586 38.1089 34.6306 36.8286 34.3572 35.5211C33.9746 33.7777 33.5919 32.0071 33.6466 30.2092C33.7012 30.182 33.7559 30.2365 33.7559 30.3182C34.1386 31.7074 34.4939 33.0967 34.7672 34.4859C34.9312 35.3304 35.0952 36.1476 35.3685 36.992C35.5052 37.3734 35.6145 37.782 35.7512 38.1634C35.8605 38.4902 35.9425 38.8171 36.0519 39.144C36.2979 39.825 36.5438 40.506 36.8718 41.1598C37.1998 41.8408 37.5552 42.4945 37.8558 43.2028C38.2658 44.1289 38.8125 44.8917 39.3045 45.7634C39.7144 46.4444 40.3704 47.3705 40.4798 48.1605C40.5618 48.7598 40.5344 49.3591 40.5344 49.9583C40.5344 50.4214 40.6984 50.8573 40.7531 51.3203C40.8897 52.5189 41.3544 66.9562 41.6277 68.1275C41.4637 67.4465 40.9717 53.4996 40.8078 52.8186C40.4524 51.4021 40.0151 50.0945 39.4958 48.7325C39.0038 47.425 38.5118 46.2809 37.6098 45.1641C37.1452 44.592 36.5985 43.911 36.0245 43.4207C35.4505 42.9576 34.7399 42.7942 34.1112 42.4128C33.5099 42.0315 33.0179 41.5139 32.5806 40.9963C31.378 39.6071 30.1207 38.0544 29.9567 36.2293C29.984 36.6107 30.5033 37.21 30.722 37.5096C31.132 38.0816 31.5693 38.6537 31.9793 39.253C32.2799 39.6616 33.1273 40.9146 33.9746 41.4322H34.0566Z" fill="#CF5F10"/>
<path d="M34.5212 35.1125C34.6852 35.9569 34.8492 36.7741 35.1225 37.6186C35.2592 37.9999 35.3685 38.4086 35.5052 38.7899C35.6145 39.1168 35.6965 39.4437 35.8058 39.7706C36.0518 40.4516 36.2978 41.1326 36.6258 41.7863C36.9538 42.4673 37.3091 43.1211 37.6098 43.8293C38.0198 44.7555 38.5664 45.5182 39.0584 46.3899C39.4684 47.0709 40.1244 47.9971 40.2337 48.787C40.3157 49.3863 40.2884 49.9856 40.2884 50.5849C40.2884 50.7211 40.2884 50.8845 40.3157 51.0207C40.5071 51.62 40.6711 52.1921 40.8351 52.8186C40.9991 53.4996 41.491 67.4465 41.655 68.1275C41.3544 66.9562 40.9171 52.5189 40.7804 51.3204C40.7257 50.8573 40.5617 50.4215 40.5617 49.9584C40.5617 49.3591 40.5891 48.7598 40.5071 48.1605C40.3977 47.3706 39.7144 46.4444 39.3318 45.7634C38.8398 44.8917 38.2931 44.129 37.8831 43.2028C37.5825 42.5218 37.2271 41.8408 36.8991 41.1598C36.5712 40.506 36.3252 39.825 36.0792 39.144C35.9698 38.8172 35.8878 38.463 35.7785 38.1634C35.6418 37.782 35.5325 37.3734 35.3958 36.9921C35.1225 36.1476 34.9585 35.3577 34.7945 34.486C34.5212 33.0695 34.1659 31.6802 33.7832 30.3182C33.7832 30.2637 33.7012 30.182 33.6739 30.2093C33.6739 30.6724 33.6739 31.1627 33.7286 31.6258C34.0565 32.7971 34.3299 33.9684 34.5759 35.1397L34.5212 35.1125Z" fill="#CF5F10"/>
<path d="M31.7879 39.8796C31.8973 40.043 32.1159 40.3699 32.3892 40.6968C32.4712 40.8057 32.5532 40.8875 32.6352 40.9964C32.7719 41.1599 32.9359 41.3505 33.0999 41.514C33.3186 41.7319 33.5372 41.9226 33.7832 42.0588C34.1932 42.3039 34.6032 42.3857 34.9312 42.0588C35.1225 41.8953 35.1772 41.6502 35.2045 41.405C34.8765 41.7319 34.4665 41.6502 34.0565 41.405C33.2366 40.8875 32.3619 39.6616 32.0613 39.2258C31.6513 38.6538 31.2139 38.0817 30.804 37.4824C30.5853 37.1828 30.066 36.5835 30.0386 36.2021C30.0933 36.9921 30.394 37.7548 30.7766 38.4358C31.1319 38.8989 31.4599 39.3892 31.7879 39.8523V39.8796Z" fill="#C07F15"/>
<path d="M43.1583 69.8437C43.1583 69.8437 43.1583 69.9254 43.1583 69.9799C43.1583 70.0343 43.1583 70.1161 43.1037 70.1705C43.1037 70.1978 43.1037 70.225 43.0763 70.2523C42.803 70.6881 41.983 70.9877 41.081 70.9605C40.1517 70.9333 39.4137 70.5519 39.2497 70.0888C39.2497 70.0888 39.2224 69.9526 39.2224 69.8981C39.2771 69.7619 39.3591 69.6257 39.4137 69.5168C39.4684 69.4078 39.5504 69.3261 39.6051 69.2171C39.6324 69.1354 39.6871 69.0809 39.7144 68.9992C40.0151 68.3182 39.9877 48.787 40.1244 44.3741C40.1244 44.0472 40.1244 43.6931 40.1517 43.3662C40.1517 42.4128 40.1791 41.4594 40.2064 40.4788C40.2064 39.4437 40.2611 38.4358 40.3431 37.4006C40.3431 37.2372 40.3431 37.0465 40.3704 36.8831C40.3704 36.5834 40.4251 36.311 40.4524 36.0114C40.4524 35.7662 40.507 35.5483 40.5344 35.3032C40.5344 35.058 40.589 34.8401 40.6164 34.6221C40.6437 34.4042 40.671 34.1591 40.7257 33.9411C40.753 33.7232 40.8077 33.4781 40.835 33.2601C40.917 32.8243 40.999 32.3885 41.1084 31.9526C41.1357 31.8164 41.2177 31.653 41.3544 31.6257C41.3817 31.6257 41.409 31.6257 41.4364 31.6257C41.5184 31.6257 41.573 31.7347 41.6004 31.8164C41.6277 31.8981 41.655 32.0071 41.655 32.0888C41.8464 35.6573 42.0377 39.2257 42.1743 42.7942C42.2563 45.0824 42.1743 47.3433 42.2017 49.6315C42.2017 50.9662 42.2017 52.301 42.311 53.6085C42.4203 55.4064 42.4203 66.6293 42.393 67.5555C42.393 67.61 42.393 67.6917 42.393 67.7462C42.393 67.8006 42.393 67.8551 42.393 67.9096C42.393 68.073 42.393 68.182 42.393 68.291C42.393 68.3727 42.393 68.4816 42.4203 68.5634C42.475 68.7813 42.5297 68.9992 42.6663 69.1899C42.6937 69.2171 42.721 69.2716 42.7483 69.2989C42.803 69.3533 42.8577 69.4351 42.9397 69.4895C42.9943 69.5168 43.0217 69.5713 43.049 69.5985C43.0763 69.6257 43.1037 69.653 43.131 69.7075C43.131 69.7075 43.131 69.7619 43.1583 69.7892C43.1583 69.7892 43.1583 69.8164 43.1583 69.8437C43.1583 69.8437 43.1583 69.8437 43.1583 69.8709V69.8437Z" fill="#A0531F"/>
<path d="M41.5457 31.7893C41.5457 31.7893 41.5184 31.871 41.5184 31.9255C41.2177 33.124 41.0264 34.3499 40.917 35.5757C40.6164 38.4904 40.6437 41.4868 40.5617 44.3742C40.4251 48.7871 40.4524 68.3183 40.1517 68.9993C39.9604 69.4352 39.6597 69.871 39.2497 70.1162C39.2497 70.0617 39.2224 69.98 39.2224 69.9255C39.2771 69.7893 39.3591 69.6531 39.4137 69.5441C39.4684 69.4352 39.5504 69.3534 39.6051 69.2445C39.6324 69.1628 39.6871 69.1083 39.7144 69.0266C40.0151 68.3456 39.9877 48.8144 40.1244 44.4015C40.1244 44.0746 40.1244 43.7205 40.1517 43.3936C40.1517 42.4402 40.1791 41.4868 40.2064 40.5061C40.2064 39.471 40.2611 38.4631 40.3431 37.428C40.3431 37.2645 40.3431 37.0739 40.3704 36.9104C40.3704 36.6108 40.4251 36.3384 40.4524 36.0387C40.4524 35.7936 40.507 35.5757 40.5344 35.3305C40.5344 35.0853 40.589 34.8674 40.6164 34.6495C40.6437 34.4316 40.671 34.1864 40.7257 33.9685C40.753 33.7506 40.8077 33.5054 40.835 33.2875C40.917 32.8516 40.999 32.4158 41.1084 31.98C41.1357 31.8438 41.2177 31.6803 41.3544 31.6531C41.3817 31.6531 41.409 31.6531 41.4364 31.6531H41.491C41.491 31.6531 41.5184 31.6531 41.5457 31.7076C41.5457 31.7076 41.5457 31.7076 41.573 31.7348C41.573 31.7348 41.573 31.7893 41.6004 31.8165L41.5457 31.7893Z" fill="#CF5F10"/>
<path d="M43.1584 69.8438C43.1584 69.8438 43.1584 69.9255 43.1584 69.98C43.1584 70.0345 43.1584 70.1162 43.1037 70.1707C43.1037 70.1979 43.1037 70.2252 43.0764 70.2524C43.0764 70.2524 42.885 70.2252 42.803 70.1707C42.721 70.1434 42.6117 70.089 42.5297 70.0345C42.3657 69.9528 42.1744 69.8438 42.0377 69.7076C41.4364 69.1628 41.4364 68.4818 41.4911 67.7463C41.5184 66.8474 41.2997 51.1571 41.2997 49.8223C41.2997 47.5341 41.3544 45.2732 41.2724 42.985C41.1904 40.5062 41.0537 38.0273 40.9171 35.5485C40.8624 34.7857 40.8351 33.9958 40.8077 33.233C40.8897 32.7972 40.9717 32.3614 41.0811 31.9255C41.1084 31.7893 41.1904 31.6259 41.3271 31.5986C41.3544 31.5986 41.3817 31.5986 41.4091 31.5986C41.4911 31.5986 41.5457 31.7076 41.5731 31.7893C41.6004 31.871 41.6277 31.98 41.6277 32.0617C41.819 35.6302 42.0104 39.1986 42.147 42.7671C42.229 45.0553 42.147 47.3162 42.1744 49.6044C42.1744 50.9391 42.393 66.6295 42.3657 67.5284C42.3657 67.5829 42.3657 67.6646 42.3657 67.7191C42.3657 67.7735 42.3657 67.828 42.3657 67.8825C42.3657 68.0459 42.3657 68.1549 42.3657 68.2639C42.3657 68.3456 42.3657 68.4545 42.393 68.5363C42.4477 68.7542 42.5024 68.9721 42.639 69.1628C42.6664 69.19 42.6937 69.2445 42.721 69.2718C42.7757 69.3262 42.8304 69.408 42.9124 69.4624C42.967 69.4897 42.9944 69.5442 43.0217 69.5714C43.049 69.5986 43.0764 69.6259 43.1037 69.6804C43.1037 69.6804 43.1037 69.7348 43.131 69.7621C43.131 69.7621 43.131 69.7893 43.131 69.8166C43.131 69.8166 43.131 69.8166 43.131 69.8438H43.1584Z" fill="#A0531F"/>
<path d="M42.147 46.2265L28.344 38.2724V17.8967L42.147 25.8508V46.2265Z" fill="#4D6E4A"/>
<path d="M42.147 25.8509L28.344 17.8967L43.377 9.23438L57.2073 17.1885L42.147 25.8509Z" fill="#D6E371"/>
<path d="M42.147 46.2265L57.2074 37.5913V17.1885L42.147 25.8508V46.2265Z" fill="#C2DD76"/>
<path d="M44.6343 23.5354L32.6353 16.6164V6.72827L44.6343 13.6473V23.5354Z" fill="#4D6E4A"/>
<path d="M44.6343 13.6473L32.6353 6.72832L44.3337 0L56.36 6.919L44.6343 13.6473Z" fill="#D6E371"/>
<path d="M44.6343 23.5354L56.36 16.8071V6.91895L44.6343 13.6473V23.5354Z" fill="#C2DD76"/>
<path d="M46.3016 40.4244L42.6117 38.3269V28.4387L46.3016 30.5635V40.4244Z" fill="#4D6E4A"/>
<path d="M46.3016 30.5634L42.6117 28.4387L54.3101 21.6831L58 23.8078L46.3016 30.5634Z" fill="#D6E371"/>
<path d="M46.3016 40.4243L58 33.696V23.8079L46.3016 30.5634V40.4243Z" fill="#C2DD76"/>
</g>
<g clip-path="url(#clip1_122_37)">
<g style="mix-blend-mode:multiply">
<path d="M74.8082 86.0223H68.9731L60.6456 81.0244H54.2116L46 85.962L54.4241 91H60.8775L67.1956 87.2065H74.7696L74.8082 86.0223Z" fill="#C4BCCC"/>
</g>
<path d="M80.1409 66.8538C79.9477 66.9341 79.7545 66.9742 79.5612 66.9541C78.7304 66.8738 79.368 65.3083 79.484 64.8265C79.5806 64.385 79.6578 63.9635 79.7738 63.5219C79.9283 62.9197 80.1602 62.3577 80.2955 61.7556C80.2955 61.7154 80.2955 61.6753 80.2955 61.6351C80.2955 61.595 80.2375 61.5749 80.1988 61.5749C80.1988 61.5749 80.1602 61.595 80.1602 61.6151C80.0443 61.8158 80.0056 62.0566 79.8897 62.2574C79.7545 62.5183 79.6578 62.7792 79.5612 63.0402C79.368 63.6022 79.1941 64.1842 79.0396 64.7663C78.6338 66.2918 77.7837 67.757 77.0108 69.1219C76.8176 69.4631 76.6437 69.8043 76.4505 70.1455C76.1993 70.6674 75.7356 71.3699 75.697 71.952C75.6583 72.3936 75.697 72.8351 75.7163 73.2767C75.7163 73.6179 75.639 73.9391 75.6004 74.2803C75.5424 75.1635 75.697 85.6609 75.8129 85.1391C76.0254 84.0954 76.0834 73.3369 76.3925 72.3333C76.7017 71.3498 77.0108 70.4867 77.6098 69.6437C77.9189 69.2022 78.286 68.6803 78.6725 68.319C79.1941 67.8373 79.909 67.6366 80.4887 67.2753C81.0683 66.914 81.59 66.2918 82.0151 65.7498C82.9038 64.5857 83.5414 63.2208 84.1018 61.8559C84.3336 61.2538 84.5655 60.6115 84.4109 59.9893C83.8699 60.8523 83.5028 61.8359 83.1357 62.7792C82.7493 63.7427 82.3435 64.686 81.7059 65.4889C81.3775 65.8903 80.7398 66.5527 80.1022 66.8136L80.1409 66.8538Z" fill="#A25B10"/>
<path d="M75.8902 84.9584C75.8902 84.9584 75.8902 84.838 75.8902 84.7978C75.9095 84.4566 75.8129 74.3806 75.7936 74.0394C75.7743 73.5978 75.7356 73.1563 75.7743 72.6946C75.8322 72.1125 76.2766 71.41 76.5278 70.8882C76.7017 70.5469 76.8756 70.1857 77.0688 69.8645C77.8417 68.4996 78.6918 67.0344 79.0976 65.5089C79.2521 64.9269 79.426 64.3448 79.6192 63.7828C79.6772 63.6021 79.7545 63.4215 79.8318 63.2408C79.967 62.7391 80.1602 62.2774 80.2762 61.7756C80.2762 61.7355 80.2762 61.6953 80.2762 61.6552C80.2762 61.615 80.2182 61.595 80.1796 61.595C80.1796 61.595 80.1409 61.615 80.1409 61.6351C80.025 61.8358 79.9863 62.0767 79.8704 62.2774C79.7352 62.5383 79.6386 62.7993 79.542 63.0602C79.3487 63.6222 79.1748 64.2043 79.0203 64.7864C78.6145 66.3118 77.7644 67.7771 76.9915 69.1419C76.7983 69.4831 76.6244 69.8244 76.4312 70.1656C76.18 70.6874 75.7163 71.39 75.6777 71.972C75.639 72.4136 75.6777 72.8552 75.697 73.2968C75.697 73.638 75.6197 73.9591 75.5811 74.3003C75.5231 75.1835 75.6777 85.681 75.7936 85.1591C75.7936 85.0788 75.8322 85.0186 75.8322 84.9383L75.8902 84.9584Z" fill="#A25B10"/>
<path d="M70.0745 65.5292C70.3643 65.7098 70.6541 65.77 70.886 65.5292C71.0985 65.3284 71.0985 64.9671 71.0599 64.7062C71.0212 64.4854 70.9633 64.2646 70.9053 64.0438C70.7121 63.0804 70.4802 62.137 70.287 61.1736C70.0165 59.889 69.746 58.5843 69.7847 57.2596C69.8233 57.2395 69.8619 57.2797 69.8619 57.3399C70.1324 58.3636 70.3836 59.3872 70.5768 60.4109C70.6928 61.0331 70.8087 61.6352 71.0019 62.2575C71.0985 62.5385 71.1758 62.8395 71.2724 63.1205C71.3497 63.3614 71.4077 63.6023 71.4849 63.8431C71.6588 64.3449 71.8327 64.8467 72.0646 65.3284C72.2964 65.8302 72.5476 66.3119 72.7602 66.8338C73.05 67.5162 73.4364 68.0783 73.7842 68.7205C74.074 69.2223 74.5377 69.9048 74.615 70.4869C74.673 70.9284 74.6536 71.37 74.6536 71.8116C74.6536 72.1528 74.7696 72.474 74.8082 72.8152C74.9048 73.6983 75.2333 84.3363 75.4265 85.1994C75.3106 84.6976 74.9628 74.4209 74.8469 73.9191C74.5957 72.8754 74.2865 71.9119 73.9194 70.9084C73.5717 69.9449 73.2239 69.1019 72.5863 68.279C72.2578 67.8575 71.8714 67.3557 71.4656 66.9944C71.0599 66.6532 70.5575 66.5327 70.1131 66.2517C69.6881 65.9707 69.3403 65.5894 69.0311 65.208C68.181 64.1843 67.2922 63.0403 67.1763 61.6955C67.1956 61.9765 67.5627 62.418 67.7173 62.6388C68.0071 63.0603 68.3162 63.4818 68.6061 63.9234C68.8186 64.2245 69.4176 65.1478 70.0165 65.5292H70.0745Z" fill="#CF5F10"/>
<path d="M70.4029 60.8725C70.5188 61.4947 70.6348 62.0969 70.828 62.7191C70.9246 63.0001 71.0019 63.3012 71.0985 63.5822C71.1758 63.823 71.2337 64.0639 71.311 64.3048C71.4849 64.8066 71.6588 65.3083 71.8907 65.7901C72.1225 66.2919 72.3737 66.7736 72.5862 67.2954C72.8761 67.9779 73.2625 68.5399 73.6103 69.1822C73.9001 69.684 74.3638 70.3664 74.4411 70.9485C74.4991 71.3901 74.4797 71.8316 74.4797 72.2732C74.4797 72.3736 74.4797 72.494 74.4991 72.5944C74.6343 73.0359 74.7502 73.4575 74.8662 73.9191C74.9821 74.4209 75.3299 84.6976 75.4458 85.1994C75.2333 84.3363 74.9241 73.6983 74.8275 72.8152C74.7889 72.4739 74.6729 72.1528 74.6729 71.8116C74.6729 71.37 74.6923 70.9284 74.6343 70.4868C74.557 69.9048 74.074 69.2223 73.8035 68.7205C73.4557 68.0782 73.0693 67.5162 72.7794 66.8338C72.5669 66.332 72.3157 65.8302 72.0839 65.3284C71.852 64.8467 71.6781 64.3449 71.5042 63.8431C71.427 63.6023 71.369 63.3413 71.2917 63.1205C71.1951 62.8395 71.1178 62.5385 71.0212 62.2575C70.828 61.6352 70.7121 61.0531 70.5961 60.4109C70.4029 59.3671 70.1517 58.3435 69.8812 57.3399C69.8812 57.2997 69.8233 57.2395 69.804 57.2596C69.804 57.6008 69.804 57.9621 69.8426 58.3033C70.0745 59.1664 70.2677 60.0295 70.4416 60.8926L70.4029 60.8725Z" fill="#CF5F10"/>
<path d="M68.4708 64.385C68.548 64.5054 68.7026 64.7463 68.8958 64.9871C68.9538 65.0674 69.0118 65.1276 69.0697 65.2079C69.1663 65.3283 69.2823 65.4688 69.3982 65.5893C69.5528 65.7498 69.7073 65.8903 69.8812 65.9907C70.171 66.1713 70.4609 66.2316 70.6927 65.9907C70.828 65.8703 70.8666 65.6896 70.8859 65.509C70.6541 65.7498 70.3643 65.6896 70.0744 65.509C69.4948 65.1276 68.8765 64.2244 68.664 63.9032C68.3742 63.4817 68.065 63.0602 67.7752 62.6187C67.6206 62.3979 67.2535 61.9563 67.2342 61.6753C67.2728 62.2574 67.4854 62.8194 67.7559 63.3212C68.007 63.6624 68.2389 64.0237 68.4708 64.3649V64.385Z" fill="#C07F15"/>
<path d="M76.5085 86.4638C76.5085 86.4638 76.5085 86.524 76.5085 86.5642C76.5085 86.6043 76.5085 86.6645 76.4698 86.7047C76.4698 86.7247 76.4698 86.7448 76.4505 86.7649C76.2573 87.086 75.6777 87.3068 75.0401 87.2867C74.3831 87.2667 73.8614 86.9857 73.7455 86.6444C73.7455 86.6444 73.7262 86.5441 73.7262 86.5039C73.7648 86.4036 73.8228 86.3032 73.8614 86.2229C73.9001 86.1427 73.9581 86.0824 73.9967 86.0021C74.016 85.9419 74.0547 85.9018 74.074 85.8416C74.2865 85.3398 74.2672 70.9484 74.3638 67.6968C74.3638 67.4559 74.3638 67.195 74.3831 66.9541C74.3831 66.2516 74.4024 65.5491 74.4218 64.8265C74.4218 64.0638 74.4604 63.3211 74.5184 62.5584C74.5184 62.438 74.5184 62.2975 74.5377 62.1771C74.5377 61.9563 74.5763 61.7556 74.5957 61.5348C74.5957 61.3541 74.6343 61.1935 74.6536 61.0129C74.6536 60.8323 74.6923 60.6717 74.7116 60.5111C74.7309 60.3505 74.7502 60.1699 74.7889 60.0093C74.8082 59.8487 74.8468 59.6681 74.8662 59.5075C74.9241 59.1864 74.9821 58.8652 75.0594 58.5441C75.0787 58.4437 75.1367 58.3233 75.2333 58.3032C75.2526 58.3032 75.2719 58.3032 75.2912 58.3032C75.3492 58.3032 75.3878 58.3835 75.4072 58.4437C75.4265 58.5039 75.4458 58.5842 75.4458 58.6444C75.581 61.2738 75.7163 63.9032 75.8129 66.5326C75.8709 68.2186 75.8129 69.8846 75.8322 71.5706C75.8322 72.5541 75.8322 73.5376 75.9095 74.5011C75.9868 75.8258 75.9868 84.0953 75.9675 84.7778C75.9675 84.8179 75.9675 84.8781 75.9675 84.9183C75.9675 84.9584 75.9675 84.9986 75.9675 85.0387C75.9675 85.1591 75.9675 85.2394 75.9675 85.3197C75.9675 85.3799 75.9675 85.4602 75.9868 85.5204C76.0254 85.681 76.0641 85.8416 76.1607 85.9821C76.18 86.0021 76.1993 86.0423 76.2187 86.0624C76.2573 86.1025 76.2959 86.1627 76.3539 86.2029C76.3925 86.2229 76.4119 86.2631 76.4312 86.2832C76.4505 86.3032 76.4698 86.3233 76.4892 86.3634C76.4892 86.3634 76.4892 86.4036 76.5085 86.4237C76.5085 86.4237 76.5085 86.4437 76.5085 86.4638C76.5085 86.4638 76.5085 86.4638 76.5085 86.4839V86.4638Z" fill="#A0531F"/>
<path d="M75.3685 58.4236C75.3685 58.4236 75.3492 58.4838 75.3492 58.524C75.1367 59.4071 75.0014 60.3103 74.9241 61.2136C74.7116 63.3612 74.7309 65.5691 74.6729 67.6967C74.5763 70.9483 74.5957 85.3397 74.3831 85.8415C74.2479 86.1627 74.0353 86.4838 73.7455 86.6645C73.7455 86.6243 73.7262 86.5641 73.7262 86.524C73.7648 86.4236 73.8228 86.3232 73.8614 86.243C73.9001 86.1627 73.9581 86.1025 73.9967 86.0222C74.016 85.962 74.0547 85.9218 74.074 85.8616C74.2865 85.3598 74.2672 70.9684 74.3638 67.7168C74.3638 67.4759 74.3638 67.215 74.3831 66.9741C74.3831 66.2716 74.4024 65.5691 74.4218 64.8465C74.4218 64.0838 74.4604 63.3412 74.5184 62.5784C74.5184 62.458 74.5184 62.3175 74.5377 62.1971C74.5377 61.9763 74.5763 61.7756 74.5957 61.5548C74.5957 61.3741 74.6343 61.2136 74.6536 61.0329C74.6536 60.8523 74.6923 60.6917 74.7116 60.5311C74.7309 60.3706 74.7502 60.1899 74.7889 60.0293C74.8082 59.8688 74.8468 59.6881 74.8662 59.5275C74.9241 59.2064 74.9821 58.8852 75.0594 58.5641C75.0787 58.4637 75.1367 58.3433 75.2333 58.3232C75.2526 58.3232 75.2719 58.3232 75.2912 58.3232H75.3299C75.3299 58.3232 75.3492 58.3232 75.3685 58.3634C75.3685 58.3634 75.3685 58.3634 75.3878 58.3835C75.3878 58.3835 75.3878 58.4236 75.4072 58.4437L75.3685 58.4236Z" fill="#CF5F10"/>
<path d="M76.5085 86.4638C76.5085 86.4638 76.5085 86.5241 76.5085 86.5642C76.5085 86.6044 76.5085 86.6646 76.4699 86.7047C76.4699 86.7248 76.4699 86.7449 76.4505 86.7649C76.4505 86.7649 76.3153 86.7449 76.2573 86.7047C76.1994 86.6846 76.1221 86.6445 76.0641 86.6043C75.9482 86.5441 75.8129 86.4638 75.7163 86.3635C75.2913 85.9621 75.2913 85.4603 75.3299 84.9183C75.3492 84.256 75.1946 72.6947 75.1946 71.7112C75.1946 70.0251 75.2333 68.3592 75.1753 66.6732C75.1174 64.8466 75.0208 63.0201 74.9241 61.1936C74.8855 60.6316 74.8662 60.0495 74.8469 59.4875C74.9048 59.1664 74.9628 58.8452 75.0401 58.5241C75.0594 58.4237 75.1174 58.3033 75.214 58.2832C75.2333 58.2832 75.2526 58.2832 75.2719 58.2832C75.3299 58.2832 75.3685 58.3635 75.3879 58.4237C75.4072 58.4839 75.4265 58.5642 75.4265 58.6244C75.5618 61.2538 75.697 63.8832 75.7936 66.5126C75.8516 68.1986 75.7936 69.8646 75.8129 71.5506C75.8129 72.5341 75.9675 84.0954 75.9482 84.7578C75.9482 84.7979 75.9482 84.8581 75.9482 84.8983C75.9482 84.9384 75.9482 84.9785 75.9482 85.0187C75.9482 85.1391 75.9482 85.2194 75.9482 85.2997C75.9482 85.3599 75.9482 85.4402 75.9675 85.5004C76.0061 85.661 76.0448 85.8216 76.1414 85.9621C76.1607 85.9821 76.18 86.0223 76.1994 86.0423C76.238 86.0825 76.2766 86.1427 76.3346 86.1828C76.3733 86.2029 76.3926 86.2431 76.4119 86.2631C76.4312 86.2832 76.4505 86.3033 76.4699 86.3434C76.4699 86.3434 76.4699 86.3836 76.4892 86.4036C76.4892 86.4036 76.4892 86.4237 76.4892 86.4438C76.4892 86.4438 76.4892 86.4438 76.4892 86.4638H76.5085Z" fill="#A0531F"/>
<path d="M75.7936 69.0616L66.0363 63.2006V48.187L75.7936 54.0479V69.0616Z" fill="#4D6E4A"/>
<path d="M75.7936 54.0479L66.0363 48.187L76.6631 41.8042L86.4397 47.6651L75.7936 54.0479Z" fill="#D6E371"/>
<path d="M75.7936 69.0617L86.4397 62.699V47.6653L75.7936 54.0481V69.0617Z" fill="#C2DD76"/>
<path d="M77.5519 52.342L69.0698 47.2438V39.9578L77.5519 45.056V52.342Z" fill="#4D6E4A"/>
<path d="M77.5519 45.0559L69.0698 39.9577L77.3393 35L85.8407 40.0982L77.5519 45.0559Z" fill="#D6E371"/>
<path d="M77.5518 52.3419L85.8407 47.3842V40.0981L77.5518 45.0559V52.3419Z" fill="#C2DD76"/>
<path d="M78.7305 64.7864L76.1221 63.2409V55.9548L78.7305 57.5204V64.7864Z" fill="#4D6E4A"/>
<path d="M78.7305 57.5204L76.1221 55.9548L84.3916 50.9771L87 52.5426L78.7305 57.5204Z" fill="#D6E371"/>
<path d="M78.7305 64.7865L87 59.8287V52.5427L78.7305 57.5205V64.7865Z" fill="#C2DD76"/>
</g>
<defs>
<clipPath id="clip0_122_37">
<rect width="58" height="76" fill="white"/>
</clipPath>
<clipPath id="clip1_122_37">
<rect width="41" height="56" fill="white" transform="translate(46 35)"/>
</clipPath>
</defs>
</svg>
