<svg width="140" height="140" viewBox="0 0 140 140" fill="none" xmlns="http://www.w3.org/2000/svg">
<path d="M78.7738 17.4765C68.3575 17.6553 59.1443 22.7689 53.3705 30.5793C48.398 37.3056 40.6581 41.5075 32.2937 41.5031C32.0481 41.5028 31.8023 41.5056 31.5554 41.511C14.6253 41.8813 0.228857 56.4073 0.00299819 73.3399C-0.237353 91.3681 14.3043 106.058 32.2773 106.058C46.2081 106.058 58.0758 97.232 62.5973 84.8671C63.7807 81.6318 67.2876 79.898 70.6046 80.8279L70.7288 80.8627C73.7639 81.7005 75.7759 84.5923 75.5273 87.7311C75.1948 91.9374 75.6865 96.2774 77.113 100.527C82.7242 117.243 100.953 126.417 117.716 120.947C134.864 115.351 144.07 96.8341 138.257 79.8217C135.023 70.3581 127.828 63.3717 119.157 60.0787C114.664 58.3728 111.679 54.1025 111.614 49.2977C111.612 49.1927 111.61 49.0874 111.608 48.9819C111.2 31.5093 96.7435 17.4724 79.3308 17.4716C79.1451 17.4716 78.9603 17.4732 78.7738 17.4765Z" fill="url(#paint0_linear_1291_37416)"/>
<mask id="mask0_1291_37416" style="mask-type:luminance" maskUnits="userSpaceOnUse" x="0" y="0" width="140" height="140">
<path d="M0 0.000396729H140V140H0V0.000396729Z" fill="white"/>
</mask>
<g mask="url(#mask0_1291_37416)">
<mask id="mask1_1291_37416" style="mask-type:luminance" maskUnits="userSpaceOnUse" x="24" y="12" width="92" height="93">
<path d="M24.2382 12.305H115.761V104.533H24.2382V12.305Z" fill="white"/>
</mask>
<g mask="url(#mask1_1291_37416)">
<g opacity="0.1">
<path d="M103.57 37.4305H102.57V36.4305V27.9925C102.57 27.3418 102.428 26.6985 102.153 26.108C102.153 26.108 102.153 26.1079 102.153 26.1079L96.6664 14.3084L96.6661 14.3079C96.0456 12.9712 94.1427 12.9712 93.5222 14.3079L93.5219 14.3086L88.0326 26.1079L88.0326 26.108C87.7578 26.6985 87.6154 27.3418 87.6154 27.993V36.4305V37.4305H86.6154H28.7674C26.8186 37.4305 25.2382 39.0109 25.2382 40.9597V100.004C25.2382 101.953 26.8186 103.533 28.7674 103.533H111.232C113.181 103.533 114.761 101.953 114.761 100.004V40.9597C114.761 39.0109 113.181 37.4305 111.232 37.4305H103.57Z" fill="#2626BC" stroke="#0000CB" stroke-width="2"/>
</g>
</g>
<path d="M60.9239 113.9L57.6961 126.695H82.3033L79.0757 113.9L79.0757 113.899L77.3736 107.155H62.626L60.9239 113.899L60.9239 113.9Z" fill="#9FB0FE" stroke="#0000CB" stroke-width="2"/>
<path d="M80.045 113.655H59.954L61.8467 106.155H78.1523L80.045 113.655Z" fill="#8399FE"/>
<path d="M111.232 110.275H28.7678C26.2664 110.275 24.2383 108.247 24.2383 105.746V46.7019C24.2383 44.2005 26.2664 42.1727 28.7678 42.1727H111.232C113.733 42.1727 115.761 44.2005 115.761 46.7019V105.746C115.761 108.247 113.733 110.275 111.232 110.275Z" fill="white"/>
<path d="M25.2382 80.7074V105.746C25.2382 107.695 26.8185 109.275 28.7674 109.275H111.232C113.181 109.275 114.762 107.695 114.762 105.746V80.7074H25.2382Z" fill="#FFC4DF" stroke="#0000CB" stroke-width="2"/>
<path d="M114.761 52.7144V46.7023C114.761 44.7533 113.181 43.1731 111.232 43.1731H28.7675C26.8183 43.1731 25.238 44.7533 25.238 46.7023V52.7144H114.761Z" fill="#6583FE" stroke="#0000CB" stroke-width="2"/>
<path d="M25.2382 99.2026V105.746C25.2382 107.695 26.8186 109.275 28.7674 109.275H111.232C113.181 109.275 114.762 107.695 114.762 105.746V99.2026H25.2382Z" fill="#B7C5FF" stroke="#0000CB" stroke-width="2"/>
<path d="M53.2436 86.1835H33.0779C32.8964 86.186 32.7163 86.1525 32.5478 86.0848C32.3794 86.0171 32.2262 85.9167 32.0969 85.7893C31.9677 85.6618 31.8651 85.51 31.795 85.3426C31.725 85.1751 31.6889 84.9954 31.6889 84.8139C31.6889 84.6325 31.725 84.4528 31.795 84.2853C31.8651 84.1179 31.9677 83.9661 32.0969 83.8386C32.2262 83.7112 32.3794 83.6108 32.5478 83.5431C32.7163 83.4754 32.8964 83.4419 33.0779 83.4444H53.2436C53.6068 83.4444 53.9551 83.5887 54.212 83.8456C54.4688 84.1024 54.6131 84.4507 54.6131 84.8139C54.6131 85.1772 54.4688 85.5255 54.212 85.7823C53.9551 86.0392 53.6068 86.1835 53.2436 86.1835Z" fill="white"/>
<path d="M37.6566 76.3412H33.0782C32.8967 76.3437 32.7166 76.3102 32.5482 76.2425C32.3797 76.1749 32.2265 76.0744 32.0972 75.947C31.968 75.8195 31.8654 75.6677 31.7953 75.5003C31.7253 75.3328 31.6892 75.1532 31.6892 74.9717C31.6892 74.7902 31.7253 74.6105 31.7953 74.4431C31.8654 74.2756 31.968 74.1238 32.0972 73.9964C32.2265 73.8689 32.3797 73.7685 32.5482 73.7008C32.7166 73.6331 32.8967 73.5996 33.0782 73.6022H37.6566C38.0198 73.6022 38.3682 73.7464 38.625 74.0033C38.8818 74.2601 39.0261 74.6084 39.0261 74.9717C39.0261 75.3349 38.8818 75.6832 38.625 75.9401C38.3682 76.1969 38.0198 76.3412 37.6566 76.3412Z" fill="#FFA8CF"/>
<path d="M53.2436 91.6161H33.0779C32.7147 91.6161 32.3663 91.4718 32.1095 91.215C31.8527 90.9581 31.7084 90.6098 31.7084 90.2466C31.7084 89.8834 31.8527 89.535 32.1095 89.2782C32.3663 89.0213 32.7147 88.8771 33.0779 88.8771H53.2436C53.425 88.8745 53.6052 88.908 53.7736 88.9757C53.942 89.0434 54.0953 89.1438 54.2245 89.2713C54.3538 89.3987 54.4564 89.5505 54.5264 89.718C54.5965 89.8854 54.6326 90.0651 54.6326 90.2466C54.6326 90.4281 54.5965 90.6077 54.5264 90.7752C54.4564 90.9426 54.3538 91.0944 54.2245 91.2219C54.0953 91.3493 53.942 91.4498 53.7736 91.5174C53.6052 91.5851 53.425 91.6186 53.2436 91.6161Z" fill="white"/>
<path d="M36.6741 69.8281C36.4945 69.8284 36.3167 69.7931 36.1508 69.7244C35.9849 69.6556 35.8343 69.5547 35.7075 69.4275L32.4164 66.1365C32.2894 66.0095 32.1887 65.8588 32.12 65.6929C32.0512 65.527 32.0159 65.3492 32.0159 65.1696C32.0159 64.99 32.0512 64.8122 32.12 64.6463C32.1887 64.4804 32.2894 64.3297 32.4164 64.2027L35.7075 60.9116C35.8345 60.7847 35.9852 60.684 36.1511 60.6153C36.317 60.5466 36.4948 60.5112 36.6744 60.5112C36.8539 60.5112 37.0317 60.5466 37.1976 60.6153C37.3635 60.6841 37.5142 60.7848 37.6411 60.9118C37.7681 61.0387 37.8688 61.1895 37.9375 61.3554C38.0062 61.5212 38.0415 61.699 38.0415 61.8786C38.0415 62.0581 38.0061 62.2359 37.9374 62.4018C37.8687 62.5677 37.768 62.7184 37.641 62.8454L35.3168 65.1696L37.641 67.4938C37.8323 67.685 37.9627 67.9286 38.0155 68.1939C38.0683 68.4592 38.0413 68.7342 37.9378 68.9841C37.8343 69.234 37.6589 69.4476 37.434 69.5979C37.2091 69.7481 36.9446 69.8282 36.6741 69.8281Z" fill="#4369FD"/>
<path d="M49.462 69.8281C49.1915 69.8282 48.927 69.7481 48.7021 69.5979C48.4771 69.4476 48.3018 69.234 48.1983 68.9841C48.0948 68.7342 48.0677 68.4592 48.1206 68.1939C48.1734 67.9286 48.3037 67.685 48.4951 67.4938L50.8193 65.1696L48.4951 62.8454C48.2386 62.589 48.0946 62.2412 48.0945 61.8786C48.0945 61.516 48.2385 61.1682 48.4949 60.9118C48.7513 60.6553 49.0991 60.5113 49.4617 60.5112C49.8243 60.5112 50.1721 60.6552 50.4285 60.9116L53.7196 64.2027C54.2537 64.7367 54.2537 63.9618 53.7196 64.4958L50.4285 69.4275C50.3018 69.5547 50.1512 69.6556 49.9853 69.7244C49.8194 69.7931 49.6415 69.8284 49.462 69.8281Z" fill="#4369FD"/>
<path d="M41.2083 69.8284C40.9694 69.8282 40.7348 69.7655 40.5277 69.6465C40.3206 69.5274 40.1484 69.3562 40.028 69.1499C39.9077 68.9435 39.8436 68.7093 39.842 68.4704C39.8403 68.2316 39.9013 67.9965 40.0188 67.7885L43.7359 61.2061C43.8242 61.0497 43.9425 60.9123 44.0839 60.8017C44.2253 60.691 44.3871 60.6093 44.5601 60.5612C44.7331 60.5131 44.9138 60.4995 45.0921 60.5212C45.2703 60.543 45.4425 60.5996 45.5989 60.6879C45.7552 60.7762 45.8926 60.8945 46.0033 61.0359C46.1139 61.1773 46.1957 61.3391 46.2438 61.5121C46.2919 61.6851 46.3055 61.8658 46.2837 62.0441C46.262 62.2223 46.2053 62.3945 46.117 62.5509L42.3999 69.133C42.2808 69.3442 42.1077 69.5198 41.8983 69.642C41.6889 69.7642 41.4507 69.8285 41.2083 69.8284Z" fill="#4369FD"/>
<path d="M93.5222 20.0501L93.5219 20.0508L88.0326 31.8501L88.0325 31.8503C87.7578 32.4407 87.6154 33.084 87.6154 33.7353V97.2026H102.57V33.7347C102.57 33.0838 102.428 32.4405 102.153 31.8504L102.153 31.8502L96.6664 20.0506L96.6661 20.0501C96.0456 18.7135 94.1427 18.7135 93.5222 20.0501Z" fill="#FF7EB8" stroke="#0000CB" stroke-width="2"/>
<path d="M95.0928 98.2026H86.6154V35.3065H95.0928V98.2026Z" fill="#97FFD2"/>
<path d="M92.6152 19.6291L87.1259 31.4284C86.7896 32.151 86.6154 32.9384 86.6154 33.7354V37.2209C87.6243 37.7629 88.752 38.0457 89.8972 38.0439C91.2165 38.0459 92.5087 37.6687 93.6198 36.9573C94.5265 36.3771 95.693 36.4058 96.6032 36.9803C97.7069 37.6772 98.9858 38.046 100.291 38.0439C101.435 38.0458 102.562 37.7629 103.57 37.2209V33.7348C103.57 32.9383 103.396 32.1511 103.06 31.4287L97.5731 19.6291C96.5942 17.5206 93.5941 17.5206 92.6152 19.6291Z" fill="#FFC4DF"/>
<path d="M92.6152 19.6289L89.6125 26.0881C91.1082 27.3103 93.0144 28.0461 95.0928 28.0461C97.0925 28.0488 99.0309 27.3556 100.575 26.0853L97.5731 19.6289C96.5942 17.5205 93.5941 17.5205 92.6152 19.6289Z" fill="#4369FD"/>
<path d="M67.6346 50.4043L67.6343 50.405L62.1448 62.2043C61.8701 62.7948 61.7278 63.4382 61.7278 64.0894V64.0895V97.2026H76.6823V64.0892C76.6823 63.438 76.5402 62.795 76.2656 62.2048L76.2656 62.2047L70.7785 50.4048L70.7783 50.4043C70.1578 49.0679 68.2551 49.0679 67.6346 50.4043Z" fill="#6583FE" stroke="#0000CB" stroke-width="2"/>
<path d="M69.2052 98.2026H60.7278V65.6607H69.2052V98.2026Z" fill="#9FB0FE"/>
<path d="M66.7276 49.9833L61.2381 61.7827C60.9019 62.5053 60.7278 63.2927 60.7278 64.0896V67.5751C61.7366 68.1172 62.8642 68.4 64.0094 68.3982C65.3793 68.3982 66.6573 67.9992 67.7322 67.3115C68.6386 66.7313 69.8051 66.76 70.7154 67.3345C71.8191 68.0316 73.0982 68.4005 74.4035 68.3982C75.5902 68.3982 76.7061 68.1001 77.6823 67.5751V64.0894C77.6823 63.2926 77.5084 62.5056 77.1723 61.7832L71.6853 49.9833C70.7064 47.8751 67.7065 47.8751 66.7276 49.9833Z" fill="#FFC4DF"/>
<path d="M66.7276 49.9832L63.725 56.4426C65.2207 57.6648 67.1268 58.4004 69.2052 58.4004C71.286 58.4004 73.1946 57.6648 74.6879 56.4396L71.6853 49.9832C70.7064 47.875 67.7065 47.875 66.7276 49.9832Z" fill="#8399FE"/>
</g>
<defs>
<linearGradient id="paint0_linear_1291_37416" x1="8.68999" y1="42.8087" x2="85.1328" y2="146.249" gradientUnits="userSpaceOnUse">
<stop stop-color="#FFD8D8" stop-opacity="0"/>
<stop offset="0.998" stop-color="#FFB2B2"/>
</linearGradient>
</defs>
</svg>
