<svg width="138" height="140" viewBox="0 0 138 140" fill="none" xmlns="http://www.w3.org/2000/svg">
<path d="M137.538 34.8827C135.551 19.5232 127.196 0 91.7686 0C67.3022 0 66.9716 11.7195 40.9117 5.90898C21.9206 1.6748 3.03758 15.6431 0.41258 35.1561C-2.41914 56.2064 12.8078 65.8563 17.751 83.5179C23.0833 102.569 26.913 140 50.6392 140C76.8012 140 78.152 119.756 95.0977 97.5431C111.402 76.1696 141.753 67.4693 137.538 34.8827Z" fill="url(#paint0_linear_1291_37611)"/>
<path d="M125.109 103.174L118.986 98.6651C119.256 97.0855 119.408 95.4637 119.408 93.808C119.408 92.1609 119.256 90.5388 118.986 88.9592L125.11 84.4491C126.013 83.7846 126.367 82.6075 125.998 81.5496C124.453 77.118 122.087 73.0697 119.082 69.5812C118.351 68.7333 117.155 68.4538 116.13 68.902L109.162 71.9467C106.687 69.8771 103.849 68.2129 100.757 67.0812L99.9124 59.5373C99.7877 58.4244 98.9482 57.5278 97.8482 57.3197C95.5684 56.8894 93.2533 56.6734 90.9332 56.6744V24.5701C90.9332 23.9348 90.6809 23.3256 90.2317 22.8764C89.7825 22.4272 89.1732 22.1748 88.5379 22.1748H14.2532C13.6179 22.1748 13.0086 22.4272 12.5594 22.8764C12.1102 23.3256 11.8578 23.9348 11.8578 24.5701V91.4168C11.8578 92.0521 12.1102 92.6614 12.5594 93.1106C13.0086 93.5598 13.6179 93.8121 14.2532 93.8121H22.4864V117.803C22.4864 119.423 23.7997 120.736 25.4198 120.736H41.4788C43.0989 120.736 44.4122 119.423 44.4122 117.803V93.8121H62.4657C62.4659 95.4664 62.6095 97.0868 62.8797 98.6651L56.7546 103.182C55.8526 103.847 55.499 105.025 55.869 106.083C57.4052 110.467 59.7505 114.524 62.7831 118.043C63.5135 118.891 64.7098 119.171 65.7354 118.723L72.7034 115.678C75.2097 117.768 78.0553 119.414 81.1168 120.543L81.9612 128.094C82.0859 129.208 82.9267 130.105 84.0281 130.313C86.3049 130.739 88.6164 130.952 90.9327 130.95C93.2963 130.95 95.6082 130.728 97.8482 130.305C98.9485 130.097 99.788 129.2 99.9124 128.087L100.757 120.543C103.849 119.403 106.678 117.747 109.162 115.678L116.123 118.723C117.148 119.171 118.343 118.892 119.074 118.045C122.113 114.525 124.461 110.465 125.997 106.076C126.367 105.017 126.012 103.839 125.109 103.174ZM90.9327 107.461C83.3951 107.461 77.2898 101.349 77.2876 93.8124H88.5382C89.1735 93.8124 89.7827 93.5601 90.2319 93.1108C90.6811 92.6616 90.9335 92.0524 90.9335 91.4171V80.1632C98.4722 80.1635 104.578 86.2776 104.578 93.8083C104.578 101.347 98.4716 107.461 90.9327 107.461Z" fill="#0000CB" fill-opacity="0.0627451"/>
<path d="M90.9327 28.1909V84.8532C90.9327 85.4885 90.6803 86.0977 90.2311 86.5469C89.7819 86.9961 89.1726 87.2485 88.5374 87.2485H14.2526C13.6173 87.2485 13.0081 86.9961 12.5589 86.5469C12.1097 86.0977 11.8573 85.4885 11.8573 84.8532V28.1909L13.2242 26.8237H89.4687L90.9327 28.1909Z" fill="white"/>
<path d="M84.0257 57.3206C82.9265 57.5284 82.087 58.4253 81.9612 59.5354L81.1163 67.0796C78.0265 68.2116 75.1882 69.8687 72.7026 71.9468L65.7491 68.9007C64.7265 68.4522 63.5288 68.7312 62.7987 69.5788C59.7572 73.0951 57.4064 77.1537 55.8698 81.5417C55.498 82.5999 55.8534 83.7757 56.7558 84.4429L60.5593 87.2483H78.9671C81.2858 83.0265 85.773 80.1636 90.9327 80.1636V56.6753C88.5702 56.6753 86.2624 56.8968 84.0257 57.3206Z" fill="#D8D8FF"/>
<path d="M73.366 71.0925H64.088C63.7254 71.0925 63.3776 70.9485 63.1212 70.6921C62.8648 70.4357 62.7208 70.0879 62.7208 69.7253V54.4254C62.7208 54.0628 62.8648 53.715 63.1212 53.4586C63.3776 53.2022 63.7254 53.0582 64.088 53.0582H73.366C73.7286 53.0582 74.0763 53.2022 74.3327 53.4586C74.5891 53.715 74.7332 54.0628 74.7332 54.4254V69.7253C74.7332 70.0879 74.5891 70.4357 74.3327 70.6921C74.0763 70.9485 73.7286 71.0925 73.366 71.0925ZM90.9335 28.191V18.0076C90.9335 17.3723 90.6811 16.7631 90.2319 16.3139C89.7827 15.8647 89.1735 15.6123 88.5382 15.6123H14.2532C13.6179 15.6123 13.0086 15.8647 12.5594 16.3139C12.1102 16.7631 11.8578 17.3723 11.8578 18.0076V28.1907L90.9335 28.191Z" fill="#FF6C6C"/>
<path d="M20.0935 23.8042C20.8486 23.8042 21.4607 23.1921 21.4607 22.437C21.4607 21.6819 20.8486 21.0698 20.0935 21.0698C19.3384 21.0698 18.7263 21.6819 18.7263 22.437C18.7263 23.1921 19.3384 23.8042 20.0935 23.8042Z" fill="white"/>
<path d="M24.9708 23.8042C25.7259 23.8042 26.338 23.1921 26.338 22.437C26.338 21.6819 25.7259 21.0698 24.9708 21.0698C24.2157 21.0698 23.6036 21.6819 23.6036 22.437C23.6036 23.1921 24.2157 23.8042 24.9708 23.8042Z" fill="white"/>
<path d="M29.8478 23.8042C30.6029 23.8042 31.215 23.1921 31.215 22.437C31.215 21.6819 30.6029 21.0698 29.8478 21.0698C29.0928 21.0698 28.4807 21.6819 28.4807 22.437C28.4807 23.1921 29.0928 23.8042 29.8478 23.8042Z" fill="white"/>
<path d="M125.109 96.6108L118.987 92.1019C119.255 90.5241 119.408 88.8999 119.408 87.2456C119.408 85.5968 119.255 83.9753 118.987 82.3976L125.109 77.8858C126.012 77.2214 126.367 76.0456 125.998 74.9874C124.453 70.555 122.088 66.5081 119.083 63.019C118.353 62.1714 117.155 61.8897 116.13 62.3382L109.162 65.3843C106.688 63.3144 103.85 61.6491 100.757 60.5171L99.9121 52.9757C99.7891 51.8628 98.9496 50.9659 97.8476 50.7581C95.6082 50.3343 93.2949 50.1128 90.9324 50.1128C88.5699 50.1128 86.2621 50.3343 84.0254 50.7581C82.9262 50.9659 82.0867 51.8628 81.9609 52.9729L81.116 60.5171C78.0262 61.6491 75.1879 63.3062 72.7023 65.3843L65.7488 62.3382C64.7262 61.8897 63.5312 62.1687 62.7984 63.0163C59.7569 66.5326 57.4061 70.5912 55.8695 74.9792C55.4976 76.0374 55.8531 77.2132 56.7555 77.8804L62.8805 82.3976C62.6098 83.9753 62.4648 85.5886 62.4648 87.2456C62.4648 88.8999 62.6098 90.5241 62.8805 92.1019L56.7555 96.619C55.8531 97.2835 55.4976 98.462 55.8695 99.5202C57.4199 103.95 59.7851 107.997 62.782 111.48C63.5148 112.328 64.7098 112.607 65.7351 112.159L72.7023 109.115C75.2093 111.204 78.0548 112.849 81.116 113.98L81.9609 121.532C82.0867 122.645 82.9262 123.542 84.0281 123.75C86.2676 124.171 88.5754 124.387 90.9324 124.387C93.2949 124.387 95.6082 124.165 97.8476 123.741C98.9496 123.534 99.7891 122.637 99.9121 121.524L100.757 113.98C103.85 112.839 106.677 111.185 109.162 109.115L116.121 112.159C117.147 112.607 118.345 112.328 119.075 111.483C122.113 107.962 124.461 103.901 125.998 99.512C126.367 98.4538 126.012 97.2753 125.109 96.6108ZM90.9324 106.031C80.5582 106.031 72.1555 97.6171 72.1555 87.2429C72.1555 76.8796 80.5582 68.4659 90.9324 68.4659C101.307 68.4659 109.709 76.8796 109.709 87.2429C109.709 97.6171 101.307 106.031 90.9324 106.031Z" fill="#9393FF"/>
<path d="M90.9327 66.7324C79.6014 66.7324 70.4221 75.9227 70.4221 87.243C70.4221 98.5742 79.6014 107.764 90.9327 107.764C102.264 107.764 111.443 98.5742 111.443 87.243C111.443 75.9227 102.264 66.7324 90.9327 66.7324ZM90.9327 100.898C83.394 100.898 77.2881 94.7844 77.2881 87.2457C77.2881 79.7152 83.394 73.6012 90.9327 73.6012C98.4713 73.6012 104.577 79.7152 104.577 87.2457C104.577 94.7844 98.4713 100.898 90.9327 100.898Z" fill="#6C6CFF"/>
<path d="M52.5268 52.6585C52.5268 51.8409 52.4513 51.0359 52.317 50.252L55.3568 48.0136C55.5744 47.8523 55.7346 47.6255 55.814 47.3666C55.8933 47.1076 55.8876 46.83 55.7976 46.5745C55.0365 44.3965 53.872 42.3814 52.3649 40.6346C52.1887 40.4292 51.9515 40.2857 51.6878 40.225C51.4241 40.1644 51.148 40.1897 50.8998 40.2975L47.4414 41.8088C46.2006 40.7692 44.7892 39.9522 43.2698 39.394L42.8509 35.6498C42.8203 35.3809 42.7043 35.1289 42.5198 34.9308C42.3354 34.7327 42.0924 34.599 41.8263 34.5493C40.6948 34.3356 39.5457 34.2283 38.3941 34.2288C37.2439 34.2283 36.0961 34.3355 34.9658 34.549C34.6998 34.5987 34.4567 34.7325 34.2724 34.9306C34.088 35.1287 33.972 35.3807 33.9415 35.6496L33.5226 39.3937C32.0016 39.9513 30.5888 40.7683 29.3469 41.8085L25.8956 40.2975C25.6476 40.1896 25.3717 40.1639 25.1081 40.2243C24.8445 40.2846 24.6071 40.4277 24.4308 40.6327C22.9211 42.378 21.7544 44.3924 20.9918 46.5704C20.9014 46.8258 20.8954 47.1034 20.9745 47.3626C21.0535 47.6217 21.2136 47.8486 21.4312 48.01L24.471 50.252C24.197 51.846 24.197 53.4751 24.471 55.0691L21.4312 57.311C21.2136 57.4725 21.0535 57.6994 20.9745 57.9585C20.8954 58.2176 20.9014 58.4953 20.9918 58.7507C21.7541 60.9266 22.9181 62.94 24.4234 64.6864C24.5995 64.8919 24.8368 65.0356 25.1006 65.0963C25.3643 65.1569 25.6405 65.1315 25.8887 65.0236L29.3472 63.5126C30.5911 64.5498 32.0034 65.3666 33.5228 65.9273L33.9418 69.675C33.9723 69.9442 34.0885 70.1965 34.2732 70.3947C34.4579 70.593 34.7013 70.7267 34.9677 70.7762C36.0977 70.9876 37.2448 71.0935 38.3944 71.0925C39.5675 71.0925 40.7148 70.9823 41.8266 70.7721C42.0926 70.7223 42.3357 70.5886 42.5201 70.3905C42.7045 70.1924 42.8206 69.9404 42.8512 69.6715L43.2701 65.9273C44.7882 65.3664 46.1991 64.5497 47.4416 63.5126L50.8965 65.0236C51.1446 65.1315 51.4207 65.157 51.6844 65.0965C51.9481 65.0359 52.1854 64.8925 52.3616 64.6873C53.8697 62.9405 55.0352 60.9252 55.7971 58.7468C55.8873 58.4913 55.8932 58.2135 55.8139 57.9543C55.7346 57.6952 55.5743 57.4683 55.3566 57.3069L52.3173 55.0688C52.4513 54.2852 52.5268 53.4802 52.5268 52.6585ZM38.3941 59.4345C34.6524 59.4345 31.6219 56.4002 31.6219 52.6585C31.6219 48.9209 34.6524 45.8863 38.3941 45.8863C42.1359 45.8863 45.1664 48.9206 45.1664 52.6585C45.1664 56.4002 42.1359 59.4345 38.3941 59.4345ZM66.0127 38.8879H64.0877C63.7251 38.8879 63.3773 38.7438 63.1209 38.4874C62.8645 38.2311 62.7205 37.8833 62.7205 37.5207V35.5957C62.7205 35.2331 62.8645 34.8854 63.1209 34.629C63.3773 34.3726 63.7251 34.2285 64.0877 34.2285H66.0127C66.3753 34.2285 66.723 34.3726 66.9794 34.629C67.2358 34.8854 67.3799 35.2331 67.3799 35.5957V37.5207C67.3799 37.8833 67.2358 38.2311 66.9794 38.4874C66.723 38.7438 66.3753 38.8879 66.0127 38.8879Z" fill="#FFAA66"/>
<path d="M62.7205 42.8286C62.7205 43.1912 62.8646 43.539 63.121 43.7954C63.3774 44.0518 63.7251 44.1958 64.0877 44.1958H73.3657C73.7283 44.1958 74.0761 44.0518 74.3325 43.7954C74.5889 43.539 74.7329 43.1912 74.7329 42.8286C74.7329 42.466 74.5889 42.1183 74.3325 41.8619C74.0761 41.6055 73.7283 41.4614 73.3657 41.4614H64.0877C63.7251 41.4614 63.3774 41.6055 63.121 41.8619C62.8646 42.1183 62.7205 42.466 62.7205 42.8286ZM76.6472 46.219H64.088C63.7254 46.219 63.3776 46.363 63.1212 46.6194C62.8648 46.8758 62.7208 47.2236 62.7208 47.5862C62.7208 47.9488 62.8648 48.2965 63.1212 48.5529C63.3776 48.8093 63.7254 48.9533 64.088 48.9533H76.6472C77.0098 48.9533 77.3576 48.8093 77.614 48.5529C77.8704 48.2965 78.0144 47.9488 78.0144 47.5862C78.0144 47.2236 77.8704 46.8758 77.614 46.6194C77.3576 46.363 77.0098 46.219 76.6472 46.219Z" fill="#9393FF"/>
<path d="M41.4788 114.173H25.4198C23.7997 114.173 22.4864 112.86 22.4864 111.24V80.5951C22.4864 78.9749 23.7997 77.6616 25.4198 77.6616H27.8099L30.0447 79.0288H36.8539L39.0887 77.6616H41.4788C43.0989 77.6616 44.4122 78.9749 44.4122 80.5951V111.24C44.4122 112.86 43.0989 114.173 41.4788 114.173Z" fill="#FF6C6C"/>
<path d="M38.2793 80.9937L39.0887 77.6616H27.8099L28.6193 80.9937C28.6969 81.3133 28.8796 81.5974 29.1381 81.8006C29.3966 82.0039 29.7159 82.1143 30.0447 82.1143H36.8539C37.1827 82.1143 37.5019 82.0038 37.7604 81.8006C38.0189 81.5974 38.2017 81.3132 38.2793 80.9937Z" fill="#6C6CFF"/>
<path d="M125.92 95.5109L120.466 91.4944C120.67 90.0873 120.773 88.6675 120.775 87.2457C120.775 85.8594 120.671 84.4367 120.466 83.0053L125.921 78.9876C127.311 77.9644 127.861 76.1759 127.289 74.5372C125.701 69.982 123.288 65.8063 120.118 62.1264C118.987 60.8131 117.164 60.3955 115.583 61.0865L109.377 63.7982C107.127 62.0209 104.659 60.5921 102.023 59.5397L101.271 52.8227C101.079 51.106 99.8055 49.7361 98.1025 49.414C96.1872 49.0541 94.2473 48.8402 92.2996 48.7742V18.0086C92.2996 15.9338 90.6117 14.2458 88.5371 14.2458H14.2523C12.1778 14.2458 10.4898 15.9338 10.4898 18.0086V84.8532C10.4898 86.9277 12.1778 88.6157 14.2523 88.6157H21.1192V95.8382C21.1192 96.2008 21.2632 96.5486 21.5196 96.805C21.776 97.0614 22.1238 97.2054 22.4864 97.2054C22.849 97.2054 23.1967 97.0614 23.4531 96.805C23.7095 96.5486 23.8535 96.2008 23.8535 95.8382V80.5952C23.854 80.1798 24.0192 79.7816 24.3129 79.488C24.6065 79.1943 25.0047 79.0291 25.4201 79.0287H41.4791C41.8944 79.0291 42.2926 79.1943 42.5863 79.488C42.88 79.7816 43.0451 80.1798 43.0456 80.5952V111.24C43.0451 111.655 42.8799 112.054 42.5862 112.347C42.2925 112.641 41.8943 112.806 41.4791 112.806H25.4201C25.0048 112.806 24.6066 112.641 24.3129 112.347C24.0193 112.054 23.8541 111.655 23.8535 111.24V103.915C23.8535 103.552 23.7095 103.204 23.4531 102.948C23.1967 102.692 22.849 102.548 22.4864 102.548C22.1238 102.548 21.776 102.692 21.5196 102.948C21.2632 103.204 21.1192 103.552 21.1192 103.915V111.24C21.1192 113.611 23.0485 115.541 25.4201 115.541H41.4791C43.8506 115.541 45.78 113.611 45.78 111.24V88.6157H54.1909C54.5535 88.6157 54.9012 88.4716 55.1576 88.2152C55.414 87.9588 55.5581 87.6111 55.5581 87.2485C55.5581 86.8859 55.414 86.5381 55.1576 86.2817C54.9012 86.0253 54.5535 85.8813 54.1909 85.8813H45.78V80.5952C45.78 78.2237 43.8506 76.2943 41.4791 76.2943H25.4201C23.0485 76.2943 21.1192 78.2237 21.1192 80.5952V85.8813H14.2523C13.9798 85.8809 13.7185 85.7725 13.5257 85.5798C13.333 85.387 13.2246 85.1257 13.2242 84.8532V18.0086C13.2245 17.736 13.3329 17.4746 13.5256 17.2819C13.7184 17.0891 13.9797 16.9806 14.2523 16.9802H88.5371C88.8097 16.9806 89.0711 17.0891 89.2638 17.2819C89.4565 17.4746 89.5649 17.736 89.5652 18.0086V48.7739C87.6203 48.8399 85.6833 49.0537 83.7708 49.4135C82.0678 49.7361 80.7947 51.1058 80.6028 52.8224L79.8511 59.5391C77.204 60.5953 74.724 62.0296 72.4885 63.7974L66.2979 61.0868C64.7182 60.3955 62.8966 60.8112 61.7643 62.1209C58.5935 65.7891 56.1758 69.9631 54.5786 74.5271C54.0055 76.1658 54.5537 77.9554 55.9434 78.98L61.4006 83.0047C61.2004 84.4094 61.0995 85.8265 61.0987 87.2455C61.0987 88.6594 61.2002 90.0851 61.4006 91.4944L55.9434 95.5191C54.5537 96.544 54.0052 98.3334 54.5786 99.9718C56.1728 104.528 58.5845 108.7 61.7471 112.372C62.878 113.687 64.7007 114.104 66.2828 113.413L72.4893 110.701C74.7273 112.464 77.2061 113.897 79.8503 114.958L80.6025 121.684C80.7945 123.403 82.0695 124.773 83.7755 125.094C86.1357 125.535 88.5317 125.756 90.9327 125.755C93.3414 125.755 95.7534 125.53 98.1022 125.086C99.8055 124.764 101.079 123.394 101.271 121.677L102.023 114.958C104.664 113.897 107.141 112.464 109.376 110.701L115.575 113.413C117.155 114.103 118.978 113.687 120.11 112.375C123.278 108.703 125.693 104.528 127.288 99.9644C127.86 98.3243 127.311 96.5347 125.92 95.5109ZM124.706 99.0621C123.225 103.3 120.982 107.178 118.04 110.589C117.696 110.987 117.145 111.115 116.671 110.907L109.71 107.862C109.477 107.761 109.221 107.726 108.969 107.761C108.718 107.797 108.481 107.902 108.286 108.065C105.884 110.067 103.192 111.625 100.284 112.698C100.046 112.785 99.8368 112.938 99.6804 113.137C99.524 113.337 99.4262 113.576 99.398 113.829L98.5539 121.372C98.496 121.889 98.1104 122.301 97.5942 122.399C93.2227 123.225 88.6066 123.219 84.2811 122.406C83.764 122.309 83.3779 121.897 83.3199 121.379L82.4755 113.829C82.4473 113.576 82.3496 113.337 82.1932 113.137C82.0369 112.938 81.8281 112.785 81.5902 112.698C78.6745 111.623 75.9648 110.056 73.579 108.065C73.384 107.902 73.1477 107.797 72.8964 107.761C72.6451 107.726 72.3889 107.76 72.1563 107.862L65.188 110.907C64.7122 111.114 64.1623 110.986 63.8192 110.588C60.8808 107.176 58.6403 103.3 57.1596 99.0686C56.9851 98.5699 57.1484 98.0276 57.5662 97.7198L63.6909 93.2026C63.8948 93.0522 64.0529 92.848 64.1476 92.613C64.2422 92.3779 64.2697 92.1212 64.2269 91.8715C63.9653 90.3433 63.8334 88.7956 63.8326 87.2452C63.8326 85.7093 63.9652 84.1556 64.2269 82.6271C64.2697 82.3774 64.2422 82.1206 64.1476 81.8856C64.0529 81.6505 63.8948 81.4464 63.6909 81.296L57.5659 76.7788C57.1484 76.4709 56.9849 75.9287 57.1593 75.4297C58.6425 71.1917 60.8876 67.3154 63.8326 63.9087C64.1763 63.5111 64.7262 63.3828 65.2011 63.5912L72.1552 66.6359C72.3882 66.7382 72.6452 66.7733 72.8971 66.7374C73.149 66.7014 73.3858 66.5957 73.5809 66.4322C75.961 64.4365 78.6699 62.8697 81.5866 61.8018C81.8253 61.7144 82.035 61.5622 82.1919 61.3622C82.3489 61.1622 82.447 60.9225 82.4753 60.6698L83.3196 53.1254C83.3773 52.6094 83.7629 52.1971 84.2791 52.0994C88.641 51.2737 93.2348 51.2753 97.5939 52.0997C98.1102 52.1971 98.4957 52.6097 98.5537 53.1257L99.3978 60.6698C99.4261 60.9224 99.5242 61.1622 99.6812 61.3621C99.8382 61.5621 100.048 61.7144 100.286 61.8018C103.19 62.8647 105.881 64.4225 108.284 66.4325C108.48 66.5954 108.716 66.7007 108.968 66.7368C109.219 66.7728 109.476 66.7381 109.709 66.6365L116.677 63.5915C117.152 63.3828 117.703 63.5119 118.046 63.9103C120.991 67.3291 123.232 71.2073 124.707 75.4362C124.881 75.9353 124.717 76.4772 124.299 76.7848L118.175 81.2952C117.971 81.4456 117.813 81.6497 117.718 81.8848C117.623 82.1199 117.595 82.3767 117.638 82.6266C117.905 84.1882 118.041 85.7418 118.041 87.2449C118.041 88.7532 117.905 90.3096 117.638 91.8715C117.595 92.1214 117.623 92.3782 117.718 92.6133C117.813 92.8484 117.971 93.0525 118.175 93.2028L124.299 97.7121C124.717 98.0208 124.881 98.5628 124.706 99.0621Z" fill="#0000CB"/>
<path d="M90.9327 72.2334C90.9324 72.2334 90.9324 72.2334 90.9327 72.2334H90.9324C82.6546 72.2337 75.9204 78.9679 75.9204 87.2457C75.9204 95.5278 82.6549 102.266 90.9327 102.266C99.2105 102.266 105.945 95.5278 105.945 87.2457C105.945 78.9679 99.2105 72.2334 90.9327 72.2334ZM89.5652 75.0457V84.8531C89.5649 85.1257 89.4564 85.3869 89.2637 85.5797C89.071 85.7724 88.8097 85.8808 88.5371 85.8812H78.7322C79.3635 80.2005 83.8848 75.6784 89.5652 75.0457ZM90.9327 99.5315C84.6256 99.5315 79.4163 94.7471 78.733 88.6156H88.5374C90.6119 88.6156 92.2999 86.9277 92.2999 84.8531V75.0457C98.4287 75.7279 103.211 80.938 103.211 87.2457C103.211 94.0201 97.7027 99.5315 90.9327 99.5315Z" fill="#0000CB"/>
<path d="M38.6665 95.7698L36.4905 93.5938C37.3983 91.861 37.1251 89.6661 35.6707 88.2117C33.8797 86.421 30.9659 86.421 29.1749 88.2117C27.3842 90.0025 27.3842 92.9168 29.1749 94.7075C29.6012 95.1342 30.1075 95.4725 30.6649 95.703C31.2222 95.9335 31.8197 96.0516 32.4228 96.0506C33.166 96.0512 33.8983 95.8716 34.557 95.5273L36.733 97.7033C37.0001 97.9701 37.3499 98.1036 37.6999 98.1036C38.0499 98.1036 38.3996 97.9701 38.6667 97.7033C38.923 97.4468 39.0669 97.099 39.0668 96.7365C39.0668 96.3739 38.9228 96.0262 38.6665 95.7698ZM31.1084 92.774C30.7604 92.4251 30.565 91.9525 30.565 91.4597C30.565 90.967 30.7604 90.4943 31.1084 90.1455C31.4707 89.7832 31.9467 89.6019 32.4228 89.6019C32.8989 89.6019 33.3746 89.7832 33.7372 90.1455C34.0852 90.4943 34.2806 90.967 34.2806 91.4597C34.2806 91.9525 34.0852 92.4251 33.7372 92.774C33.3884 93.1222 32.9156 93.3177 32.4228 93.3177C31.9299 93.3177 31.4572 93.1222 31.1084 92.774ZM29.357 106.515C29.357 106.878 29.5011 107.225 29.7575 107.482C30.0139 107.738 30.3616 107.882 30.7242 107.882H36.1741C36.5367 107.882 36.8844 107.738 37.1408 107.482C37.3972 107.225 37.5413 106.878 37.5413 106.515C37.5413 106.152 37.3972 105.805 37.1408 105.548C36.8844 105.292 36.5367 105.148 36.1741 105.148H30.7242C30.3616 105.148 30.0139 105.292 29.7575 105.548C29.5011 105.805 29.357 106.152 29.357 106.515Z" fill="white"/>
<path d="M112.744 48.0476C112.382 48.0476 112.034 47.9036 111.778 47.6472C111.521 47.3908 111.377 47.043 111.377 46.6804C111.377 45.8514 110.702 45.1765 109.873 45.1765C109.118 45.1765 108.506 44.5646 108.506 43.8093C108.506 43.0541 109.118 42.4421 109.873 42.4421C110.702 42.4421 111.377 41.7673 111.377 40.9382C111.377 40.183 111.989 39.571 112.744 39.571C113.499 39.571 114.111 40.183 114.111 40.9382C114.111 41.7673 114.786 42.4421 115.615 42.4421C116.371 42.4421 116.983 43.0541 116.983 43.8093C116.983 44.5646 116.371 45.1765 115.615 45.1765C115.217 45.177 114.834 45.3356 114.552 45.6176C114.271 45.8995 114.112 46.2817 114.111 46.6804C114.111 47.043 113.967 47.3908 113.711 47.6472C113.455 47.9036 113.107 48.0476 112.744 48.0476Z" fill="#FF6C6C"/>
<path d="M9.55087 111.76C9.18827 111.76 8.84052 111.616 8.58412 111.36C8.32773 111.104 8.18368 110.756 8.18368 110.393C8.18368 109.564 7.50911 108.889 6.67978 108.889C6.31718 108.889 5.96943 108.745 5.71303 108.489C5.45663 108.233 5.31259 107.885 5.31259 107.522C5.31259 107.16 5.45663 106.812 5.71303 106.555C5.96943 106.299 6.31718 106.155 6.67978 106.155C7.50911 106.155 8.18368 105.48 8.18368 104.651C8.18368 104.289 8.32773 103.941 8.58412 103.684C8.84052 103.428 9.18827 103.284 9.55087 103.284C9.91347 103.284 10.2612 103.428 10.5176 103.684C10.774 103.941 10.9181 104.289 10.9181 104.651C10.9181 105.48 11.5926 106.155 12.422 106.155C12.7846 106.155 13.1323 106.299 13.3887 106.555C13.6451 106.812 13.7892 107.16 13.7892 107.522C13.7892 107.885 13.6451 108.233 13.3887 108.489C13.1323 108.745 12.7846 108.889 12.422 108.889C12.0232 108.89 11.641 109.048 11.359 109.33C11.0771 109.612 10.9185 109.995 10.9181 110.393C10.9181 110.756 10.774 111.104 10.5176 111.36C10.2612 111.616 9.91347 111.76 9.55087 111.76Z" fill="#6C6CFF"/>
<path d="M52.4447 127.364C52.0821 127.364 51.7344 127.219 51.478 126.963C51.2216 126.707 51.0775 126.359 51.0775 125.996C51.0775 125.167 50.4029 124.492 49.5736 124.492C49.211 124.492 48.8633 124.348 48.6069 124.092C48.3505 123.836 48.2064 123.488 48.2064 123.125C48.2064 122.763 48.3505 122.415 48.6069 122.158C48.8633 121.902 49.211 121.758 49.5736 121.758C50.4029 121.758 51.0775 121.083 51.0775 120.254C51.0775 119.892 51.2216 119.544 51.478 119.287C51.7344 119.031 52.0821 118.887 52.4447 118.887C52.8073 118.887 53.1551 119.031 53.4115 119.287C53.6678 119.544 53.8119 119.892 53.8119 120.254C53.8119 121.083 54.4865 121.758 55.3158 121.758C55.6784 121.758 56.0261 121.902 56.2825 122.158C56.5389 122.415 56.683 122.763 56.683 123.125C56.683 123.488 56.5389 123.836 56.2825 124.092C56.0261 124.348 55.6784 124.492 55.3158 124.492C54.9171 124.493 54.5348 124.651 54.2529 124.933C53.9709 125.215 53.8123 125.598 53.8119 125.996C53.8119 126.359 53.6678 126.707 53.4115 126.963C53.1551 127.219 52.8073 127.364 52.4447 127.364Z" fill="#FF9C33"/>
<path d="M102.042 35.5439C101.863 35.5441 101.685 35.5089 101.519 35.4401C101.353 35.3714 101.203 35.2705 101.076 35.1433L98.2048 32.2722C98.0778 32.1453 97.9771 31.9946 97.9084 31.8287C97.8396 31.6629 97.8043 31.4851 97.8043 31.3056C97.8043 31.1261 97.8396 30.9483 97.9084 30.7825C97.9771 30.6166 98.0778 30.4659 98.2048 30.339L101.076 27.4679C101.203 27.3409 101.353 27.2402 101.519 27.1715C101.685 27.1028 101.863 27.0674 102.042 27.0674C102.222 27.0674 102.4 27.1028 102.566 27.1715C102.731 27.2402 102.882 27.3409 103.009 27.4679L105.88 30.339C106.007 30.4659 106.108 30.6166 106.177 30.7825C106.245 30.9483 106.281 31.1261 106.281 31.3056C106.281 31.4851 106.245 31.6629 106.177 31.8287C106.108 31.9946 106.007 32.1453 105.88 32.2722L103.009 35.1433C102.882 35.2705 102.732 35.3714 102.566 35.4401C102.4 35.5089 102.222 35.5441 102.042 35.5439ZM101.105 31.3056L102.042 32.2432L102.98 31.3056L102.042 30.368L101.105 31.3056Z" fill="#6C6CFF"/>
<path d="M112.744 129.497C112.565 129.498 112.387 129.462 112.221 129.393C112.055 129.325 111.904 129.224 111.778 129.097L108.907 126.226C108.78 126.099 108.679 125.948 108.61 125.782C108.541 125.616 108.506 125.438 108.506 125.259C108.506 125.079 108.541 124.902 108.61 124.736C108.679 124.57 108.78 124.419 108.907 124.292L111.778 121.421C111.905 121.294 112.055 121.194 112.221 121.125C112.387 121.056 112.565 121.021 112.744 121.021C112.924 121.021 113.102 121.056 113.267 121.125C113.433 121.194 113.584 121.294 113.711 121.421L116.582 124.292C116.709 124.419 116.81 124.57 116.878 124.736C116.947 124.902 116.982 125.079 116.982 125.259C116.982 125.438 116.947 125.616 116.878 125.782C116.81 125.948 116.709 126.099 116.582 126.226L113.711 129.097C113.584 129.224 113.433 129.325 113.268 129.393C113.102 129.462 112.924 129.497 112.744 129.497ZM111.807 125.259L112.744 126.197L113.682 125.259L112.744 124.321L111.807 125.259Z" fill="#FF6C6C"/>
<defs>
<linearGradient id="paint0_linear_1291_37611" x1="8.62227" y1="106.236" x2="115.185" y2="-0.327296" gradientUnits="userSpaceOnUse">
<stop stop-color="#FFD8D8" stop-opacity="0"/>
<stop offset="0.998" stop-color="#FFB2B2"/>
</linearGradient>
</defs>
</svg>
