<svg width="42" height="42" viewBox="0 0 42 42" fill="none" xmlns="http://www.w3.org/2000/svg">
<g id="Frame">
<g id="Group">
<path id="Vector" d="M34.1309 16.0818L26.293 16.0897C25.0146 16.0897 23.9531 17.1298 23.9531 18.4082V34.7656C23.9531 36.0439 25.0143 37.2422 26.293 37.2422H26.3038L34.1257 37.1556C35.404 37.1556 36.4468 36.0758 36.4468 34.7974L36.456 18.4279C36.456 17.1452 35.4139 16.0818 34.1309 16.0818ZM29.5244 17.2266H30.9094C31.2716 17.2266 31.5656 17.5206 31.5656 17.8829C31.5656 18.2451 31.2716 18.5391 30.9094 18.5391H29.5244C29.3503 18.5391 29.1834 18.47 29.0603 18.3469C28.9373 18.2238 28.8681 18.0569 28.8681 17.8829C28.8681 17.7088 28.9373 17.5419 29.0603 17.4188C29.1834 17.2958 29.3503 17.2266 29.5244 17.2266ZM27.1327 17.305C27.3788 17.0622 27.8152 17.0622 28.0612 17.305C28.1829 17.4297 28.2512 17.5968 28.2516 17.771C28.2516 17.9416 28.1827 18.1122 28.0612 18.2336C27.9373 18.3567 27.77 18.4262 27.5953 18.4272C27.4244 18.4272 27.2541 18.355 27.1327 18.2336C27.0113 18.1122 26.9391 17.9416 26.9391 17.771C26.9401 17.5963 27.0096 17.429 27.1327 17.305ZM30.2167 36.4367C29.6737 36.4367 29.2317 35.9947 29.2317 35.452C29.2317 34.9093 29.6737 34.4673 30.2167 34.4673C30.7597 34.4673 31.2017 34.9089 31.2017 35.452C31.2017 35.995 30.7597 36.4367 30.2167 36.4367ZM35.1094 33.6329C35.1094 33.814 34.9627 33.961 34.7812 33.961H25.5938C25.4123 33.961 25.2656 33.814 25.2656 33.6329V19.8516C25.2656 19.6705 25.4123 19.5235 25.5938 19.5235H34.7812C34.9627 19.5235 35.1094 19.6705 35.1094 19.8516V33.6329Z" fill="white"/>
<path id="Vector_2" d="M41.6627 29.0391H39.7031V7.25747C39.7031 5.775 38.4953 4.75781 37.0132 4.75781H4.98684C3.50405 4.75781 2.29688 5.775 2.29688 7.25747V29.0391H0.336656C0.155531 29.0391 0 28.9879 0 29.169V29.4748C0 31.1194 1.3463 32.6484 2.99053 32.6484H24.6094V27.7266H4.26562V7.71094H37.7344V27.7266H36.0938V32.6484H39.0082C40.6534 32.6484 42 31.1194 42 29.4748V29.169C42 28.9879 41.8438 29.0391 41.6627 29.0391ZM21.4623 6.66028C21.3393 6.7824 21.173 6.85083 20.9997 6.85059C20.8261 6.85059 20.6581 6.78202 20.537 6.66028C20.4756 6.59923 20.4269 6.52663 20.3937 6.44666C20.3604 6.36669 20.3434 6.28094 20.3434 6.19434C20.3434 6.02044 20.412 5.85309 20.537 5.73169C20.7798 5.48559 21.2195 5.48559 21.4623 5.73169C21.5867 5.85309 21.6559 6.02372 21.6559 6.19434C21.6559 6.36825 21.5867 6.53559 21.4623 6.66028Z" fill="white"/>
</g>
</g>
</svg>
