<svg width="115" height="116" viewBox="0 0 115 116" fill="none" xmlns="http://www.w3.org/2000/svg">
<g clip-path="url(#clip0_784_1879)">
<mask id="mask0_784_1879" style="mask-type:luminance" maskUnits="userSpaceOnUse" x="-1" y="0" width="116" height="116">
<path d="M-0.000488281 0.54969H114.999V115.549H-0.000488281V0.54969Z" fill="white"/>
</mask>
<g mask="url(#mask0_784_1879)">
<path d="M2.24561 35.437H104.559" stroke="#3A3A3A" stroke-width="3" stroke-miterlimit="10" stroke-linecap="round" stroke-linejoin="round"/>
<path d="M21.002 25.8794C23.9435 25.8794 26.3437 23.4869 26.3437 20.547C26.3437 17.6071 23.9435 15.2145 21.002 15.2145C18.067 15.2145 15.6667 17.6071 15.6667 20.547C15.6667 23.4869 18.067 25.8794 21.002 25.8794Z" stroke="#3A3A3A" stroke-width="3" stroke-miterlimit="10" stroke-linecap="round" stroke-linejoin="round"/>
<path d="M67.3709 15.2145H87.4644C90.3994 15.2145 92.7998 17.6136 92.7998 20.547C92.7998 23.4806 90.3994 25.8794 87.4644 25.8794H67.3709C64.4359 25.8794 62.0356 23.4806 62.0356 20.547C62.0356 17.6136 64.4359 15.2145 67.3709 15.2145Z" stroke="#3A3A3A" stroke-width="3" stroke-miterlimit="10" stroke-linecap="round" stroke-linejoin="round"/>
<path d="M40.7006 25.8794C43.6421 25.8794 46.0423 23.4869 46.0423 20.547C46.0423 17.6071 43.6421 15.2145 40.7006 15.2145C37.7657 15.2145 35.3653 17.6071 35.3653 20.547C35.3653 23.4869 37.7657 25.8794 40.7006 25.8794Z" stroke="#3A3A3A" stroke-width="3" stroke-miterlimit="10" stroke-linecap="round" stroke-linejoin="round"/>
<path d="M36.4796 52.7136L31.9845 71.5239" stroke="#3A3A3A" stroke-width="3" stroke-miterlimit="10" stroke-linecap="round" stroke-linejoin="round"/>
<path d="M46.832 69.8252L53.1922 62.6853C53.4723 62.3736 53.4723 61.8646 53.1922 61.5529L46.832 54.413" stroke="#3A3A3A" stroke-width="3" stroke-miterlimit="10" stroke-linecap="round" stroke-linejoin="round"/>
<path d="M21.6325 69.8252L15.2722 62.6853C14.9919 62.3736 14.9919 61.8646 15.2722 61.5529L21.6325 54.413" stroke="#3A3A3A" stroke-width="3" stroke-miterlimit="10" stroke-linecap="round" stroke-linejoin="round"/>
<path d="M90.858 62.6405C93.3154 63.1878 95.6139 64.155 97.6832 65.453L99.5232 63.6204C100.612 62.5259 102.401 62.5259 103.496 63.6204L106.393 66.5159C107.488 67.6104 107.488 69.3985 106.393 70.4867L104.559 72.3256C105.869 74.4034 106.816 76.6886 107.361 79.0836H109.939C111.486 79.0836 112.753 80.35 112.753 81.8899V85.9944C112.753 87.5341 111.486 88.8004 109.939 88.8004H107.348C106.802 91.181 105.859 93.4527 104.559 95.5203L106.393 97.3528C107.488 98.4474 107.488 100.235 106.393 101.324L103.496 104.225C102.401 105.32 100.612 105.32 99.5232 104.225L97.6832 102.393C95.6074 103.698 93.3256 104.643 90.9344 105.186V107.795C90.9344 109.342 89.6673 110.608 88.1268 110.608H84.0202C82.4792 110.608 81.2124 109.342 81.2124 107.795V105.18C78.7929 104.633 76.5201 103.672 74.4762 102.393L72.6427 104.225C71.5475 105.32 69.7587 105.32 68.6698 104.225L65.7667 101.324C64.6778 100.235 64.6778 98.4474 65.7667 97.3528L67.6065 95.5203C66.3019 93.4543 65.3569 91.1822 64.8117 88.8004H62.2076C60.6607 88.8004 59.3997 87.5341 59.3997 85.9944V81.8899C59.3997 80.35 60.6607 79.0836 62.2076 79.0836H64.8054C65.3442 76.716 66.276 74.4553 67.562 72.3957L65.7157 70.544C64.6208 69.4558 64.6208 67.6677 65.7157 66.5731L68.6125 63.6777C69.7077 62.5832 71.4967 62.5832 72.5854 63.6777L74.4126 65.4977C76.48 64.188 78.7528 63.2351 81.136 62.6786V60.0889C81.136 58.5425 82.3965 57.2761 83.9436 57.2761H88.0439C89.591 57.2761 90.858 58.5425 90.858 60.0889V62.6405Z" stroke="#3A3A3A" stroke-width="3" stroke-miterlimit="10" stroke-linecap="round" stroke-linejoin="round"/>
<path d="M86.0763 72.3705C92.4685 72.3705 97.6511 77.5504 97.6511 83.9455C97.6511 90.3345 92.4685 95.5142 86.0763 95.5142C79.6779 95.5142 74.4951 90.3345 74.4951 83.9455C74.4951 77.5504 79.6779 72.3705 86.0763 72.3705Z" stroke="#3A3A3A" stroke-width="3" stroke-miterlimit="10" stroke-linecap="round" stroke-linejoin="round"/>
<path d="M23.9053 88.8008H10.6114C6.01499 88.8008 2.24561 84.3021 2.24561 78.8104V15.4817C2.24561 9.98397 6.00825 5.49135 10.6114 5.49135H96.1934C100.796 5.49135 104.559 9.99026 104.559 15.4817V64.6836M62.2076 88.8008H43.9797" stroke="#3A3A3A" stroke-width="3" stroke-miterlimit="10" stroke-linecap="round" stroke-linejoin="round"/>
<path d="M33.9648 88.8008H34.0093" stroke="#3A3A3A" stroke-width="3" stroke-miterlimit="10" stroke-linecap="round" stroke-linejoin="round"/>
</g>
</g>
<defs>
<clipPath id="clip0_784_1879">
<rect width="115" height="115" fill="white" transform="translate(-0.000488281 0.549316)"/>
</clipPath>
</defs>
</svg>
