<svg xmlns="http://www.w3.org/2000/svg" width="182" height="66" viewBox="0 0 212 66" fill="none">
    <g clip-path="url(#clip0_133_14002)">
    <path d="M74.6138 55.7184V27.309H66.3533V18.5181L92.9396 18.5181V27.309H84.6791V55.7184H74.6138Z" fill="white"/>
    <path d="M94.9871 22.086C94.9871 20.7168 95.4684 19.5503 96.4351 18.5863C97.3997 17.6244 98.5614 17.1425 99.9202 17.1425C101.279 17.1425 102.509 17.6159 103.457 18.5628C104.405 19.5097 104.878 20.6848 104.878 22.086C104.878 23.4872 104.395 24.6793 103.43 25.6604C102.466 26.6414 101.296 27.1298 99.9202 27.1298C98.5448 27.1298 97.4205 26.6307 96.4475 25.6348C95.4746 24.6367 94.9892 23.4552 94.9892 22.086H94.9871ZM95.3937 55.7183V30.0601H104.411V55.7183H95.3937Z" fill="white"/>
    <path d="M108.224 16.3043H116.775V29.7317C116.775 30.8193 116.752 31.7236 116.711 32.4466C116.669 33.1695 116.605 33.7923 116.522 34.3191C117.566 32.485 118.765 31.1755 120.119 30.3949C121.474 29.6144 123.237 29.222 125.407 29.222C128.807 29.222 131.562 30.4824 133.676 33.0011C135.788 35.5198 136.846 38.8254 136.846 42.9138C136.846 47.0021 135.779 50.4976 133.651 52.9928C131.523 55.488 128.674 56.7335 125.106 56.7335C123.355 56.7335 121.764 56.3027 120.335 55.4475C118.904 54.5902 117.617 53.2935 116.474 51.5596V55.7184H108.224V16.3043ZM116.172 42.9201C116.172 44.9206 116.688 46.4966 117.723 47.6504C118.758 48.8042 120.186 49.38 122.003 49.38C123.82 49.38 125.276 48.8085 126.32 47.6632C127.363 46.5201 127.886 44.9377 127.886 42.9201C127.886 40.9026 127.359 39.3436 126.307 38.1899C125.256 37.0361 123.82 36.4603 122.003 36.4603C120.186 36.4603 118.758 37.0361 117.723 38.1899C116.686 39.3436 116.172 40.9197 116.172 42.9201Z" fill="white"/>
    <path d="M138.957 22.086C138.957 20.7168 139.439 19.5503 140.405 18.5863C141.37 17.6244 142.532 17.1425 143.891 17.1425C145.249 17.1425 146.479 17.6159 147.428 18.5628C148.376 19.5097 148.849 20.6848 148.849 22.086C148.849 23.4872 148.365 24.6793 147.401 25.6604C146.436 26.6414 145.266 27.1298 143.891 27.1298C142.515 27.1298 141.391 26.6307 140.418 25.6348C139.445 24.6388 138.96 23.4552 138.96 22.086H138.957ZM139.364 55.7183V30.0601H148.382V55.7183H139.364Z" fill="white"/>
    <path d="M170.404 38.433C169.531 37.6609 168.691 37.1 167.886 36.7482C167.081 36.3963 166.233 36.2193 165.343 36.2193C163.563 36.2193 162.148 36.8143 161.098 38.0043C160.049 39.1943 159.524 40.8088 159.524 42.8455C159.524 44.8822 160.069 46.3879 161.16 47.5608C162.252 48.7317 163.72 49.3182 165.569 49.3182C166.475 49.3182 167.326 49.139 168.124 48.7786C168.921 48.4182 169.682 47.8615 170.404 47.1066V54.9527C169.328 55.5648 168.251 56.0148 167.176 56.3048C166.1 56.5927 164.992 56.7378 163.847 56.7378C159.928 56.7378 156.756 55.4688 154.327 52.9331C151.898 50.3973 150.682 47.0575 150.682 42.918C150.682 38.7785 151.923 35.6093 154.402 33.0565C156.881 30.5037 160.063 29.2262 163.947 29.2262C165.241 29.2262 166.409 29.3542 167.452 29.6058C168.494 29.8596 169.477 30.2648 170.402 30.8214V38.4351L170.404 38.433Z" fill="white"/>
    <path d="M173.058 55.7184V16.3043H182.075V55.7184H173.058Z" fill="white"/>
    <path d="M212.182 44.654L192.867 44.654C192.883 46.6608 193.385 48.2092 194.373 49.299C195.36 50.3888 196.758 50.9326 198.567 50.9326C199.924 50.9326 201.067 50.666 201.994 50.1328C202.924 49.5997 203.631 48.8106 204.116 47.7613L210.844 50.5914C210.039 52.5534 208.612 54.0676 206.566 55.134C204.519 56.2003 202.013 56.7335 199.044 56.7335C194.615 56.7335 191.064 55.4901 188.388 53.0056C185.712 50.5188 184.374 47.2409 184.374 43.1696C184.374 39.0984 185.712 35.8396 188.392 33.193C191.07 30.5463 194.458 29.2219 198.555 29.2219C202.652 29.2219 206.093 30.5591 208.529 33.2335C210.962 35.9079 212.182 39.5697 212.182 44.2232V44.654ZM203.339 39.5697C203.171 38.1088 202.623 36.9358 201.693 36.0508C200.764 35.1657 199.621 34.7242 198.266 34.7242C196.81 34.7242 195.648 35.1273 194.788 35.9356C193.927 36.7439 193.352 37.9531 193.068 39.5697H203.339Z" fill="white"/>
    <path d="M23.8739 16.5L23.8739 45.208L56.4513 65.912L56.4513 37.204L23.8739 16.5Z" fill="url(#paint0_linear_133_14002)"/>
    <path d="M47.526 29.4885L48.7126 28.708V0L25.4413 15.3105V15.6453L47.526 29.4885Z" fill="url(#paint1_linear_133_14002)"/>
    <path d="M0 60.6065L23.2714 45.296L23.2714 16.588L0 31.8985L0 60.6065Z" fill="url(#paint2_linear_133_14002)"/>
    </g>
    <defs>
    <linearGradient id="paint0_linear_133_14002" x1="23.8739" y1="41.2071" x2="56.4513" y2="41.2071" gradientUnits="userSpaceOnUse">
    <stop stop-color="#12AFFC"/>
    <stop offset="1" stop-color="#7B28FF"/>
    </linearGradient>
    <linearGradient id="paint1_linear_133_14002" x1="66.9803" y1="9.25796" x2="17.4477" y2="22.8925" gradientUnits="userSpaceOnUse">
    <stop stop-color="#12AFFC"/>
    <stop offset="1" stop-color="#7B28FF"/>
    </linearGradient>
    <linearGradient id="paint2_linear_133_14002" x1="0" y1="38.5973" x2="23.2714" y2="38.5973" gradientUnits="userSpaceOnUse">
    <stop stop-color="#12AFFC"/>
    <stop offset="1" stop-color="#7B28FF"/>
    </linearGradient>
    <clipPath id="clip0_133_14002">
    <rect width="212" height="66" fill="white"/>
    </clipPath>
    </defs>
</svg>