<svg width="36" height="45" viewBox="0 0 36 45" fill="none" xmlns="http://www.w3.org/2000/svg">
<path fill-rule="evenodd" clip-rule="evenodd" d="M22.2881 -6.10352e-05H35.7421L6.76207 29.2219L-0.00292969 22.2949L22.2881 -6.10352e-05ZM22.9091 1.49994L2.10907 22.2999L6.77207 27.0759L32.1411 1.49994H22.9091ZM22.2971 20.5479H35.7381L23.8251 32.4649L16.9631 39.2879L10.0971 32.5309L16.8721 25.8219L18.8941 27.7519L16.8731 25.8209L22.2971 20.5479ZM22.9061 22.0479L19.0391 25.8109L23.7971 30.3669L32.1131 22.0479H22.9061ZM16.8961 27.9139L12.2371 32.5279L16.9581 37.1739L21.6791 32.4799L16.8961 27.9139ZM23.8281 32.4699L35.5711 44.3499H22.0421L16.9551 39.2949L23.8281 32.4699ZM19.0881 39.2949L22.6651 42.8499H31.9821L23.8191 34.5939L19.0881 39.2949Z" fill="url(#paint0_linear_1135_1282)"/>
<defs>
<linearGradient id="paint0_linear_1135_1282" x1="-0.00292969" y1="22.1759" x2="35.7421" y2="22.1759" gradientUnits="userSpaceOnUse">
<stop stop-color="#12AFFC"/>
<stop offset="1" stop-color="#7B28FF"/>
</linearGradient>
</defs>
</svg>
